G04 #@! TF.GenerationSoftware,KiCad,Pcbnew,6.0.9-8da3e8f707~116~ubuntu20.04.1*
G04 #@! TF.CreationDate,2023-04-19T17:44:35+00:00*
G04 #@! TF.ProjectId,LEC030201,4c454330-3330-4323-9031-2e6b69636164,rev?*
G04 #@! TF.SameCoordinates,Original*
G04 #@! TF.FileFunction,Soldermask,Top*
G04 #@! TF.FilePolarity,Negative*
%FSLAX46Y46*%
G04 Gerber Fmt 4.6, Leading zero omitted, Abs format (unit mm)*
G04 Created by KiCad (PCBNEW 6.0.9-8da3e8f707~116~ubuntu20.04.1) date 2023-04-19 17:44:35*
%MOMM*%
%LPD*%
G01*
G04 APERTURE LIST*
%ADD10C,0.010000*%
%ADD11C,3.200000*%
%ADD12R,3.000000X3.000000*%
%ADD13C,3.000000*%
%ADD14C,0.500000*%
G04 APERTURE END LIST*
G04 #@! TO.C,LOGO1*
G36*
X196300968Y-141914500D02*
G01*
X196506269Y-142197044D01*
X196530799Y-142230835D01*
X196554493Y-142263537D01*
X196577180Y-142294909D01*
X196598689Y-142324714D01*
X196618848Y-142352711D01*
X196637487Y-142378663D01*
X196654435Y-142402329D01*
X196669520Y-142423470D01*
X196682571Y-142441848D01*
X196693418Y-142457223D01*
X196701889Y-142469356D01*
X196707814Y-142478009D01*
X196711021Y-142482942D01*
X196711570Y-142484021D01*
X196710129Y-142487001D01*
X196706077Y-142493439D01*
X196699817Y-142502779D01*
X196691755Y-142514461D01*
X196682293Y-142527928D01*
X196671838Y-142542622D01*
X196660793Y-142557984D01*
X196649562Y-142573457D01*
X196638551Y-142588483D01*
X196628162Y-142602504D01*
X196618801Y-142614962D01*
X196610872Y-142625298D01*
X196604779Y-142632955D01*
X196600927Y-142637375D01*
X196599810Y-142638247D01*
X196598071Y-142636223D01*
X196593504Y-142630295D01*
X196586264Y-142620671D01*
X196576502Y-142607561D01*
X196564373Y-142591174D01*
X196550029Y-142571719D01*
X196533625Y-142549405D01*
X196515313Y-142524442D01*
X196495247Y-142497037D01*
X196473579Y-142467402D01*
X196450465Y-142435743D01*
X196426056Y-142402272D01*
X196400506Y-142367196D01*
X196373968Y-142330724D01*
X196346596Y-142293067D01*
X196338190Y-142281493D01*
X196310558Y-142243445D01*
X196283707Y-142206468D01*
X196257789Y-142170772D01*
X196232960Y-142136572D01*
X196209374Y-142104081D01*
X196187186Y-142073511D01*
X196166549Y-142045075D01*
X196147618Y-142018985D01*
X196130548Y-141995456D01*
X196115493Y-141974699D01*
X196102608Y-141956927D01*
X196092047Y-141942354D01*
X196083964Y-141931192D01*
X196078514Y-141923654D01*
X196075851Y-141919952D01*
X196075625Y-141919630D01*
X196074877Y-141918417D01*
X196074715Y-141917412D01*
X196075563Y-141916595D01*
X196077844Y-141915947D01*
X196081981Y-141915449D01*
X196088399Y-141915081D01*
X196097522Y-141914823D01*
X196109772Y-141914655D01*
X196125573Y-141914559D01*
X196145349Y-141914514D01*
X196169525Y-141914500D01*
X196186554Y-141914499D01*
X196300968Y-141914500D01*
G37*
D10*
X196300968Y-141914500D02*
X196506269Y-142197044D01*
X196530799Y-142230835D01*
X196554493Y-142263537D01*
X196577180Y-142294909D01*
X196598689Y-142324714D01*
X196618848Y-142352711D01*
X196637487Y-142378663D01*
X196654435Y-142402329D01*
X196669520Y-142423470D01*
X196682571Y-142441848D01*
X196693418Y-142457223D01*
X196701889Y-142469356D01*
X196707814Y-142478009D01*
X196711021Y-142482942D01*
X196711570Y-142484021D01*
X196710129Y-142487001D01*
X196706077Y-142493439D01*
X196699817Y-142502779D01*
X196691755Y-142514461D01*
X196682293Y-142527928D01*
X196671838Y-142542622D01*
X196660793Y-142557984D01*
X196649562Y-142573457D01*
X196638551Y-142588483D01*
X196628162Y-142602504D01*
X196618801Y-142614962D01*
X196610872Y-142625298D01*
X196604779Y-142632955D01*
X196600927Y-142637375D01*
X196599810Y-142638247D01*
X196598071Y-142636223D01*
X196593504Y-142630295D01*
X196586264Y-142620671D01*
X196576502Y-142607561D01*
X196564373Y-142591174D01*
X196550029Y-142571719D01*
X196533625Y-142549405D01*
X196515313Y-142524442D01*
X196495247Y-142497037D01*
X196473579Y-142467402D01*
X196450465Y-142435743D01*
X196426056Y-142402272D01*
X196400506Y-142367196D01*
X196373968Y-142330724D01*
X196346596Y-142293067D01*
X196338190Y-142281493D01*
X196310558Y-142243445D01*
X196283707Y-142206468D01*
X196257789Y-142170772D01*
X196232960Y-142136572D01*
X196209374Y-142104081D01*
X196187186Y-142073511D01*
X196166549Y-142045075D01*
X196147618Y-142018985D01*
X196130548Y-141995456D01*
X196115493Y-141974699D01*
X196102608Y-141956927D01*
X196092047Y-141942354D01*
X196083964Y-141931192D01*
X196078514Y-141923654D01*
X196075851Y-141919952D01*
X196075625Y-141919630D01*
X196074877Y-141918417D01*
X196074715Y-141917412D01*
X196075563Y-141916595D01*
X196077844Y-141915947D01*
X196081981Y-141915449D01*
X196088399Y-141915081D01*
X196097522Y-141914823D01*
X196109772Y-141914655D01*
X196125573Y-141914559D01*
X196145349Y-141914514D01*
X196169525Y-141914500D01*
X196186554Y-141914499D01*
X196300968Y-141914500D01*
G36*
X191358520Y-142849220D02*
G01*
X190599060Y-142849220D01*
X190599060Y-143192120D01*
X190378080Y-143192120D01*
X190378080Y-142625700D01*
X191358520Y-142625700D01*
X191358520Y-142849220D01*
G37*
X191358520Y-142849220D02*
X190599060Y-142849220D01*
X190599060Y-143192120D01*
X190378080Y-143192120D01*
X190378080Y-142625700D01*
X191358520Y-142625700D01*
X191358520Y-142849220D01*
G36*
X189001400Y-143192120D02*
G01*
X188780420Y-143192120D01*
X188780420Y-141917040D01*
X189001400Y-141917040D01*
X189001400Y-143192120D01*
G37*
X189001400Y-143192120D02*
X188780420Y-143192120D01*
X188780420Y-141917040D01*
X189001400Y-141917040D01*
X189001400Y-143192120D01*
G36*
X192666209Y-141911115D02*
G01*
X192687949Y-141911898D01*
X192706476Y-141913135D01*
X192714880Y-141914013D01*
X192776536Y-141924111D01*
X192836482Y-141938858D01*
X192894502Y-141958120D01*
X192950380Y-141981760D01*
X193003901Y-142009642D01*
X193054850Y-142041632D01*
X193103012Y-142077592D01*
X193148171Y-142117388D01*
X193190111Y-142160884D01*
X193228617Y-142207944D01*
X193263475Y-142258433D01*
X193264753Y-142260462D01*
X193270950Y-142270604D01*
X193275873Y-142279176D01*
X193279032Y-142285284D01*
X193279933Y-142288034D01*
X193279927Y-142288046D01*
X193277616Y-142289794D01*
X193271584Y-142293936D01*
X193262376Y-142300116D01*
X193250541Y-142307976D01*
X193236627Y-142317159D01*
X193221181Y-142327308D01*
X193204750Y-142338066D01*
X193187883Y-142349075D01*
X193171127Y-142359979D01*
X193155029Y-142370419D01*
X193140138Y-142380039D01*
X193127000Y-142388482D01*
X193116165Y-142395390D01*
X193108178Y-142400407D01*
X193103588Y-142403174D01*
X193102794Y-142403584D01*
X193099968Y-142402718D01*
X193095905Y-142398095D01*
X193090305Y-142389339D01*
X193087184Y-142383914D01*
X193070089Y-142356428D01*
X193049427Y-142328002D01*
X193026229Y-142299852D01*
X193001528Y-142273197D01*
X192976356Y-142249254D01*
X192964480Y-142239140D01*
X192923846Y-142209172D01*
X192880247Y-142183127D01*
X192834196Y-142161226D01*
X192786208Y-142143690D01*
X192736797Y-142130740D01*
X192696452Y-142123813D01*
X192674946Y-142121768D01*
X192650221Y-142120722D01*
X192623760Y-142120637D01*
X192597045Y-142121480D01*
X192571557Y-142123214D01*
X192548779Y-142125804D01*
X192537826Y-142127603D01*
X192487286Y-142139608D01*
X192438775Y-142156099D01*
X192392534Y-142176857D01*
X192348804Y-142201666D01*
X192307826Y-142230308D01*
X192269841Y-142262566D01*
X192235090Y-142298223D01*
X192203814Y-142337062D01*
X192176252Y-142378864D01*
X192152648Y-142423413D01*
X192133240Y-142470492D01*
X192123199Y-142501621D01*
X192112556Y-142546052D01*
X192105928Y-142592105D01*
X192103432Y-142630145D01*
X192102028Y-142671420D01*
X191881031Y-142671420D01*
X191882507Y-142626335D01*
X191886951Y-142566765D01*
X191896239Y-142508219D01*
X191910196Y-142450945D01*
X191928643Y-142395192D01*
X191951405Y-142341206D01*
X191978306Y-142289239D01*
X192009168Y-142239537D01*
X192043816Y-142192349D01*
X192082073Y-142147923D01*
X192123762Y-142106510D01*
X192168708Y-142068355D01*
X192216733Y-142033709D01*
X192267661Y-142002820D01*
X192321316Y-141975936D01*
X192354200Y-141962046D01*
X192407077Y-141943465D01*
X192461789Y-141928763D01*
X192519205Y-141917716D01*
X192534540Y-141915434D01*
X192550719Y-141913688D01*
X192570782Y-141912339D01*
X192593544Y-141911399D01*
X192617825Y-141910875D01*
X192642441Y-141910777D01*
X192666209Y-141911115D01*
G37*
X192666209Y-141911115D02*
X192687949Y-141911898D01*
X192706476Y-141913135D01*
X192714880Y-141914013D01*
X192776536Y-141924111D01*
X192836482Y-141938858D01*
X192894502Y-141958120D01*
X192950380Y-141981760D01*
X193003901Y-142009642D01*
X193054850Y-142041632D01*
X193103012Y-142077592D01*
X193148171Y-142117388D01*
X193190111Y-142160884D01*
X193228617Y-142207944D01*
X193263475Y-142258433D01*
X193264753Y-142260462D01*
X193270950Y-142270604D01*
X193275873Y-142279176D01*
X193279032Y-142285284D01*
X193279933Y-142288034D01*
X193279927Y-142288046D01*
X193277616Y-142289794D01*
X193271584Y-142293936D01*
X193262376Y-142300116D01*
X193250541Y-142307976D01*
X193236627Y-142317159D01*
X193221181Y-142327308D01*
X193204750Y-142338066D01*
X193187883Y-142349075D01*
X193171127Y-142359979D01*
X193155029Y-142370419D01*
X193140138Y-142380039D01*
X193127000Y-142388482D01*
X193116165Y-142395390D01*
X193108178Y-142400407D01*
X193103588Y-142403174D01*
X193102794Y-142403584D01*
X193099968Y-142402718D01*
X193095905Y-142398095D01*
X193090305Y-142389339D01*
X193087184Y-142383914D01*
X193070089Y-142356428D01*
X193049427Y-142328002D01*
X193026229Y-142299852D01*
X193001528Y-142273197D01*
X192976356Y-142249254D01*
X192964480Y-142239140D01*
X192923846Y-142209172D01*
X192880247Y-142183127D01*
X192834196Y-142161226D01*
X192786208Y-142143690D01*
X192736797Y-142130740D01*
X192696452Y-142123813D01*
X192674946Y-142121768D01*
X192650221Y-142120722D01*
X192623760Y-142120637D01*
X192597045Y-142121480D01*
X192571557Y-142123214D01*
X192548779Y-142125804D01*
X192537826Y-142127603D01*
X192487286Y-142139608D01*
X192438775Y-142156099D01*
X192392534Y-142176857D01*
X192348804Y-142201666D01*
X192307826Y-142230308D01*
X192269841Y-142262566D01*
X192235090Y-142298223D01*
X192203814Y-142337062D01*
X192176252Y-142378864D01*
X192152648Y-142423413D01*
X192133240Y-142470492D01*
X192123199Y-142501621D01*
X192112556Y-142546052D01*
X192105928Y-142592105D01*
X192103432Y-142630145D01*
X192102028Y-142671420D01*
X191881031Y-142671420D01*
X191882507Y-142626335D01*
X191886951Y-142566765D01*
X191896239Y-142508219D01*
X191910196Y-142450945D01*
X191928643Y-142395192D01*
X191951405Y-142341206D01*
X191978306Y-142289239D01*
X192009168Y-142239537D01*
X192043816Y-142192349D01*
X192082073Y-142147923D01*
X192123762Y-142106510D01*
X192168708Y-142068355D01*
X192216733Y-142033709D01*
X192267661Y-142002820D01*
X192321316Y-141975936D01*
X192354200Y-141962046D01*
X192407077Y-141943465D01*
X192461789Y-141928763D01*
X192519205Y-141917716D01*
X192534540Y-141915434D01*
X192550719Y-141913688D01*
X192570782Y-141912339D01*
X192593544Y-141911399D01*
X192617825Y-141910875D01*
X192642441Y-141910777D01*
X192666209Y-141911115D01*
G36*
X191472820Y-143593440D02*
G01*
X190380620Y-143593440D01*
X190380620Y-143369920D01*
X191472820Y-143369920D01*
X191472820Y-143593440D01*
G37*
X191472820Y-143593440D02*
X190380620Y-143593440D01*
X190380620Y-143369920D01*
X191472820Y-143369920D01*
X191472820Y-143593440D01*
G36*
X191472820Y-142127860D02*
G01*
X190599060Y-142127860D01*
X190599060Y-142440280D01*
X190375540Y-142440280D01*
X190375540Y-141906880D01*
X191472820Y-141906880D01*
X191472820Y-142127860D01*
G37*
X191472820Y-142127860D02*
X190599060Y-142127860D01*
X190599060Y-142440280D01*
X190375540Y-142440280D01*
X190375540Y-141906880D01*
X191472820Y-141906880D01*
X191472820Y-142127860D01*
G36*
X197416304Y-141920092D02*
G01*
X197434850Y-141920188D01*
X197548296Y-141920850D01*
X197242148Y-142339183D01*
X197212064Y-142380298D01*
X197182787Y-142420325D01*
X197154458Y-142459069D01*
X197127217Y-142496338D01*
X197101206Y-142531940D01*
X197076566Y-142565680D01*
X197053436Y-142597366D01*
X197031957Y-142626806D01*
X197012271Y-142653806D01*
X196994518Y-142678172D01*
X196978839Y-142699713D01*
X196965374Y-142718236D01*
X196954265Y-142733546D01*
X196945651Y-142745452D01*
X196939674Y-142753760D01*
X196936474Y-142758277D01*
X196935946Y-142759087D01*
X196937407Y-142761269D01*
X196941707Y-142767370D01*
X196948703Y-142777192D01*
X196958256Y-142790541D01*
X196970224Y-142807220D01*
X196984465Y-142827032D01*
X197000838Y-142849783D01*
X197019202Y-142875275D01*
X197039416Y-142903314D01*
X197061337Y-142933701D01*
X197084825Y-142966243D01*
X197109739Y-143000742D01*
X197135938Y-143037003D01*
X197163279Y-143074829D01*
X197191622Y-143114025D01*
X197220825Y-143154395D01*
X197232671Y-143170766D01*
X197262190Y-143211564D01*
X197290913Y-143251274D01*
X197318699Y-143289701D01*
X197345405Y-143326647D01*
X197370889Y-143361916D01*
X197395010Y-143395310D01*
X197417626Y-143426635D01*
X197438595Y-143455692D01*
X197457775Y-143482285D01*
X197475025Y-143506218D01*
X197490202Y-143527293D01*
X197503164Y-143545315D01*
X197513770Y-143560086D01*
X197521878Y-143571411D01*
X197527346Y-143579091D01*
X197530033Y-143582932D01*
X197530296Y-143583347D01*
X197528016Y-143583981D01*
X197520822Y-143584522D01*
X197508878Y-143584969D01*
X197492349Y-143585317D01*
X197471400Y-143585563D01*
X197446196Y-143585703D01*
X197417266Y-143585734D01*
X197303390Y-143585649D01*
X197062090Y-143251780D01*
X197035526Y-143215037D01*
X197009765Y-143179426D01*
X196984965Y-143145163D01*
X196961283Y-143112466D01*
X196938876Y-143081550D01*
X196917902Y-143052632D01*
X196898517Y-143025929D01*
X196880880Y-143001658D01*
X196865147Y-142980034D01*
X196851475Y-142961274D01*
X196840023Y-142945596D01*
X196830948Y-142933215D01*
X196824406Y-142924347D01*
X196820556Y-142919211D01*
X196819520Y-142917933D01*
X196817906Y-142919950D01*
X196813455Y-142925854D01*
X196806324Y-142935427D01*
X196796674Y-142948455D01*
X196784661Y-142964722D01*
X196770447Y-142984010D01*
X196754188Y-143006106D01*
X196736044Y-143030791D01*
X196716173Y-143057851D01*
X196694734Y-143087070D01*
X196671887Y-143118231D01*
X196647789Y-143151119D01*
X196622600Y-143185518D01*
X196596477Y-143221211D01*
X196575680Y-143249644D01*
X196548925Y-143286214D01*
X196522965Y-143321667D01*
X196497961Y-143355786D01*
X196474072Y-143388355D01*
X196451458Y-143419156D01*
X196430279Y-143447973D01*
X196410693Y-143474589D01*
X196392863Y-143498787D01*
X196376946Y-143520350D01*
X196363102Y-143539061D01*
X196351493Y-143554704D01*
X196342276Y-143567061D01*
X196335613Y-143575916D01*
X196331662Y-143581051D01*
X196330570Y-143582335D01*
X196327574Y-143582529D01*
X196320025Y-143582680D01*
X196308450Y-143582789D01*
X196293375Y-143582853D01*
X196275327Y-143582870D01*
X196254833Y-143582839D01*
X196232419Y-143582759D01*
X196215648Y-143582672D01*
X196103267Y-143582010D01*
X196709225Y-142753970D01*
X196751717Y-142695907D01*
X196793457Y-142638878D01*
X196834343Y-142583019D01*
X196874276Y-142528469D01*
X196913154Y-142475363D01*
X196950878Y-142423839D01*
X196987347Y-142374036D01*
X197022459Y-142326089D01*
X197056115Y-142280136D01*
X197088214Y-142236314D01*
X197118655Y-142194761D01*
X197147338Y-142155614D01*
X197174162Y-142119011D01*
X197199027Y-142085087D01*
X197221832Y-142053981D01*
X197242477Y-142025831D01*
X197260860Y-142000772D01*
X197276882Y-141978943D01*
X197290441Y-141960481D01*
X197301437Y-141945522D01*
X197309771Y-141934205D01*
X197315340Y-141926667D01*
X197318045Y-141923044D01*
X197318294Y-141922728D01*
X197320129Y-141921936D01*
X197324193Y-141921292D01*
X197330860Y-141920789D01*
X197340504Y-141920418D01*
X197353497Y-141920171D01*
X197370212Y-141920039D01*
X197391024Y-141920016D01*
X197416304Y-141920092D01*
G37*
X197416304Y-141920092D02*
X197434850Y-141920188D01*
X197548296Y-141920850D01*
X197242148Y-142339183D01*
X197212064Y-142380298D01*
X197182787Y-142420325D01*
X197154458Y-142459069D01*
X197127217Y-142496338D01*
X197101206Y-142531940D01*
X197076566Y-142565680D01*
X197053436Y-142597366D01*
X197031957Y-142626806D01*
X197012271Y-142653806D01*
X196994518Y-142678172D01*
X196978839Y-142699713D01*
X196965374Y-142718236D01*
X196954265Y-142733546D01*
X196945651Y-142745452D01*
X196939674Y-142753760D01*
X196936474Y-142758277D01*
X196935946Y-142759087D01*
X196937407Y-142761269D01*
X196941707Y-142767370D01*
X196948703Y-142777192D01*
X196958256Y-142790541D01*
X196970224Y-142807220D01*
X196984465Y-142827032D01*
X197000838Y-142849783D01*
X197019202Y-142875275D01*
X197039416Y-142903314D01*
X197061337Y-142933701D01*
X197084825Y-142966243D01*
X197109739Y-143000742D01*
X197135938Y-143037003D01*
X197163279Y-143074829D01*
X197191622Y-143114025D01*
X197220825Y-143154395D01*
X197232671Y-143170766D01*
X197262190Y-143211564D01*
X197290913Y-143251274D01*
X197318699Y-143289701D01*
X197345405Y-143326647D01*
X197370889Y-143361916D01*
X197395010Y-143395310D01*
X197417626Y-143426635D01*
X197438595Y-143455692D01*
X197457775Y-143482285D01*
X197475025Y-143506218D01*
X197490202Y-143527293D01*
X197503164Y-143545315D01*
X197513770Y-143560086D01*
X197521878Y-143571411D01*
X197527346Y-143579091D01*
X197530033Y-143582932D01*
X197530296Y-143583347D01*
X197528016Y-143583981D01*
X197520822Y-143584522D01*
X197508878Y-143584969D01*
X197492349Y-143585317D01*
X197471400Y-143585563D01*
X197446196Y-143585703D01*
X197417266Y-143585734D01*
X197303390Y-143585649D01*
X197062090Y-143251780D01*
X197035526Y-143215037D01*
X197009765Y-143179426D01*
X196984965Y-143145163D01*
X196961283Y-143112466D01*
X196938876Y-143081550D01*
X196917902Y-143052632D01*
X196898517Y-143025929D01*
X196880880Y-143001658D01*
X196865147Y-142980034D01*
X196851475Y-142961274D01*
X196840023Y-142945596D01*
X196830948Y-142933215D01*
X196824406Y-142924347D01*
X196820556Y-142919211D01*
X196819520Y-142917933D01*
X196817906Y-142919950D01*
X196813455Y-142925854D01*
X196806324Y-142935427D01*
X196796674Y-142948455D01*
X196784661Y-142964722D01*
X196770447Y-142984010D01*
X196754188Y-143006106D01*
X196736044Y-143030791D01*
X196716173Y-143057851D01*
X196694734Y-143087070D01*
X196671887Y-143118231D01*
X196647789Y-143151119D01*
X196622600Y-143185518D01*
X196596477Y-143221211D01*
X196575680Y-143249644D01*
X196548925Y-143286214D01*
X196522965Y-143321667D01*
X196497961Y-143355786D01*
X196474072Y-143388355D01*
X196451458Y-143419156D01*
X196430279Y-143447973D01*
X196410693Y-143474589D01*
X196392863Y-143498787D01*
X196376946Y-143520350D01*
X196363102Y-143539061D01*
X196351493Y-143554704D01*
X196342276Y-143567061D01*
X196335613Y-143575916D01*
X196331662Y-143581051D01*
X196330570Y-143582335D01*
X196327574Y-143582529D01*
X196320025Y-143582680D01*
X196308450Y-143582789D01*
X196293375Y-143582853D01*
X196275327Y-143582870D01*
X196254833Y-143582839D01*
X196232419Y-143582759D01*
X196215648Y-143582672D01*
X196103267Y-143582010D01*
X196709225Y-142753970D01*
X196751717Y-142695907D01*
X196793457Y-142638878D01*
X196834343Y-142583019D01*
X196874276Y-142528469D01*
X196913154Y-142475363D01*
X196950878Y-142423839D01*
X196987347Y-142374036D01*
X197022459Y-142326089D01*
X197056115Y-142280136D01*
X197088214Y-142236314D01*
X197118655Y-142194761D01*
X197147338Y-142155614D01*
X197174162Y-142119011D01*
X197199027Y-142085087D01*
X197221832Y-142053981D01*
X197242477Y-142025831D01*
X197260860Y-142000772D01*
X197276882Y-141978943D01*
X197290441Y-141960481D01*
X197301437Y-141945522D01*
X197309771Y-141934205D01*
X197315340Y-141926667D01*
X197318045Y-141923044D01*
X197318294Y-141922728D01*
X197320129Y-141921936D01*
X197324193Y-141921292D01*
X197330860Y-141920789D01*
X197340504Y-141920418D01*
X197353497Y-141920171D01*
X197370212Y-141920039D01*
X197391024Y-141920016D01*
X197416304Y-141920092D01*
G36*
X195658740Y-143585820D02*
G01*
X195437760Y-143585820D01*
X195437760Y-141914500D01*
X195658740Y-141914500D01*
X195658740Y-143585820D01*
G37*
X195658740Y-143585820D02*
X195437760Y-143585820D01*
X195437760Y-141914500D01*
X195658740Y-141914500D01*
X195658740Y-143585820D01*
G36*
X194411600Y-143585820D02*
G01*
X194190620Y-143585820D01*
X194190620Y-142303120D01*
X194411600Y-142303120D01*
X194411600Y-143585820D01*
G37*
X194411600Y-143585820D02*
X194190620Y-143585820D01*
X194190620Y-142303120D01*
X194411600Y-142303120D01*
X194411600Y-143585820D01*
G36*
X192098402Y-142875255D02*
G01*
X192103120Y-142924642D01*
X192112714Y-142973391D01*
X192126988Y-143021126D01*
X192145743Y-143067472D01*
X192168784Y-143112055D01*
X192195913Y-143154500D01*
X192226933Y-143194432D01*
X192261648Y-143231476D01*
X192299860Y-143265258D01*
X192305940Y-143270066D01*
X192346038Y-143298193D01*
X192389345Y-143322754D01*
X192435214Y-143343491D01*
X192482999Y-143360147D01*
X192532054Y-143372466D01*
X192581733Y-143380191D01*
X192583061Y-143380331D01*
X192604417Y-143381812D01*
X192629012Y-143382277D01*
X192655170Y-143381784D01*
X192681216Y-143380393D01*
X192705475Y-143378161D01*
X192725040Y-143375369D01*
X192775420Y-143363968D01*
X192824171Y-143348011D01*
X192870973Y-143327722D01*
X192915506Y-143303326D01*
X192957447Y-143275050D01*
X192996477Y-143243119D01*
X193032275Y-143207757D01*
X193064521Y-143169189D01*
X193092893Y-143127642D01*
X193103459Y-143109570D01*
X193107764Y-143101866D01*
X193110977Y-143096162D01*
X193112419Y-143093660D01*
X193112428Y-143093648D01*
X193114718Y-143094589D01*
X193120966Y-143097586D01*
X193130622Y-143102356D01*
X193143134Y-143108617D01*
X193157950Y-143116087D01*
X193174518Y-143124484D01*
X193192288Y-143133526D01*
X193210709Y-143142930D01*
X193229227Y-143152414D01*
X193247292Y-143161697D01*
X193264353Y-143170496D01*
X193279857Y-143178530D01*
X193293254Y-143185515D01*
X193303992Y-143191170D01*
X193311519Y-143195212D01*
X193315284Y-143197360D01*
X193315579Y-143197574D01*
X193316342Y-143199476D01*
X193315650Y-143202864D01*
X193313236Y-143208246D01*
X193308829Y-143216130D01*
X193302161Y-143227022D01*
X193292963Y-143241432D01*
X193289532Y-143246730D01*
X193253745Y-143297247D01*
X193214233Y-143344456D01*
X193171253Y-143388181D01*
X193125061Y-143428245D01*
X193075915Y-143464473D01*
X193024071Y-143496690D01*
X192969786Y-143524719D01*
X192913317Y-143548386D01*
X192854922Y-143567513D01*
X192801386Y-143580608D01*
X192780451Y-143584715D01*
X192761307Y-143587937D01*
X192742786Y-143590387D01*
X192723721Y-143592177D01*
X192702944Y-143593419D01*
X192679286Y-143594226D01*
X192655190Y-143594665D01*
X192636965Y-143594860D01*
X192620071Y-143594960D01*
X192605281Y-143594966D01*
X192593367Y-143594880D01*
X192585103Y-143594704D01*
X192581530Y-143594485D01*
X192575642Y-143593741D01*
X192566310Y-143592630D01*
X192555138Y-143591341D01*
X192549780Y-143590735D01*
X192494003Y-143582047D01*
X192438007Y-143568574D01*
X192382401Y-143550545D01*
X192327794Y-143528188D01*
X192274797Y-143501731D01*
X192224019Y-143471401D01*
X192215770Y-143465955D01*
X192185798Y-143445098D01*
X192159044Y-143424653D01*
X192133942Y-143403317D01*
X192108927Y-143379790D01*
X192093718Y-143364501D01*
X192051520Y-143317656D01*
X192013616Y-143268179D01*
X191980086Y-143216236D01*
X191951014Y-143161994D01*
X191926482Y-143105618D01*
X191906574Y-143047274D01*
X191891371Y-142987129D01*
X191883187Y-142941477D01*
X191881980Y-142932261D01*
X191880577Y-142919810D01*
X191879087Y-142905307D01*
X191877618Y-142889937D01*
X191876281Y-142874885D01*
X191875185Y-142861334D01*
X191874438Y-142850470D01*
X191874150Y-142843505D01*
X191876602Y-142843107D01*
X191883621Y-142842738D01*
X191894692Y-142842405D01*
X191909304Y-142842119D01*
X191926941Y-142841886D01*
X191947091Y-142841717D01*
X191969241Y-142841620D01*
X191985519Y-142841600D01*
X192096899Y-142841600D01*
X192098402Y-142875255D01*
G37*
X192098402Y-142875255D02*
X192103120Y-142924642D01*
X192112714Y-142973391D01*
X192126988Y-143021126D01*
X192145743Y-143067472D01*
X192168784Y-143112055D01*
X192195913Y-143154500D01*
X192226933Y-143194432D01*
X192261648Y-143231476D01*
X192299860Y-143265258D01*
X192305940Y-143270066D01*
X192346038Y-143298193D01*
X192389345Y-143322754D01*
X192435214Y-143343491D01*
X192482999Y-143360147D01*
X192532054Y-143372466D01*
X192581733Y-143380191D01*
X192583061Y-143380331D01*
X192604417Y-143381812D01*
X192629012Y-143382277D01*
X192655170Y-143381784D01*
X192681216Y-143380393D01*
X192705475Y-143378161D01*
X192725040Y-143375369D01*
X192775420Y-143363968D01*
X192824171Y-143348011D01*
X192870973Y-143327722D01*
X192915506Y-143303326D01*
X192957447Y-143275050D01*
X192996477Y-143243119D01*
X193032275Y-143207757D01*
X193064521Y-143169189D01*
X193092893Y-143127642D01*
X193103459Y-143109570D01*
X193107764Y-143101866D01*
X193110977Y-143096162D01*
X193112419Y-143093660D01*
X193112428Y-143093648D01*
X193114718Y-143094589D01*
X193120966Y-143097586D01*
X193130622Y-143102356D01*
X193143134Y-143108617D01*
X193157950Y-143116087D01*
X193174518Y-143124484D01*
X193192288Y-143133526D01*
X193210709Y-143142930D01*
X193229227Y-143152414D01*
X193247292Y-143161697D01*
X193264353Y-143170496D01*
X193279857Y-143178530D01*
X193293254Y-143185515D01*
X193303992Y-143191170D01*
X193311519Y-143195212D01*
X193315284Y-143197360D01*
X193315579Y-143197574D01*
X193316342Y-143199476D01*
X193315650Y-143202864D01*
X193313236Y-143208246D01*
X193308829Y-143216130D01*
X193302161Y-143227022D01*
X193292963Y-143241432D01*
X193289532Y-143246730D01*
X193253745Y-143297247D01*
X193214233Y-143344456D01*
X193171253Y-143388181D01*
X193125061Y-143428245D01*
X193075915Y-143464473D01*
X193024071Y-143496690D01*
X192969786Y-143524719D01*
X192913317Y-143548386D01*
X192854922Y-143567513D01*
X192801386Y-143580608D01*
X192780451Y-143584715D01*
X192761307Y-143587937D01*
X192742786Y-143590387D01*
X192723721Y-143592177D01*
X192702944Y-143593419D01*
X192679286Y-143594226D01*
X192655190Y-143594665D01*
X192636965Y-143594860D01*
X192620071Y-143594960D01*
X192605281Y-143594966D01*
X192593367Y-143594880D01*
X192585103Y-143594704D01*
X192581530Y-143594485D01*
X192575642Y-143593741D01*
X192566310Y-143592630D01*
X192555138Y-143591341D01*
X192549780Y-143590735D01*
X192494003Y-143582047D01*
X192438007Y-143568574D01*
X192382401Y-143550545D01*
X192327794Y-143528188D01*
X192274797Y-143501731D01*
X192224019Y-143471401D01*
X192215770Y-143465955D01*
X192185798Y-143445098D01*
X192159044Y-143424653D01*
X192133942Y-143403317D01*
X192108927Y-143379790D01*
X192093718Y-143364501D01*
X192051520Y-143317656D01*
X192013616Y-143268179D01*
X191980086Y-143216236D01*
X191951014Y-143161994D01*
X191926482Y-143105618D01*
X191906574Y-143047274D01*
X191891371Y-142987129D01*
X191883187Y-142941477D01*
X191881980Y-142932261D01*
X191880577Y-142919810D01*
X191879087Y-142905307D01*
X191877618Y-142889937D01*
X191876281Y-142874885D01*
X191875185Y-142861334D01*
X191874438Y-142850470D01*
X191874150Y-142843505D01*
X191876602Y-142843107D01*
X191883621Y-142842738D01*
X191894692Y-142842405D01*
X191909304Y-142842119D01*
X191926941Y-142841886D01*
X191947091Y-142841717D01*
X191969241Y-142841620D01*
X191985519Y-142841600D01*
X192096899Y-142841600D01*
X192098402Y-142875255D01*
G36*
X194990720Y-142135480D02*
G01*
X193621660Y-142135480D01*
X193621660Y-141914500D01*
X194990720Y-141914500D01*
X194990720Y-142135480D01*
G37*
X194990720Y-142135480D02*
X193621660Y-142135480D01*
X193621660Y-141914500D01*
X194990720Y-141914500D01*
X194990720Y-142135480D01*
G36*
X189928500Y-143593440D02*
G01*
X188780420Y-143593440D01*
X188780420Y-143369920D01*
X189928500Y-143369920D01*
X189928500Y-143593440D01*
G37*
X189928500Y-143593440D02*
X188780420Y-143593440D01*
X188780420Y-143369920D01*
X189928500Y-143369920D01*
X189928500Y-143593440D01*
G04 #@! TD*
D11*
G04 #@! TO.C,H3*
X203200000Y-142240000D03*
G04 #@! TD*
G04 #@! TO.C,H4*
X203200000Y-50800000D03*
G04 #@! TD*
D12*
G04 #@! TO.C,J9*
X203200000Y-134620000D03*
D13*
X203200000Y-129540000D03*
G04 #@! TD*
D12*
G04 #@! TO.C,J10*
X203200000Y-124460000D03*
D13*
X203200000Y-119380000D03*
G04 #@! TD*
D12*
G04 #@! TO.C,J11*
X203200000Y-114300000D03*
D13*
X203200000Y-109220000D03*
G04 #@! TD*
D12*
G04 #@! TO.C,J12*
X203200000Y-104140000D03*
D13*
X203200000Y-99060000D03*
G04 #@! TD*
D12*
G04 #@! TO.C,J2*
X182880000Y-78740000D03*
D13*
X182880000Y-83820000D03*
G04 #@! TD*
D11*
G04 #@! TO.C,H2*
X182880000Y-50800000D03*
G04 #@! TD*
G04 #@! TO.C,H1*
X182880000Y-142240000D03*
G04 #@! TD*
D12*
G04 #@! TO.C,J1*
X182880000Y-68580000D03*
D13*
X182880000Y-73660000D03*
G04 #@! TD*
D12*
G04 #@! TO.C,J4*
X182880000Y-88900000D03*
D13*
X182880000Y-93980000D03*
G04 #@! TD*
D12*
G04 #@! TO.C,J3*
X182880000Y-58420000D03*
D13*
X182880000Y-63500000D03*
G04 #@! TD*
D12*
G04 #@! TO.C,J5*
X182880000Y-99060000D03*
D13*
X182880000Y-104140000D03*
G04 #@! TD*
D12*
G04 #@! TO.C,J6*
X182880000Y-109220000D03*
D13*
X182880000Y-114300000D03*
G04 #@! TD*
D12*
G04 #@! TO.C,J7*
X182880000Y-119380000D03*
D13*
X182880000Y-124460000D03*
G04 #@! TD*
D12*
G04 #@! TO.C,J8*
X182880000Y-129540000D03*
D13*
X182880000Y-134620000D03*
G04 #@! TD*
D12*
G04 #@! TO.C,J13*
X203200000Y-93980000D03*
D13*
X203200000Y-88900000D03*
G04 #@! TD*
D12*
G04 #@! TO.C,J14*
X203200000Y-83820000D03*
D13*
X203200000Y-78740000D03*
G04 #@! TD*
D12*
G04 #@! TO.C,J15*
X203200000Y-73660000D03*
D13*
X203200000Y-68580000D03*
G04 #@! TD*
D12*
G04 #@! TO.C,J16*
X203200000Y-63500000D03*
D13*
X203200000Y-58420000D03*
G04 #@! TD*
D14*
G04 #@! TO.C,REF\u002A\u002A*
X190500000Y-94234000D03*
G04 #@! TD*
G04 #@! TO.C,REF\u002A\u002A*
X190500000Y-98806000D03*
G04 #@! TD*
G04 #@! TO.C,REF\u002A\u002A*
X190500000Y-94996000D03*
G04 #@! TD*
G04 #@! TO.C,REF\u002A\u002A*
X195580000Y-94234000D03*
G04 #@! TD*
G04 #@! TO.C,REF\u002A\u002A*
X195580000Y-96520000D03*
G04 #@! TD*
G04 #@! TO.C,REF\u002A\u002A*
X195580000Y-95758000D03*
G04 #@! TD*
G04 #@! TO.C,REF\u002A\u002A*
X195580000Y-98806000D03*
G04 #@! TD*
G04 #@! TO.C,REF\u002A\u002A*
X195580000Y-94996000D03*
G04 #@! TD*
G04 #@! TO.C,REF\u002A\u002A*
X195580000Y-98044000D03*
G04 #@! TD*
G04 #@! TO.C,REF\u002A\u002A*
X195580000Y-97282000D03*
G04 #@! TD*
G04 #@! TO.C,REF\u002A\u002A*
X190500000Y-96520000D03*
G04 #@! TD*
G04 #@! TO.C,REF\u002A\u002A*
X190500000Y-97282000D03*
G04 #@! TD*
G04 #@! TO.C,REF\u002A\u002A*
X190500000Y-98044000D03*
G04 #@! TD*
G04 #@! TO.C,REF\u002A\u002A*
X190500000Y-95758000D03*
G04 #@! TD*
M02*
