G04 #@! TF.GenerationSoftware,KiCad,Pcbnew,6.0.9-8da3e8f707~116~ubuntu20.04.1*
G04 #@! TF.CreationDate,2023-04-19T17:44:35+00:00*
G04 #@! TF.ProjectId,LEC030201,4c454330-3330-4323-9031-2e6b69636164,rev?*
G04 #@! TF.SameCoordinates,Original*
G04 #@! TF.FileFunction,Copper,L1,Top*
G04 #@! TF.FilePolarity,Positive*
%FSLAX46Y46*%
G04 Gerber Fmt 4.6, Leading zero omitted, Abs format (unit mm)*
G04 Created by KiCad (PCBNEW 6.0.9-8da3e8f707~116~ubuntu20.04.1) date 2023-04-19 17:44:35*
%MOMM*%
%LPD*%
G01*
G04 APERTURE LIST*
G04 #@! TA.AperFunction,EtchedComponent*
%ADD10C,0.010000*%
G04 #@! TD*
G04 #@! TA.AperFunction,ComponentPad*
%ADD11R,3.000000X3.000000*%
G04 #@! TD*
G04 #@! TA.AperFunction,ComponentPad*
%ADD12C,3.000000*%
G04 #@! TD*
G04 #@! TA.AperFunction,Conductor*
%ADD13C,0.254000*%
G04 #@! TD*
G04 APERTURE END LIST*
G04 #@! TO.C,LOGO1*
G36*
X191472820Y-142127860D02*
G01*
X190599060Y-142127860D01*
X190599060Y-142440280D01*
X190375540Y-142440280D01*
X190375540Y-141906880D01*
X191472820Y-141906880D01*
X191472820Y-142127860D01*
G37*
D10*
X191472820Y-142127860D02*
X190599060Y-142127860D01*
X190599060Y-142440280D01*
X190375540Y-142440280D01*
X190375540Y-141906880D01*
X191472820Y-141906880D01*
X191472820Y-142127860D01*
G36*
X195658740Y-143585820D02*
G01*
X195437760Y-143585820D01*
X195437760Y-141914500D01*
X195658740Y-141914500D01*
X195658740Y-143585820D01*
G37*
X195658740Y-143585820D02*
X195437760Y-143585820D01*
X195437760Y-141914500D01*
X195658740Y-141914500D01*
X195658740Y-143585820D01*
G36*
X192666209Y-141911115D02*
G01*
X192687949Y-141911898D01*
X192706476Y-141913135D01*
X192714880Y-141914013D01*
X192776536Y-141924111D01*
X192836482Y-141938858D01*
X192894502Y-141958120D01*
X192950380Y-141981760D01*
X193003901Y-142009642D01*
X193054850Y-142041632D01*
X193103012Y-142077592D01*
X193148171Y-142117388D01*
X193190111Y-142160884D01*
X193228617Y-142207944D01*
X193263475Y-142258433D01*
X193264753Y-142260462D01*
X193270950Y-142270604D01*
X193275873Y-142279176D01*
X193279032Y-142285284D01*
X193279933Y-142288034D01*
X193279927Y-142288046D01*
X193277616Y-142289794D01*
X193271584Y-142293936D01*
X193262376Y-142300116D01*
X193250541Y-142307976D01*
X193236627Y-142317159D01*
X193221181Y-142327308D01*
X193204750Y-142338066D01*
X193187883Y-142349075D01*
X193171127Y-142359979D01*
X193155029Y-142370419D01*
X193140138Y-142380039D01*
X193127000Y-142388482D01*
X193116165Y-142395390D01*
X193108178Y-142400407D01*
X193103588Y-142403174D01*
X193102794Y-142403584D01*
X193099968Y-142402718D01*
X193095905Y-142398095D01*
X193090305Y-142389339D01*
X193087184Y-142383914D01*
X193070089Y-142356428D01*
X193049427Y-142328002D01*
X193026229Y-142299852D01*
X193001528Y-142273197D01*
X192976356Y-142249254D01*
X192964480Y-142239140D01*
X192923846Y-142209172D01*
X192880247Y-142183127D01*
X192834196Y-142161226D01*
X192786208Y-142143690D01*
X192736797Y-142130740D01*
X192696452Y-142123813D01*
X192674946Y-142121768D01*
X192650221Y-142120722D01*
X192623760Y-142120637D01*
X192597045Y-142121480D01*
X192571557Y-142123214D01*
X192548779Y-142125804D01*
X192537826Y-142127603D01*
X192487286Y-142139608D01*
X192438775Y-142156099D01*
X192392534Y-142176857D01*
X192348804Y-142201666D01*
X192307826Y-142230308D01*
X192269841Y-142262566D01*
X192235090Y-142298223D01*
X192203814Y-142337062D01*
X192176252Y-142378864D01*
X192152648Y-142423413D01*
X192133240Y-142470492D01*
X192123199Y-142501621D01*
X192112556Y-142546052D01*
X192105928Y-142592105D01*
X192103432Y-142630145D01*
X192102028Y-142671420D01*
X191881031Y-142671420D01*
X191882507Y-142626335D01*
X191886951Y-142566765D01*
X191896239Y-142508219D01*
X191910196Y-142450945D01*
X191928643Y-142395192D01*
X191951405Y-142341206D01*
X191978306Y-142289239D01*
X192009168Y-142239537D01*
X192043816Y-142192349D01*
X192082073Y-142147923D01*
X192123762Y-142106510D01*
X192168708Y-142068355D01*
X192216733Y-142033709D01*
X192267661Y-142002820D01*
X192321316Y-141975936D01*
X192354200Y-141962046D01*
X192407077Y-141943465D01*
X192461789Y-141928763D01*
X192519205Y-141917716D01*
X192534540Y-141915434D01*
X192550719Y-141913688D01*
X192570782Y-141912339D01*
X192593544Y-141911399D01*
X192617825Y-141910875D01*
X192642441Y-141910777D01*
X192666209Y-141911115D01*
G37*
X192666209Y-141911115D02*
X192687949Y-141911898D01*
X192706476Y-141913135D01*
X192714880Y-141914013D01*
X192776536Y-141924111D01*
X192836482Y-141938858D01*
X192894502Y-141958120D01*
X192950380Y-141981760D01*
X193003901Y-142009642D01*
X193054850Y-142041632D01*
X193103012Y-142077592D01*
X193148171Y-142117388D01*
X193190111Y-142160884D01*
X193228617Y-142207944D01*
X193263475Y-142258433D01*
X193264753Y-142260462D01*
X193270950Y-142270604D01*
X193275873Y-142279176D01*
X193279032Y-142285284D01*
X193279933Y-142288034D01*
X193279927Y-142288046D01*
X193277616Y-142289794D01*
X193271584Y-142293936D01*
X193262376Y-142300116D01*
X193250541Y-142307976D01*
X193236627Y-142317159D01*
X193221181Y-142327308D01*
X193204750Y-142338066D01*
X193187883Y-142349075D01*
X193171127Y-142359979D01*
X193155029Y-142370419D01*
X193140138Y-142380039D01*
X193127000Y-142388482D01*
X193116165Y-142395390D01*
X193108178Y-142400407D01*
X193103588Y-142403174D01*
X193102794Y-142403584D01*
X193099968Y-142402718D01*
X193095905Y-142398095D01*
X193090305Y-142389339D01*
X193087184Y-142383914D01*
X193070089Y-142356428D01*
X193049427Y-142328002D01*
X193026229Y-142299852D01*
X193001528Y-142273197D01*
X192976356Y-142249254D01*
X192964480Y-142239140D01*
X192923846Y-142209172D01*
X192880247Y-142183127D01*
X192834196Y-142161226D01*
X192786208Y-142143690D01*
X192736797Y-142130740D01*
X192696452Y-142123813D01*
X192674946Y-142121768D01*
X192650221Y-142120722D01*
X192623760Y-142120637D01*
X192597045Y-142121480D01*
X192571557Y-142123214D01*
X192548779Y-142125804D01*
X192537826Y-142127603D01*
X192487286Y-142139608D01*
X192438775Y-142156099D01*
X192392534Y-142176857D01*
X192348804Y-142201666D01*
X192307826Y-142230308D01*
X192269841Y-142262566D01*
X192235090Y-142298223D01*
X192203814Y-142337062D01*
X192176252Y-142378864D01*
X192152648Y-142423413D01*
X192133240Y-142470492D01*
X192123199Y-142501621D01*
X192112556Y-142546052D01*
X192105928Y-142592105D01*
X192103432Y-142630145D01*
X192102028Y-142671420D01*
X191881031Y-142671420D01*
X191882507Y-142626335D01*
X191886951Y-142566765D01*
X191896239Y-142508219D01*
X191910196Y-142450945D01*
X191928643Y-142395192D01*
X191951405Y-142341206D01*
X191978306Y-142289239D01*
X192009168Y-142239537D01*
X192043816Y-142192349D01*
X192082073Y-142147923D01*
X192123762Y-142106510D01*
X192168708Y-142068355D01*
X192216733Y-142033709D01*
X192267661Y-142002820D01*
X192321316Y-141975936D01*
X192354200Y-141962046D01*
X192407077Y-141943465D01*
X192461789Y-141928763D01*
X192519205Y-141917716D01*
X192534540Y-141915434D01*
X192550719Y-141913688D01*
X192570782Y-141912339D01*
X192593544Y-141911399D01*
X192617825Y-141910875D01*
X192642441Y-141910777D01*
X192666209Y-141911115D01*
G36*
X189928500Y-143593440D02*
G01*
X188780420Y-143593440D01*
X188780420Y-143369920D01*
X189928500Y-143369920D01*
X189928500Y-143593440D01*
G37*
X189928500Y-143593440D02*
X188780420Y-143593440D01*
X188780420Y-143369920D01*
X189928500Y-143369920D01*
X189928500Y-143593440D01*
G36*
X192098402Y-142875255D02*
G01*
X192103120Y-142924642D01*
X192112714Y-142973391D01*
X192126988Y-143021126D01*
X192145743Y-143067472D01*
X192168784Y-143112055D01*
X192195913Y-143154500D01*
X192226933Y-143194432D01*
X192261648Y-143231476D01*
X192299860Y-143265258D01*
X192305940Y-143270066D01*
X192346038Y-143298193D01*
X192389345Y-143322754D01*
X192435214Y-143343491D01*
X192482999Y-143360147D01*
X192532054Y-143372466D01*
X192581733Y-143380191D01*
X192583061Y-143380331D01*
X192604417Y-143381812D01*
X192629012Y-143382277D01*
X192655170Y-143381784D01*
X192681216Y-143380393D01*
X192705475Y-143378161D01*
X192725040Y-143375369D01*
X192775420Y-143363968D01*
X192824171Y-143348011D01*
X192870973Y-143327722D01*
X192915506Y-143303326D01*
X192957447Y-143275050D01*
X192996477Y-143243119D01*
X193032275Y-143207757D01*
X193064521Y-143169189D01*
X193092893Y-143127642D01*
X193103459Y-143109570D01*
X193107764Y-143101866D01*
X193110977Y-143096162D01*
X193112419Y-143093660D01*
X193112428Y-143093648D01*
X193114718Y-143094589D01*
X193120966Y-143097586D01*
X193130622Y-143102356D01*
X193143134Y-143108617D01*
X193157950Y-143116087D01*
X193174518Y-143124484D01*
X193192288Y-143133526D01*
X193210709Y-143142930D01*
X193229227Y-143152414D01*
X193247292Y-143161697D01*
X193264353Y-143170496D01*
X193279857Y-143178530D01*
X193293254Y-143185515D01*
X193303992Y-143191170D01*
X193311519Y-143195212D01*
X193315284Y-143197360D01*
X193315579Y-143197574D01*
X193316342Y-143199476D01*
X193315650Y-143202864D01*
X193313236Y-143208246D01*
X193308829Y-143216130D01*
X193302161Y-143227022D01*
X193292963Y-143241432D01*
X193289532Y-143246730D01*
X193253745Y-143297247D01*
X193214233Y-143344456D01*
X193171253Y-143388181D01*
X193125061Y-143428245D01*
X193075915Y-143464473D01*
X193024071Y-143496690D01*
X192969786Y-143524719D01*
X192913317Y-143548386D01*
X192854922Y-143567513D01*
X192801386Y-143580608D01*
X192780451Y-143584715D01*
X192761307Y-143587937D01*
X192742786Y-143590387D01*
X192723721Y-143592177D01*
X192702944Y-143593419D01*
X192679286Y-143594226D01*
X192655190Y-143594665D01*
X192636965Y-143594860D01*
X192620071Y-143594960D01*
X192605281Y-143594966D01*
X192593367Y-143594880D01*
X192585103Y-143594704D01*
X192581530Y-143594485D01*
X192575642Y-143593741D01*
X192566310Y-143592630D01*
X192555138Y-143591341D01*
X192549780Y-143590735D01*
X192494003Y-143582047D01*
X192438007Y-143568574D01*
X192382401Y-143550545D01*
X192327794Y-143528188D01*
X192274797Y-143501731D01*
X192224019Y-143471401D01*
X192215770Y-143465955D01*
X192185798Y-143445098D01*
X192159044Y-143424653D01*
X192133942Y-143403317D01*
X192108927Y-143379790D01*
X192093718Y-143364501D01*
X192051520Y-143317656D01*
X192013616Y-143268179D01*
X191980086Y-143216236D01*
X191951014Y-143161994D01*
X191926482Y-143105618D01*
X191906574Y-143047274D01*
X191891371Y-142987129D01*
X191883187Y-142941477D01*
X191881980Y-142932261D01*
X191880577Y-142919810D01*
X191879087Y-142905307D01*
X191877618Y-142889937D01*
X191876281Y-142874885D01*
X191875185Y-142861334D01*
X191874438Y-142850470D01*
X191874150Y-142843505D01*
X191876602Y-142843107D01*
X191883621Y-142842738D01*
X191894692Y-142842405D01*
X191909304Y-142842119D01*
X191926941Y-142841886D01*
X191947091Y-142841717D01*
X191969241Y-142841620D01*
X191985519Y-142841600D01*
X192096899Y-142841600D01*
X192098402Y-142875255D01*
G37*
X192098402Y-142875255D02*
X192103120Y-142924642D01*
X192112714Y-142973391D01*
X192126988Y-143021126D01*
X192145743Y-143067472D01*
X192168784Y-143112055D01*
X192195913Y-143154500D01*
X192226933Y-143194432D01*
X192261648Y-143231476D01*
X192299860Y-143265258D01*
X192305940Y-143270066D01*
X192346038Y-143298193D01*
X192389345Y-143322754D01*
X192435214Y-143343491D01*
X192482999Y-143360147D01*
X192532054Y-143372466D01*
X192581733Y-143380191D01*
X192583061Y-143380331D01*
X192604417Y-143381812D01*
X192629012Y-143382277D01*
X192655170Y-143381784D01*
X192681216Y-143380393D01*
X192705475Y-143378161D01*
X192725040Y-143375369D01*
X192775420Y-143363968D01*
X192824171Y-143348011D01*
X192870973Y-143327722D01*
X192915506Y-143303326D01*
X192957447Y-143275050D01*
X192996477Y-143243119D01*
X193032275Y-143207757D01*
X193064521Y-143169189D01*
X193092893Y-143127642D01*
X193103459Y-143109570D01*
X193107764Y-143101866D01*
X193110977Y-143096162D01*
X193112419Y-143093660D01*
X193112428Y-143093648D01*
X193114718Y-143094589D01*
X193120966Y-143097586D01*
X193130622Y-143102356D01*
X193143134Y-143108617D01*
X193157950Y-143116087D01*
X193174518Y-143124484D01*
X193192288Y-143133526D01*
X193210709Y-143142930D01*
X193229227Y-143152414D01*
X193247292Y-143161697D01*
X193264353Y-143170496D01*
X193279857Y-143178530D01*
X193293254Y-143185515D01*
X193303992Y-143191170D01*
X193311519Y-143195212D01*
X193315284Y-143197360D01*
X193315579Y-143197574D01*
X193316342Y-143199476D01*
X193315650Y-143202864D01*
X193313236Y-143208246D01*
X193308829Y-143216130D01*
X193302161Y-143227022D01*
X193292963Y-143241432D01*
X193289532Y-143246730D01*
X193253745Y-143297247D01*
X193214233Y-143344456D01*
X193171253Y-143388181D01*
X193125061Y-143428245D01*
X193075915Y-143464473D01*
X193024071Y-143496690D01*
X192969786Y-143524719D01*
X192913317Y-143548386D01*
X192854922Y-143567513D01*
X192801386Y-143580608D01*
X192780451Y-143584715D01*
X192761307Y-143587937D01*
X192742786Y-143590387D01*
X192723721Y-143592177D01*
X192702944Y-143593419D01*
X192679286Y-143594226D01*
X192655190Y-143594665D01*
X192636965Y-143594860D01*
X192620071Y-143594960D01*
X192605281Y-143594966D01*
X192593367Y-143594880D01*
X192585103Y-143594704D01*
X192581530Y-143594485D01*
X192575642Y-143593741D01*
X192566310Y-143592630D01*
X192555138Y-143591341D01*
X192549780Y-143590735D01*
X192494003Y-143582047D01*
X192438007Y-143568574D01*
X192382401Y-143550545D01*
X192327794Y-143528188D01*
X192274797Y-143501731D01*
X192224019Y-143471401D01*
X192215770Y-143465955D01*
X192185798Y-143445098D01*
X192159044Y-143424653D01*
X192133942Y-143403317D01*
X192108927Y-143379790D01*
X192093718Y-143364501D01*
X192051520Y-143317656D01*
X192013616Y-143268179D01*
X191980086Y-143216236D01*
X191951014Y-143161994D01*
X191926482Y-143105618D01*
X191906574Y-143047274D01*
X191891371Y-142987129D01*
X191883187Y-142941477D01*
X191881980Y-142932261D01*
X191880577Y-142919810D01*
X191879087Y-142905307D01*
X191877618Y-142889937D01*
X191876281Y-142874885D01*
X191875185Y-142861334D01*
X191874438Y-142850470D01*
X191874150Y-142843505D01*
X191876602Y-142843107D01*
X191883621Y-142842738D01*
X191894692Y-142842405D01*
X191909304Y-142842119D01*
X191926941Y-142841886D01*
X191947091Y-142841717D01*
X191969241Y-142841620D01*
X191985519Y-142841600D01*
X192096899Y-142841600D01*
X192098402Y-142875255D01*
G36*
X194990720Y-142135480D02*
G01*
X193621660Y-142135480D01*
X193621660Y-141914500D01*
X194990720Y-141914500D01*
X194990720Y-142135480D01*
G37*
X194990720Y-142135480D02*
X193621660Y-142135480D01*
X193621660Y-141914500D01*
X194990720Y-141914500D01*
X194990720Y-142135480D01*
G36*
X189001400Y-143192120D02*
G01*
X188780420Y-143192120D01*
X188780420Y-141917040D01*
X189001400Y-141917040D01*
X189001400Y-143192120D01*
G37*
X189001400Y-143192120D02*
X188780420Y-143192120D01*
X188780420Y-141917040D01*
X189001400Y-141917040D01*
X189001400Y-143192120D01*
G36*
X196300968Y-141914500D02*
G01*
X196506269Y-142197044D01*
X196530799Y-142230835D01*
X196554493Y-142263537D01*
X196577180Y-142294909D01*
X196598689Y-142324714D01*
X196618848Y-142352711D01*
X196637487Y-142378663D01*
X196654435Y-142402329D01*
X196669520Y-142423470D01*
X196682571Y-142441848D01*
X196693418Y-142457223D01*
X196701889Y-142469356D01*
X196707814Y-142478009D01*
X196711021Y-142482942D01*
X196711570Y-142484021D01*
X196710129Y-142487001D01*
X196706077Y-142493439D01*
X196699817Y-142502779D01*
X196691755Y-142514461D01*
X196682293Y-142527928D01*
X196671838Y-142542622D01*
X196660793Y-142557984D01*
X196649562Y-142573457D01*
X196638551Y-142588483D01*
X196628162Y-142602504D01*
X196618801Y-142614962D01*
X196610872Y-142625298D01*
X196604779Y-142632955D01*
X196600927Y-142637375D01*
X196599810Y-142638247D01*
X196598071Y-142636223D01*
X196593504Y-142630295D01*
X196586264Y-142620671D01*
X196576502Y-142607561D01*
X196564373Y-142591174D01*
X196550029Y-142571719D01*
X196533625Y-142549405D01*
X196515313Y-142524442D01*
X196495247Y-142497037D01*
X196473579Y-142467402D01*
X196450465Y-142435743D01*
X196426056Y-142402272D01*
X196400506Y-142367196D01*
X196373968Y-142330724D01*
X196346596Y-142293067D01*
X196338190Y-142281493D01*
X196310558Y-142243445D01*
X196283707Y-142206468D01*
X196257789Y-142170772D01*
X196232960Y-142136572D01*
X196209374Y-142104081D01*
X196187186Y-142073511D01*
X196166549Y-142045075D01*
X196147618Y-142018985D01*
X196130548Y-141995456D01*
X196115493Y-141974699D01*
X196102608Y-141956927D01*
X196092047Y-141942354D01*
X196083964Y-141931192D01*
X196078514Y-141923654D01*
X196075851Y-141919952D01*
X196075625Y-141919630D01*
X196074877Y-141918417D01*
X196074715Y-141917412D01*
X196075563Y-141916595D01*
X196077844Y-141915947D01*
X196081981Y-141915449D01*
X196088399Y-141915081D01*
X196097522Y-141914823D01*
X196109772Y-141914655D01*
X196125573Y-141914559D01*
X196145349Y-141914514D01*
X196169525Y-141914500D01*
X196186554Y-141914499D01*
X196300968Y-141914500D01*
G37*
X196300968Y-141914500D02*
X196506269Y-142197044D01*
X196530799Y-142230835D01*
X196554493Y-142263537D01*
X196577180Y-142294909D01*
X196598689Y-142324714D01*
X196618848Y-142352711D01*
X196637487Y-142378663D01*
X196654435Y-142402329D01*
X196669520Y-142423470D01*
X196682571Y-142441848D01*
X196693418Y-142457223D01*
X196701889Y-142469356D01*
X196707814Y-142478009D01*
X196711021Y-142482942D01*
X196711570Y-142484021D01*
X196710129Y-142487001D01*
X196706077Y-142493439D01*
X196699817Y-142502779D01*
X196691755Y-142514461D01*
X196682293Y-142527928D01*
X196671838Y-142542622D01*
X196660793Y-142557984D01*
X196649562Y-142573457D01*
X196638551Y-142588483D01*
X196628162Y-142602504D01*
X196618801Y-142614962D01*
X196610872Y-142625298D01*
X196604779Y-142632955D01*
X196600927Y-142637375D01*
X196599810Y-142638247D01*
X196598071Y-142636223D01*
X196593504Y-142630295D01*
X196586264Y-142620671D01*
X196576502Y-142607561D01*
X196564373Y-142591174D01*
X196550029Y-142571719D01*
X196533625Y-142549405D01*
X196515313Y-142524442D01*
X196495247Y-142497037D01*
X196473579Y-142467402D01*
X196450465Y-142435743D01*
X196426056Y-142402272D01*
X196400506Y-142367196D01*
X196373968Y-142330724D01*
X196346596Y-142293067D01*
X196338190Y-142281493D01*
X196310558Y-142243445D01*
X196283707Y-142206468D01*
X196257789Y-142170772D01*
X196232960Y-142136572D01*
X196209374Y-142104081D01*
X196187186Y-142073511D01*
X196166549Y-142045075D01*
X196147618Y-142018985D01*
X196130548Y-141995456D01*
X196115493Y-141974699D01*
X196102608Y-141956927D01*
X196092047Y-141942354D01*
X196083964Y-141931192D01*
X196078514Y-141923654D01*
X196075851Y-141919952D01*
X196075625Y-141919630D01*
X196074877Y-141918417D01*
X196074715Y-141917412D01*
X196075563Y-141916595D01*
X196077844Y-141915947D01*
X196081981Y-141915449D01*
X196088399Y-141915081D01*
X196097522Y-141914823D01*
X196109772Y-141914655D01*
X196125573Y-141914559D01*
X196145349Y-141914514D01*
X196169525Y-141914500D01*
X196186554Y-141914499D01*
X196300968Y-141914500D01*
G36*
X191472820Y-143593440D02*
G01*
X190380620Y-143593440D01*
X190380620Y-143369920D01*
X191472820Y-143369920D01*
X191472820Y-143593440D01*
G37*
X191472820Y-143593440D02*
X190380620Y-143593440D01*
X190380620Y-143369920D01*
X191472820Y-143369920D01*
X191472820Y-143593440D01*
G36*
X197416304Y-141920092D02*
G01*
X197434850Y-141920188D01*
X197548296Y-141920850D01*
X197242148Y-142339183D01*
X197212064Y-142380298D01*
X197182787Y-142420325D01*
X197154458Y-142459069D01*
X197127217Y-142496338D01*
X197101206Y-142531940D01*
X197076566Y-142565680D01*
X197053436Y-142597366D01*
X197031957Y-142626806D01*
X197012271Y-142653806D01*
X196994518Y-142678172D01*
X196978839Y-142699713D01*
X196965374Y-142718236D01*
X196954265Y-142733546D01*
X196945651Y-142745452D01*
X196939674Y-142753760D01*
X196936474Y-142758277D01*
X196935946Y-142759087D01*
X196937407Y-142761269D01*
X196941707Y-142767370D01*
X196948703Y-142777192D01*
X196958256Y-142790541D01*
X196970224Y-142807220D01*
X196984465Y-142827032D01*
X197000838Y-142849783D01*
X197019202Y-142875275D01*
X197039416Y-142903314D01*
X197061337Y-142933701D01*
X197084825Y-142966243D01*
X197109739Y-143000742D01*
X197135938Y-143037003D01*
X197163279Y-143074829D01*
X197191622Y-143114025D01*
X197220825Y-143154395D01*
X197232671Y-143170766D01*
X197262190Y-143211564D01*
X197290913Y-143251274D01*
X197318699Y-143289701D01*
X197345405Y-143326647D01*
X197370889Y-143361916D01*
X197395010Y-143395310D01*
X197417626Y-143426635D01*
X197438595Y-143455692D01*
X197457775Y-143482285D01*
X197475025Y-143506218D01*
X197490202Y-143527293D01*
X197503164Y-143545315D01*
X197513770Y-143560086D01*
X197521878Y-143571411D01*
X197527346Y-143579091D01*
X197530033Y-143582932D01*
X197530296Y-143583347D01*
X197528016Y-143583981D01*
X197520822Y-143584522D01*
X197508878Y-143584969D01*
X197492349Y-143585317D01*
X197471400Y-143585563D01*
X197446196Y-143585703D01*
X197417266Y-143585734D01*
X197303390Y-143585649D01*
X197062090Y-143251780D01*
X197035526Y-143215037D01*
X197009765Y-143179426D01*
X196984965Y-143145163D01*
X196961283Y-143112466D01*
X196938876Y-143081550D01*
X196917902Y-143052632D01*
X196898517Y-143025929D01*
X196880880Y-143001658D01*
X196865147Y-142980034D01*
X196851475Y-142961274D01*
X196840023Y-142945596D01*
X196830948Y-142933215D01*
X196824406Y-142924347D01*
X196820556Y-142919211D01*
X196819520Y-142917933D01*
X196817906Y-142919950D01*
X196813455Y-142925854D01*
X196806324Y-142935427D01*
X196796674Y-142948455D01*
X196784661Y-142964722D01*
X196770447Y-142984010D01*
X196754188Y-143006106D01*
X196736044Y-143030791D01*
X196716173Y-143057851D01*
X196694734Y-143087070D01*
X196671887Y-143118231D01*
X196647789Y-143151119D01*
X196622600Y-143185518D01*
X196596477Y-143221211D01*
X196575680Y-143249644D01*
X196548925Y-143286214D01*
X196522965Y-143321667D01*
X196497961Y-143355786D01*
X196474072Y-143388355D01*
X196451458Y-143419156D01*
X196430279Y-143447973D01*
X196410693Y-143474589D01*
X196392863Y-143498787D01*
X196376946Y-143520350D01*
X196363102Y-143539061D01*
X196351493Y-143554704D01*
X196342276Y-143567061D01*
X196335613Y-143575916D01*
X196331662Y-143581051D01*
X196330570Y-143582335D01*
X196327574Y-143582529D01*
X196320025Y-143582680D01*
X196308450Y-143582789D01*
X196293375Y-143582853D01*
X196275327Y-143582870D01*
X196254833Y-143582839D01*
X196232419Y-143582759D01*
X196215648Y-143582672D01*
X196103267Y-143582010D01*
X196709225Y-142753970D01*
X196751717Y-142695907D01*
X196793457Y-142638878D01*
X196834343Y-142583019D01*
X196874276Y-142528469D01*
X196913154Y-142475363D01*
X196950878Y-142423839D01*
X196987347Y-142374036D01*
X197022459Y-142326089D01*
X197056115Y-142280136D01*
X197088214Y-142236314D01*
X197118655Y-142194761D01*
X197147338Y-142155614D01*
X197174162Y-142119011D01*
X197199027Y-142085087D01*
X197221832Y-142053981D01*
X197242477Y-142025831D01*
X197260860Y-142000772D01*
X197276882Y-141978943D01*
X197290441Y-141960481D01*
X197301437Y-141945522D01*
X197309771Y-141934205D01*
X197315340Y-141926667D01*
X197318045Y-141923044D01*
X197318294Y-141922728D01*
X197320129Y-141921936D01*
X197324193Y-141921292D01*
X197330860Y-141920789D01*
X197340504Y-141920418D01*
X197353497Y-141920171D01*
X197370212Y-141920039D01*
X197391024Y-141920016D01*
X197416304Y-141920092D01*
G37*
X197416304Y-141920092D02*
X197434850Y-141920188D01*
X197548296Y-141920850D01*
X197242148Y-142339183D01*
X197212064Y-142380298D01*
X197182787Y-142420325D01*
X197154458Y-142459069D01*
X197127217Y-142496338D01*
X197101206Y-142531940D01*
X197076566Y-142565680D01*
X197053436Y-142597366D01*
X197031957Y-142626806D01*
X197012271Y-142653806D01*
X196994518Y-142678172D01*
X196978839Y-142699713D01*
X196965374Y-142718236D01*
X196954265Y-142733546D01*
X196945651Y-142745452D01*
X196939674Y-142753760D01*
X196936474Y-142758277D01*
X196935946Y-142759087D01*
X196937407Y-142761269D01*
X196941707Y-142767370D01*
X196948703Y-142777192D01*
X196958256Y-142790541D01*
X196970224Y-142807220D01*
X196984465Y-142827032D01*
X197000838Y-142849783D01*
X197019202Y-142875275D01*
X197039416Y-142903314D01*
X197061337Y-142933701D01*
X197084825Y-142966243D01*
X197109739Y-143000742D01*
X197135938Y-143037003D01*
X197163279Y-143074829D01*
X197191622Y-143114025D01*
X197220825Y-143154395D01*
X197232671Y-143170766D01*
X197262190Y-143211564D01*
X197290913Y-143251274D01*
X197318699Y-143289701D01*
X197345405Y-143326647D01*
X197370889Y-143361916D01*
X197395010Y-143395310D01*
X197417626Y-143426635D01*
X197438595Y-143455692D01*
X197457775Y-143482285D01*
X197475025Y-143506218D01*
X197490202Y-143527293D01*
X197503164Y-143545315D01*
X197513770Y-143560086D01*
X197521878Y-143571411D01*
X197527346Y-143579091D01*
X197530033Y-143582932D01*
X197530296Y-143583347D01*
X197528016Y-143583981D01*
X197520822Y-143584522D01*
X197508878Y-143584969D01*
X197492349Y-143585317D01*
X197471400Y-143585563D01*
X197446196Y-143585703D01*
X197417266Y-143585734D01*
X197303390Y-143585649D01*
X197062090Y-143251780D01*
X197035526Y-143215037D01*
X197009765Y-143179426D01*
X196984965Y-143145163D01*
X196961283Y-143112466D01*
X196938876Y-143081550D01*
X196917902Y-143052632D01*
X196898517Y-143025929D01*
X196880880Y-143001658D01*
X196865147Y-142980034D01*
X196851475Y-142961274D01*
X196840023Y-142945596D01*
X196830948Y-142933215D01*
X196824406Y-142924347D01*
X196820556Y-142919211D01*
X196819520Y-142917933D01*
X196817906Y-142919950D01*
X196813455Y-142925854D01*
X196806324Y-142935427D01*
X196796674Y-142948455D01*
X196784661Y-142964722D01*
X196770447Y-142984010D01*
X196754188Y-143006106D01*
X196736044Y-143030791D01*
X196716173Y-143057851D01*
X196694734Y-143087070D01*
X196671887Y-143118231D01*
X196647789Y-143151119D01*
X196622600Y-143185518D01*
X196596477Y-143221211D01*
X196575680Y-143249644D01*
X196548925Y-143286214D01*
X196522965Y-143321667D01*
X196497961Y-143355786D01*
X196474072Y-143388355D01*
X196451458Y-143419156D01*
X196430279Y-143447973D01*
X196410693Y-143474589D01*
X196392863Y-143498787D01*
X196376946Y-143520350D01*
X196363102Y-143539061D01*
X196351493Y-143554704D01*
X196342276Y-143567061D01*
X196335613Y-143575916D01*
X196331662Y-143581051D01*
X196330570Y-143582335D01*
X196327574Y-143582529D01*
X196320025Y-143582680D01*
X196308450Y-143582789D01*
X196293375Y-143582853D01*
X196275327Y-143582870D01*
X196254833Y-143582839D01*
X196232419Y-143582759D01*
X196215648Y-143582672D01*
X196103267Y-143582010D01*
X196709225Y-142753970D01*
X196751717Y-142695907D01*
X196793457Y-142638878D01*
X196834343Y-142583019D01*
X196874276Y-142528469D01*
X196913154Y-142475363D01*
X196950878Y-142423839D01*
X196987347Y-142374036D01*
X197022459Y-142326089D01*
X197056115Y-142280136D01*
X197088214Y-142236314D01*
X197118655Y-142194761D01*
X197147338Y-142155614D01*
X197174162Y-142119011D01*
X197199027Y-142085087D01*
X197221832Y-142053981D01*
X197242477Y-142025831D01*
X197260860Y-142000772D01*
X197276882Y-141978943D01*
X197290441Y-141960481D01*
X197301437Y-141945522D01*
X197309771Y-141934205D01*
X197315340Y-141926667D01*
X197318045Y-141923044D01*
X197318294Y-141922728D01*
X197320129Y-141921936D01*
X197324193Y-141921292D01*
X197330860Y-141920789D01*
X197340504Y-141920418D01*
X197353497Y-141920171D01*
X197370212Y-141920039D01*
X197391024Y-141920016D01*
X197416304Y-141920092D01*
G36*
X191358520Y-142849220D02*
G01*
X190599060Y-142849220D01*
X190599060Y-143192120D01*
X190378080Y-143192120D01*
X190378080Y-142625700D01*
X191358520Y-142625700D01*
X191358520Y-142849220D01*
G37*
X191358520Y-142849220D02*
X190599060Y-142849220D01*
X190599060Y-143192120D01*
X190378080Y-143192120D01*
X190378080Y-142625700D01*
X191358520Y-142625700D01*
X191358520Y-142849220D01*
G36*
X194411600Y-143585820D02*
G01*
X194190620Y-143585820D01*
X194190620Y-142303120D01*
X194411600Y-142303120D01*
X194411600Y-143585820D01*
G37*
X194411600Y-143585820D02*
X194190620Y-143585820D01*
X194190620Y-142303120D01*
X194411600Y-142303120D01*
X194411600Y-143585820D01*
G04 #@! TD*
D11*
G04 #@! TO.P,J9,1*
G04 #@! TO.N,/blue*
X203200000Y-134620000D03*
D12*
G04 #@! TO.P,J9,2*
X203200000Y-129540000D03*
G04 #@! TD*
D11*
G04 #@! TO.P,J10,1*
G04 #@! TO.N,/blue*
X203200000Y-124460000D03*
D12*
G04 #@! TO.P,J10,2*
X203200000Y-119380000D03*
G04 #@! TD*
D11*
G04 #@! TO.P,J11,1*
G04 #@! TO.N,/blue*
X203200000Y-114300000D03*
D12*
G04 #@! TO.P,J11,2*
X203200000Y-109220000D03*
G04 #@! TD*
D11*
G04 #@! TO.P,J12,1*
G04 #@! TO.N,/blue*
X203200000Y-104140000D03*
D12*
G04 #@! TO.P,J12,2*
X203200000Y-99060000D03*
G04 #@! TD*
D11*
G04 #@! TO.P,J2,1*
G04 #@! TO.N,/green*
X182880000Y-78740000D03*
D12*
G04 #@! TO.P,J2,2*
X182880000Y-83820000D03*
G04 #@! TD*
D11*
G04 #@! TO.P,J1,1*
G04 #@! TO.N,/green*
X182880000Y-68580000D03*
D12*
G04 #@! TO.P,J1,2*
X182880000Y-73660000D03*
G04 #@! TD*
D11*
G04 #@! TO.P,J4,1*
G04 #@! TO.N,/green*
X182880000Y-88900000D03*
D12*
G04 #@! TO.P,J4,2*
X182880000Y-93980000D03*
G04 #@! TD*
D11*
G04 #@! TO.P,J3,1*
G04 #@! TO.N,/green*
X182880000Y-58420000D03*
D12*
G04 #@! TO.P,J3,2*
X182880000Y-63500000D03*
G04 #@! TD*
D11*
G04 #@! TO.P,J5,1*
G04 #@! TO.N,/green*
X182880000Y-99060000D03*
D12*
G04 #@! TO.P,J5,2*
X182880000Y-104140000D03*
G04 #@! TD*
D11*
G04 #@! TO.P,J6,1*
G04 #@! TO.N,/green*
X182880000Y-109220000D03*
D12*
G04 #@! TO.P,J6,2*
X182880000Y-114300000D03*
G04 #@! TD*
D11*
G04 #@! TO.P,J7,1*
G04 #@! TO.N,/green*
X182880000Y-119380000D03*
D12*
G04 #@! TO.P,J7,2*
X182880000Y-124460000D03*
G04 #@! TD*
D11*
G04 #@! TO.P,J8,1*
G04 #@! TO.N,/green*
X182880000Y-129540000D03*
D12*
G04 #@! TO.P,J8,2*
X182880000Y-134620000D03*
G04 #@! TD*
D11*
G04 #@! TO.P,J13,1*
G04 #@! TO.N,/blue*
X203200000Y-93980000D03*
D12*
G04 #@! TO.P,J13,2*
X203200000Y-88900000D03*
G04 #@! TD*
D11*
G04 #@! TO.P,J14,1*
G04 #@! TO.N,/blue*
X203200000Y-83820000D03*
D12*
G04 #@! TO.P,J14,2*
X203200000Y-78740000D03*
G04 #@! TD*
D11*
G04 #@! TO.P,J15,1*
G04 #@! TO.N,/blue*
X203200000Y-73660000D03*
D12*
G04 #@! TO.P,J15,2*
X203200000Y-68580000D03*
G04 #@! TD*
D11*
G04 #@! TO.P,J16,1*
G04 #@! TO.N,/blue*
X203200000Y-63500000D03*
D12*
G04 #@! TO.P,J16,2*
X203200000Y-58420000D03*
G04 #@! TD*
G04 #@! TO.N,/green*
D13*
X189840001Y-58693382D02*
X189840000Y-92742418D01*
X189840227Y-92744718D01*
X189840264Y-92750079D01*
X189843398Y-92779893D01*
X189843398Y-92809868D01*
X189844361Y-92819033D01*
X189899618Y-93311664D01*
X189912054Y-93370172D01*
X189923674Y-93428857D01*
X189926399Y-93437660D01*
X189956559Y-93532735D01*
X189935845Y-93546576D01*
X189812576Y-93669845D01*
X189715723Y-93814795D01*
X189649010Y-93975855D01*
X189615000Y-94146835D01*
X189615000Y-94321165D01*
X189649010Y-94492145D01*
X189699898Y-94615000D01*
X189649010Y-94737855D01*
X189615000Y-94908835D01*
X189615000Y-95083165D01*
X189649010Y-95254145D01*
X189699898Y-95377000D01*
X189649010Y-95499855D01*
X189615000Y-95670835D01*
X189615000Y-95845165D01*
X189649010Y-96016145D01*
X189699898Y-96139000D01*
X189649010Y-96261855D01*
X189615000Y-96432835D01*
X189615000Y-96607165D01*
X189649010Y-96778145D01*
X189699898Y-96901000D01*
X189649010Y-97023855D01*
X189615000Y-97194835D01*
X189615000Y-97369165D01*
X189649010Y-97540145D01*
X189699898Y-97663000D01*
X189649010Y-97785855D01*
X189615000Y-97956835D01*
X189615000Y-98131165D01*
X189649010Y-98302145D01*
X189699898Y-98425000D01*
X189649010Y-98547855D01*
X189615000Y-98718835D01*
X189615000Y-98893165D01*
X189649010Y-99064145D01*
X189715723Y-99225205D01*
X189812576Y-99370155D01*
X189935845Y-99493424D01*
X189958086Y-99508285D01*
X189916543Y-99645884D01*
X189904923Y-99704572D01*
X189892487Y-99763075D01*
X189891524Y-99772240D01*
X189843150Y-100265595D01*
X189840000Y-100297582D01*
X189840001Y-134346618D01*
X187153620Y-137033000D01*
X179730000Y-137033000D01*
X179730000Y-136111653D01*
X181567952Y-136111653D01*
X181723962Y-136427214D01*
X182098745Y-136618020D01*
X182503551Y-136732044D01*
X182922824Y-136764902D01*
X183340451Y-136715334D01*
X183740383Y-136585243D01*
X184036038Y-136427214D01*
X184192048Y-136111653D01*
X182880000Y-134799605D01*
X181567952Y-136111653D01*
X179730000Y-136111653D01*
X179730000Y-134662824D01*
X180735098Y-134662824D01*
X180784666Y-135080451D01*
X180914757Y-135480383D01*
X181072786Y-135776038D01*
X181388347Y-135932048D01*
X182700395Y-134620000D01*
X183059605Y-134620000D01*
X184371653Y-135932048D01*
X184687214Y-135776038D01*
X184878020Y-135401255D01*
X184992044Y-134996449D01*
X185024902Y-134577176D01*
X184975334Y-134159549D01*
X184845243Y-133759617D01*
X184687214Y-133463962D01*
X184371653Y-133307952D01*
X183059605Y-134620000D01*
X182700395Y-134620000D01*
X181388347Y-133307952D01*
X181072786Y-133463962D01*
X180881980Y-133838745D01*
X180767956Y-134243551D01*
X180735098Y-134662824D01*
X179730000Y-134662824D01*
X179730000Y-133128347D01*
X181567952Y-133128347D01*
X182880000Y-134440395D01*
X184192048Y-133128347D01*
X184036038Y-132812786D01*
X183661255Y-132621980D01*
X183256449Y-132507956D01*
X182837176Y-132475098D01*
X182419549Y-132524666D01*
X182019617Y-132654757D01*
X181723962Y-132812786D01*
X181567952Y-133128347D01*
X179730000Y-133128347D01*
X179730000Y-131040000D01*
X180741928Y-131040000D01*
X180754188Y-131164482D01*
X180790498Y-131284180D01*
X180849463Y-131394494D01*
X180928815Y-131491185D01*
X181025506Y-131570537D01*
X181135820Y-131629502D01*
X181255518Y-131665812D01*
X181380000Y-131678072D01*
X182594250Y-131675000D01*
X182753000Y-131516250D01*
X182753000Y-129667000D01*
X183007000Y-129667000D01*
X183007000Y-131516250D01*
X183165750Y-131675000D01*
X184380000Y-131678072D01*
X184504482Y-131665812D01*
X184624180Y-131629502D01*
X184734494Y-131570537D01*
X184831185Y-131491185D01*
X184910537Y-131394494D01*
X184969502Y-131284180D01*
X185005812Y-131164482D01*
X185018072Y-131040000D01*
X185015000Y-129825750D01*
X184856250Y-129667000D01*
X183007000Y-129667000D01*
X182753000Y-129667000D01*
X180903750Y-129667000D01*
X180745000Y-129825750D01*
X180741928Y-131040000D01*
X179730000Y-131040000D01*
X179730000Y-128040000D01*
X180741928Y-128040000D01*
X180745000Y-129254250D01*
X180903750Y-129413000D01*
X182753000Y-129413000D01*
X182753000Y-127563750D01*
X183007000Y-127563750D01*
X183007000Y-129413000D01*
X184856250Y-129413000D01*
X185015000Y-129254250D01*
X185018072Y-128040000D01*
X185005812Y-127915518D01*
X184969502Y-127795820D01*
X184910537Y-127685506D01*
X184831185Y-127588815D01*
X184734494Y-127509463D01*
X184624180Y-127450498D01*
X184504482Y-127414188D01*
X184380000Y-127401928D01*
X183165750Y-127405000D01*
X183007000Y-127563750D01*
X182753000Y-127563750D01*
X182594250Y-127405000D01*
X181380000Y-127401928D01*
X181255518Y-127414188D01*
X181135820Y-127450498D01*
X181025506Y-127509463D01*
X180928815Y-127588815D01*
X180849463Y-127685506D01*
X180790498Y-127795820D01*
X180754188Y-127915518D01*
X180741928Y-128040000D01*
X179730000Y-128040000D01*
X179730000Y-125951653D01*
X181567952Y-125951653D01*
X181723962Y-126267214D01*
X182098745Y-126458020D01*
X182503551Y-126572044D01*
X182922824Y-126604902D01*
X183340451Y-126555334D01*
X183740383Y-126425243D01*
X184036038Y-126267214D01*
X184192048Y-125951653D01*
X182880000Y-124639605D01*
X181567952Y-125951653D01*
X179730000Y-125951653D01*
X179730000Y-124502824D01*
X180735098Y-124502824D01*
X180784666Y-124920451D01*
X180914757Y-125320383D01*
X181072786Y-125616038D01*
X181388347Y-125772048D01*
X182700395Y-124460000D01*
X183059605Y-124460000D01*
X184371653Y-125772048D01*
X184687214Y-125616038D01*
X184878020Y-125241255D01*
X184992044Y-124836449D01*
X185024902Y-124417176D01*
X184975334Y-123999549D01*
X184845243Y-123599617D01*
X184687214Y-123303962D01*
X184371653Y-123147952D01*
X183059605Y-124460000D01*
X182700395Y-124460000D01*
X181388347Y-123147952D01*
X181072786Y-123303962D01*
X180881980Y-123678745D01*
X180767956Y-124083551D01*
X180735098Y-124502824D01*
X179730000Y-124502824D01*
X179730000Y-122968347D01*
X181567952Y-122968347D01*
X182880000Y-124280395D01*
X184192048Y-122968347D01*
X184036038Y-122652786D01*
X183661255Y-122461980D01*
X183256449Y-122347956D01*
X182837176Y-122315098D01*
X182419549Y-122364666D01*
X182019617Y-122494757D01*
X181723962Y-122652786D01*
X181567952Y-122968347D01*
X179730000Y-122968347D01*
X179730000Y-120880000D01*
X180741928Y-120880000D01*
X180754188Y-121004482D01*
X180790498Y-121124180D01*
X180849463Y-121234494D01*
X180928815Y-121331185D01*
X181025506Y-121410537D01*
X181135820Y-121469502D01*
X181255518Y-121505812D01*
X181380000Y-121518072D01*
X182594250Y-121515000D01*
X182753000Y-121356250D01*
X182753000Y-119507000D01*
X183007000Y-119507000D01*
X183007000Y-121356250D01*
X183165750Y-121515000D01*
X184380000Y-121518072D01*
X184504482Y-121505812D01*
X184624180Y-121469502D01*
X184734494Y-121410537D01*
X184831185Y-121331185D01*
X184910537Y-121234494D01*
X184969502Y-121124180D01*
X185005812Y-121004482D01*
X185018072Y-120880000D01*
X185015000Y-119665750D01*
X184856250Y-119507000D01*
X183007000Y-119507000D01*
X182753000Y-119507000D01*
X180903750Y-119507000D01*
X180745000Y-119665750D01*
X180741928Y-120880000D01*
X179730000Y-120880000D01*
X179730000Y-117880000D01*
X180741928Y-117880000D01*
X180745000Y-119094250D01*
X180903750Y-119253000D01*
X182753000Y-119253000D01*
X182753000Y-117403750D01*
X183007000Y-117403750D01*
X183007000Y-119253000D01*
X184856250Y-119253000D01*
X185015000Y-119094250D01*
X185018072Y-117880000D01*
X185005812Y-117755518D01*
X184969502Y-117635820D01*
X184910537Y-117525506D01*
X184831185Y-117428815D01*
X184734494Y-117349463D01*
X184624180Y-117290498D01*
X184504482Y-117254188D01*
X184380000Y-117241928D01*
X183165750Y-117245000D01*
X183007000Y-117403750D01*
X182753000Y-117403750D01*
X182594250Y-117245000D01*
X181380000Y-117241928D01*
X181255518Y-117254188D01*
X181135820Y-117290498D01*
X181025506Y-117349463D01*
X180928815Y-117428815D01*
X180849463Y-117525506D01*
X180790498Y-117635820D01*
X180754188Y-117755518D01*
X180741928Y-117880000D01*
X179730000Y-117880000D01*
X179730000Y-115791653D01*
X181567952Y-115791653D01*
X181723962Y-116107214D01*
X182098745Y-116298020D01*
X182503551Y-116412044D01*
X182922824Y-116444902D01*
X183340451Y-116395334D01*
X183740383Y-116265243D01*
X184036038Y-116107214D01*
X184192048Y-115791653D01*
X182880000Y-114479605D01*
X181567952Y-115791653D01*
X179730000Y-115791653D01*
X179730000Y-114342824D01*
X180735098Y-114342824D01*
X180784666Y-114760451D01*
X180914757Y-115160383D01*
X181072786Y-115456038D01*
X181388347Y-115612048D01*
X182700395Y-114300000D01*
X183059605Y-114300000D01*
X184371653Y-115612048D01*
X184687214Y-115456038D01*
X184878020Y-115081255D01*
X184992044Y-114676449D01*
X185024902Y-114257176D01*
X184975334Y-113839549D01*
X184845243Y-113439617D01*
X184687214Y-113143962D01*
X184371653Y-112987952D01*
X183059605Y-114300000D01*
X182700395Y-114300000D01*
X181388347Y-112987952D01*
X181072786Y-113143962D01*
X180881980Y-113518745D01*
X180767956Y-113923551D01*
X180735098Y-114342824D01*
X179730000Y-114342824D01*
X179730000Y-112808347D01*
X181567952Y-112808347D01*
X182880000Y-114120395D01*
X184192048Y-112808347D01*
X184036038Y-112492786D01*
X183661255Y-112301980D01*
X183256449Y-112187956D01*
X182837176Y-112155098D01*
X182419549Y-112204666D01*
X182019617Y-112334757D01*
X181723962Y-112492786D01*
X181567952Y-112808347D01*
X179730000Y-112808347D01*
X179730000Y-110720000D01*
X180741928Y-110720000D01*
X180754188Y-110844482D01*
X180790498Y-110964180D01*
X180849463Y-111074494D01*
X180928815Y-111171185D01*
X181025506Y-111250537D01*
X181135820Y-111309502D01*
X181255518Y-111345812D01*
X181380000Y-111358072D01*
X182594250Y-111355000D01*
X182753000Y-111196250D01*
X182753000Y-109347000D01*
X183007000Y-109347000D01*
X183007000Y-111196250D01*
X183165750Y-111355000D01*
X184380000Y-111358072D01*
X184504482Y-111345812D01*
X184624180Y-111309502D01*
X184734494Y-111250537D01*
X184831185Y-111171185D01*
X184910537Y-111074494D01*
X184969502Y-110964180D01*
X185005812Y-110844482D01*
X185018072Y-110720000D01*
X185015000Y-109505750D01*
X184856250Y-109347000D01*
X183007000Y-109347000D01*
X182753000Y-109347000D01*
X180903750Y-109347000D01*
X180745000Y-109505750D01*
X180741928Y-110720000D01*
X179730000Y-110720000D01*
X179730000Y-107720000D01*
X180741928Y-107720000D01*
X180745000Y-108934250D01*
X180903750Y-109093000D01*
X182753000Y-109093000D01*
X182753000Y-107243750D01*
X183007000Y-107243750D01*
X183007000Y-109093000D01*
X184856250Y-109093000D01*
X185015000Y-108934250D01*
X185018072Y-107720000D01*
X185005812Y-107595518D01*
X184969502Y-107475820D01*
X184910537Y-107365506D01*
X184831185Y-107268815D01*
X184734494Y-107189463D01*
X184624180Y-107130498D01*
X184504482Y-107094188D01*
X184380000Y-107081928D01*
X183165750Y-107085000D01*
X183007000Y-107243750D01*
X182753000Y-107243750D01*
X182594250Y-107085000D01*
X181380000Y-107081928D01*
X181255518Y-107094188D01*
X181135820Y-107130498D01*
X181025506Y-107189463D01*
X180928815Y-107268815D01*
X180849463Y-107365506D01*
X180790498Y-107475820D01*
X180754188Y-107595518D01*
X180741928Y-107720000D01*
X179730000Y-107720000D01*
X179730000Y-105631653D01*
X181567952Y-105631653D01*
X181723962Y-105947214D01*
X182098745Y-106138020D01*
X182503551Y-106252044D01*
X182922824Y-106284902D01*
X183340451Y-106235334D01*
X183740383Y-106105243D01*
X184036038Y-105947214D01*
X184192048Y-105631653D01*
X182880000Y-104319605D01*
X181567952Y-105631653D01*
X179730000Y-105631653D01*
X179730000Y-104182824D01*
X180735098Y-104182824D01*
X180784666Y-104600451D01*
X180914757Y-105000383D01*
X181072786Y-105296038D01*
X181388347Y-105452048D01*
X182700395Y-104140000D01*
X183059605Y-104140000D01*
X184371653Y-105452048D01*
X184687214Y-105296038D01*
X184878020Y-104921255D01*
X184992044Y-104516449D01*
X185024902Y-104097176D01*
X184975334Y-103679549D01*
X184845243Y-103279617D01*
X184687214Y-102983962D01*
X184371653Y-102827952D01*
X183059605Y-104140000D01*
X182700395Y-104140000D01*
X181388347Y-102827952D01*
X181072786Y-102983962D01*
X180881980Y-103358745D01*
X180767956Y-103763551D01*
X180735098Y-104182824D01*
X179730000Y-104182824D01*
X179730000Y-102648347D01*
X181567952Y-102648347D01*
X182880000Y-103960395D01*
X184192048Y-102648347D01*
X184036038Y-102332786D01*
X183661255Y-102141980D01*
X183256449Y-102027956D01*
X182837176Y-101995098D01*
X182419549Y-102044666D01*
X182019617Y-102174757D01*
X181723962Y-102332786D01*
X181567952Y-102648347D01*
X179730000Y-102648347D01*
X179730000Y-100560000D01*
X180741928Y-100560000D01*
X180754188Y-100684482D01*
X180790498Y-100804180D01*
X180849463Y-100914494D01*
X180928815Y-101011185D01*
X181025506Y-101090537D01*
X181135820Y-101149502D01*
X181255518Y-101185812D01*
X181380000Y-101198072D01*
X182594250Y-101195000D01*
X182753000Y-101036250D01*
X182753000Y-99187000D01*
X183007000Y-99187000D01*
X183007000Y-101036250D01*
X183165750Y-101195000D01*
X184380000Y-101198072D01*
X184504482Y-101185812D01*
X184624180Y-101149502D01*
X184734494Y-101090537D01*
X184831185Y-101011185D01*
X184910537Y-100914494D01*
X184969502Y-100804180D01*
X185005812Y-100684482D01*
X185018072Y-100560000D01*
X185015000Y-99345750D01*
X184856250Y-99187000D01*
X183007000Y-99187000D01*
X182753000Y-99187000D01*
X180903750Y-99187000D01*
X180745000Y-99345750D01*
X180741928Y-100560000D01*
X179730000Y-100560000D01*
X179730000Y-97560000D01*
X180741928Y-97560000D01*
X180745000Y-98774250D01*
X180903750Y-98933000D01*
X182753000Y-98933000D01*
X182753000Y-97083750D01*
X183007000Y-97083750D01*
X183007000Y-98933000D01*
X184856250Y-98933000D01*
X185015000Y-98774250D01*
X185018072Y-97560000D01*
X185005812Y-97435518D01*
X184969502Y-97315820D01*
X184910537Y-97205506D01*
X184831185Y-97108815D01*
X184734494Y-97029463D01*
X184624180Y-96970498D01*
X184504482Y-96934188D01*
X184380000Y-96921928D01*
X183165750Y-96925000D01*
X183007000Y-97083750D01*
X182753000Y-97083750D01*
X182594250Y-96925000D01*
X181380000Y-96921928D01*
X181255518Y-96934188D01*
X181135820Y-96970498D01*
X181025506Y-97029463D01*
X180928815Y-97108815D01*
X180849463Y-97205506D01*
X180790498Y-97315820D01*
X180754188Y-97435518D01*
X180741928Y-97560000D01*
X179730000Y-97560000D01*
X179730000Y-95471653D01*
X181567952Y-95471653D01*
X181723962Y-95787214D01*
X182098745Y-95978020D01*
X182503551Y-96092044D01*
X182922824Y-96124902D01*
X183340451Y-96075334D01*
X183740383Y-95945243D01*
X184036038Y-95787214D01*
X184192048Y-95471653D01*
X182880000Y-94159605D01*
X181567952Y-95471653D01*
X179730000Y-95471653D01*
X179730000Y-94022824D01*
X180735098Y-94022824D01*
X180784666Y-94440451D01*
X180914757Y-94840383D01*
X181072786Y-95136038D01*
X181388347Y-95292048D01*
X182700395Y-93980000D01*
X183059605Y-93980000D01*
X184371653Y-95292048D01*
X184687214Y-95136038D01*
X184878020Y-94761255D01*
X184992044Y-94356449D01*
X185024902Y-93937176D01*
X184975334Y-93519549D01*
X184845243Y-93119617D01*
X184687214Y-92823962D01*
X184371653Y-92667952D01*
X183059605Y-93980000D01*
X182700395Y-93980000D01*
X181388347Y-92667952D01*
X181072786Y-92823962D01*
X180881980Y-93198745D01*
X180767956Y-93603551D01*
X180735098Y-94022824D01*
X179730000Y-94022824D01*
X179730000Y-92488347D01*
X181567952Y-92488347D01*
X182880000Y-93800395D01*
X184192048Y-92488347D01*
X184036038Y-92172786D01*
X183661255Y-91981980D01*
X183256449Y-91867956D01*
X182837176Y-91835098D01*
X182419549Y-91884666D01*
X182019617Y-92014757D01*
X181723962Y-92172786D01*
X181567952Y-92488347D01*
X179730000Y-92488347D01*
X179730000Y-90400000D01*
X180741928Y-90400000D01*
X180754188Y-90524482D01*
X180790498Y-90644180D01*
X180849463Y-90754494D01*
X180928815Y-90851185D01*
X181025506Y-90930537D01*
X181135820Y-90989502D01*
X181255518Y-91025812D01*
X181380000Y-91038072D01*
X182594250Y-91035000D01*
X182753000Y-90876250D01*
X182753000Y-89027000D01*
X183007000Y-89027000D01*
X183007000Y-90876250D01*
X183165750Y-91035000D01*
X184380000Y-91038072D01*
X184504482Y-91025812D01*
X184624180Y-90989502D01*
X184734494Y-90930537D01*
X184831185Y-90851185D01*
X184910537Y-90754494D01*
X184969502Y-90644180D01*
X185005812Y-90524482D01*
X185018072Y-90400000D01*
X185015000Y-89185750D01*
X184856250Y-89027000D01*
X183007000Y-89027000D01*
X182753000Y-89027000D01*
X180903750Y-89027000D01*
X180745000Y-89185750D01*
X180741928Y-90400000D01*
X179730000Y-90400000D01*
X179730000Y-87400000D01*
X180741928Y-87400000D01*
X180745000Y-88614250D01*
X180903750Y-88773000D01*
X182753000Y-88773000D01*
X182753000Y-86923750D01*
X183007000Y-86923750D01*
X183007000Y-88773000D01*
X184856250Y-88773000D01*
X185015000Y-88614250D01*
X185018072Y-87400000D01*
X185005812Y-87275518D01*
X184969502Y-87155820D01*
X184910537Y-87045506D01*
X184831185Y-86948815D01*
X184734494Y-86869463D01*
X184624180Y-86810498D01*
X184504482Y-86774188D01*
X184380000Y-86761928D01*
X183165750Y-86765000D01*
X183007000Y-86923750D01*
X182753000Y-86923750D01*
X182594250Y-86765000D01*
X181380000Y-86761928D01*
X181255518Y-86774188D01*
X181135820Y-86810498D01*
X181025506Y-86869463D01*
X180928815Y-86948815D01*
X180849463Y-87045506D01*
X180790498Y-87155820D01*
X180754188Y-87275518D01*
X180741928Y-87400000D01*
X179730000Y-87400000D01*
X179730000Y-85311653D01*
X181567952Y-85311653D01*
X181723962Y-85627214D01*
X182098745Y-85818020D01*
X182503551Y-85932044D01*
X182922824Y-85964902D01*
X183340451Y-85915334D01*
X183740383Y-85785243D01*
X184036038Y-85627214D01*
X184192048Y-85311653D01*
X182880000Y-83999605D01*
X181567952Y-85311653D01*
X179730000Y-85311653D01*
X179730000Y-83862824D01*
X180735098Y-83862824D01*
X180784666Y-84280451D01*
X180914757Y-84680383D01*
X181072786Y-84976038D01*
X181388347Y-85132048D01*
X182700395Y-83820000D01*
X183059605Y-83820000D01*
X184371653Y-85132048D01*
X184687214Y-84976038D01*
X184878020Y-84601255D01*
X184992044Y-84196449D01*
X185024902Y-83777176D01*
X184975334Y-83359549D01*
X184845243Y-82959617D01*
X184687214Y-82663962D01*
X184371653Y-82507952D01*
X183059605Y-83820000D01*
X182700395Y-83820000D01*
X181388347Y-82507952D01*
X181072786Y-82663962D01*
X180881980Y-83038745D01*
X180767956Y-83443551D01*
X180735098Y-83862824D01*
X179730000Y-83862824D01*
X179730000Y-82328347D01*
X181567952Y-82328347D01*
X182880000Y-83640395D01*
X184192048Y-82328347D01*
X184036038Y-82012786D01*
X183661255Y-81821980D01*
X183256449Y-81707956D01*
X182837176Y-81675098D01*
X182419549Y-81724666D01*
X182019617Y-81854757D01*
X181723962Y-82012786D01*
X181567952Y-82328347D01*
X179730000Y-82328347D01*
X179730000Y-80240000D01*
X180741928Y-80240000D01*
X180754188Y-80364482D01*
X180790498Y-80484180D01*
X180849463Y-80594494D01*
X180928815Y-80691185D01*
X181025506Y-80770537D01*
X181135820Y-80829502D01*
X181255518Y-80865812D01*
X181380000Y-80878072D01*
X182594250Y-80875000D01*
X182753000Y-80716250D01*
X182753000Y-78867000D01*
X183007000Y-78867000D01*
X183007000Y-80716250D01*
X183165750Y-80875000D01*
X184380000Y-80878072D01*
X184504482Y-80865812D01*
X184624180Y-80829502D01*
X184734494Y-80770537D01*
X184831185Y-80691185D01*
X184910537Y-80594494D01*
X184969502Y-80484180D01*
X185005812Y-80364482D01*
X185018072Y-80240000D01*
X185015000Y-79025750D01*
X184856250Y-78867000D01*
X183007000Y-78867000D01*
X182753000Y-78867000D01*
X180903750Y-78867000D01*
X180745000Y-79025750D01*
X180741928Y-80240000D01*
X179730000Y-80240000D01*
X179730000Y-77240000D01*
X180741928Y-77240000D01*
X180745000Y-78454250D01*
X180903750Y-78613000D01*
X182753000Y-78613000D01*
X182753000Y-76763750D01*
X183007000Y-76763750D01*
X183007000Y-78613000D01*
X184856250Y-78613000D01*
X185015000Y-78454250D01*
X185018072Y-77240000D01*
X185005812Y-77115518D01*
X184969502Y-76995820D01*
X184910537Y-76885506D01*
X184831185Y-76788815D01*
X184734494Y-76709463D01*
X184624180Y-76650498D01*
X184504482Y-76614188D01*
X184380000Y-76601928D01*
X183165750Y-76605000D01*
X183007000Y-76763750D01*
X182753000Y-76763750D01*
X182594250Y-76605000D01*
X181380000Y-76601928D01*
X181255518Y-76614188D01*
X181135820Y-76650498D01*
X181025506Y-76709463D01*
X180928815Y-76788815D01*
X180849463Y-76885506D01*
X180790498Y-76995820D01*
X180754188Y-77115518D01*
X180741928Y-77240000D01*
X179730000Y-77240000D01*
X179730000Y-75151653D01*
X181567952Y-75151653D01*
X181723962Y-75467214D01*
X182098745Y-75658020D01*
X182503551Y-75772044D01*
X182922824Y-75804902D01*
X183340451Y-75755334D01*
X183740383Y-75625243D01*
X184036038Y-75467214D01*
X184192048Y-75151653D01*
X182880000Y-73839605D01*
X181567952Y-75151653D01*
X179730000Y-75151653D01*
X179730000Y-73702824D01*
X180735098Y-73702824D01*
X180784666Y-74120451D01*
X180914757Y-74520383D01*
X181072786Y-74816038D01*
X181388347Y-74972048D01*
X182700395Y-73660000D01*
X183059605Y-73660000D01*
X184371653Y-74972048D01*
X184687214Y-74816038D01*
X184878020Y-74441255D01*
X184992044Y-74036449D01*
X185024902Y-73617176D01*
X184975334Y-73199549D01*
X184845243Y-72799617D01*
X184687214Y-72503962D01*
X184371653Y-72347952D01*
X183059605Y-73660000D01*
X182700395Y-73660000D01*
X181388347Y-72347952D01*
X181072786Y-72503962D01*
X180881980Y-72878745D01*
X180767956Y-73283551D01*
X180735098Y-73702824D01*
X179730000Y-73702824D01*
X179730000Y-72168347D01*
X181567952Y-72168347D01*
X182880000Y-73480395D01*
X184192048Y-72168347D01*
X184036038Y-71852786D01*
X183661255Y-71661980D01*
X183256449Y-71547956D01*
X182837176Y-71515098D01*
X182419549Y-71564666D01*
X182019617Y-71694757D01*
X181723962Y-71852786D01*
X181567952Y-72168347D01*
X179730000Y-72168347D01*
X179730000Y-70080000D01*
X180741928Y-70080000D01*
X180754188Y-70204482D01*
X180790498Y-70324180D01*
X180849463Y-70434494D01*
X180928815Y-70531185D01*
X181025506Y-70610537D01*
X181135820Y-70669502D01*
X181255518Y-70705812D01*
X181380000Y-70718072D01*
X182594250Y-70715000D01*
X182753000Y-70556250D01*
X182753000Y-68707000D01*
X183007000Y-68707000D01*
X183007000Y-70556250D01*
X183165750Y-70715000D01*
X184380000Y-70718072D01*
X184504482Y-70705812D01*
X184624180Y-70669502D01*
X184734494Y-70610537D01*
X184831185Y-70531185D01*
X184910537Y-70434494D01*
X184969502Y-70324180D01*
X185005812Y-70204482D01*
X185018072Y-70080000D01*
X185015000Y-68865750D01*
X184856250Y-68707000D01*
X183007000Y-68707000D01*
X182753000Y-68707000D01*
X180903750Y-68707000D01*
X180745000Y-68865750D01*
X180741928Y-70080000D01*
X179730000Y-70080000D01*
X179730000Y-67080000D01*
X180741928Y-67080000D01*
X180745000Y-68294250D01*
X180903750Y-68453000D01*
X182753000Y-68453000D01*
X182753000Y-66603750D01*
X183007000Y-66603750D01*
X183007000Y-68453000D01*
X184856250Y-68453000D01*
X185015000Y-68294250D01*
X185018072Y-67080000D01*
X185005812Y-66955518D01*
X184969502Y-66835820D01*
X184910537Y-66725506D01*
X184831185Y-66628815D01*
X184734494Y-66549463D01*
X184624180Y-66490498D01*
X184504482Y-66454188D01*
X184380000Y-66441928D01*
X183165750Y-66445000D01*
X183007000Y-66603750D01*
X182753000Y-66603750D01*
X182594250Y-66445000D01*
X181380000Y-66441928D01*
X181255518Y-66454188D01*
X181135820Y-66490498D01*
X181025506Y-66549463D01*
X180928815Y-66628815D01*
X180849463Y-66725506D01*
X180790498Y-66835820D01*
X180754188Y-66955518D01*
X180741928Y-67080000D01*
X179730000Y-67080000D01*
X179730000Y-64991653D01*
X181567952Y-64991653D01*
X181723962Y-65307214D01*
X182098745Y-65498020D01*
X182503551Y-65612044D01*
X182922824Y-65644902D01*
X183340451Y-65595334D01*
X183740383Y-65465243D01*
X184036038Y-65307214D01*
X184192048Y-64991653D01*
X182880000Y-63679605D01*
X181567952Y-64991653D01*
X179730000Y-64991653D01*
X179730000Y-63542824D01*
X180735098Y-63542824D01*
X180784666Y-63960451D01*
X180914757Y-64360383D01*
X181072786Y-64656038D01*
X181388347Y-64812048D01*
X182700395Y-63500000D01*
X183059605Y-63500000D01*
X184371653Y-64812048D01*
X184687214Y-64656038D01*
X184878020Y-64281255D01*
X184992044Y-63876449D01*
X185024902Y-63457176D01*
X184975334Y-63039549D01*
X184845243Y-62639617D01*
X184687214Y-62343962D01*
X184371653Y-62187952D01*
X183059605Y-63500000D01*
X182700395Y-63500000D01*
X181388347Y-62187952D01*
X181072786Y-62343962D01*
X180881980Y-62718745D01*
X180767956Y-63123551D01*
X180735098Y-63542824D01*
X179730000Y-63542824D01*
X179730000Y-62008347D01*
X181567952Y-62008347D01*
X182880000Y-63320395D01*
X184192048Y-62008347D01*
X184036038Y-61692786D01*
X183661255Y-61501980D01*
X183256449Y-61387956D01*
X182837176Y-61355098D01*
X182419549Y-61404666D01*
X182019617Y-61534757D01*
X181723962Y-61692786D01*
X181567952Y-62008347D01*
X179730000Y-62008347D01*
X179730000Y-59920000D01*
X180741928Y-59920000D01*
X180754188Y-60044482D01*
X180790498Y-60164180D01*
X180849463Y-60274494D01*
X180928815Y-60371185D01*
X181025506Y-60450537D01*
X181135820Y-60509502D01*
X181255518Y-60545812D01*
X181380000Y-60558072D01*
X182594250Y-60555000D01*
X182753000Y-60396250D01*
X182753000Y-58547000D01*
X183007000Y-58547000D01*
X183007000Y-60396250D01*
X183165750Y-60555000D01*
X184380000Y-60558072D01*
X184504482Y-60545812D01*
X184624180Y-60509502D01*
X184734494Y-60450537D01*
X184831185Y-60371185D01*
X184910537Y-60274494D01*
X184969502Y-60164180D01*
X185005812Y-60044482D01*
X185018072Y-59920000D01*
X185015000Y-58705750D01*
X184856250Y-58547000D01*
X183007000Y-58547000D01*
X182753000Y-58547000D01*
X180903750Y-58547000D01*
X180745000Y-58705750D01*
X180741928Y-59920000D01*
X179730000Y-59920000D01*
X179730000Y-56920000D01*
X180741928Y-56920000D01*
X180745000Y-58134250D01*
X180903750Y-58293000D01*
X182753000Y-58293000D01*
X182753000Y-56443750D01*
X183007000Y-56443750D01*
X183007000Y-58293000D01*
X184856250Y-58293000D01*
X185015000Y-58134250D01*
X185018072Y-56920000D01*
X185005812Y-56795518D01*
X184969502Y-56675820D01*
X184910537Y-56565506D01*
X184831185Y-56468815D01*
X184734494Y-56389463D01*
X184624180Y-56330498D01*
X184504482Y-56294188D01*
X184380000Y-56281928D01*
X183165750Y-56285000D01*
X183007000Y-56443750D01*
X182753000Y-56443750D01*
X182594250Y-56285000D01*
X181380000Y-56281928D01*
X181255518Y-56294188D01*
X181135820Y-56330498D01*
X181025506Y-56389463D01*
X180928815Y-56468815D01*
X180849463Y-56565506D01*
X180790498Y-56675820D01*
X180754188Y-56795518D01*
X180741928Y-56920000D01*
X179730000Y-56920000D01*
X179730000Y-56007000D01*
X187153620Y-56007000D01*
X189840001Y-58693382D01*
X189840001Y-58693382D02*
X187153620Y-56007000D01*
G04 #@! TA.AperFunction,Conductor*
G36*
X189840001Y-58693382D02*
G01*
X189840000Y-92742418D01*
X189840227Y-92744718D01*
X189840264Y-92750079D01*
X189843398Y-92779893D01*
X189843398Y-92809868D01*
X189844361Y-92819033D01*
X189899618Y-93311664D01*
X189912054Y-93370172D01*
X189923674Y-93428857D01*
X189926399Y-93437660D01*
X189956559Y-93532735D01*
X189935845Y-93546576D01*
X189812576Y-93669845D01*
X189715723Y-93814795D01*
X189649010Y-93975855D01*
X189615000Y-94146835D01*
X189615000Y-94321165D01*
X189649010Y-94492145D01*
X189699898Y-94615000D01*
X189649010Y-94737855D01*
X189615000Y-94908835D01*
X189615000Y-95083165D01*
X189649010Y-95254145D01*
X189699898Y-95377000D01*
X189649010Y-95499855D01*
X189615000Y-95670835D01*
X189615000Y-95845165D01*
X189649010Y-96016145D01*
X189699898Y-96139000D01*
X189649010Y-96261855D01*
X189615000Y-96432835D01*
X189615000Y-96607165D01*
X189649010Y-96778145D01*
X189699898Y-96901000D01*
X189649010Y-97023855D01*
X189615000Y-97194835D01*
X189615000Y-97369165D01*
X189649010Y-97540145D01*
X189699898Y-97663000D01*
X189649010Y-97785855D01*
X189615000Y-97956835D01*
X189615000Y-98131165D01*
X189649010Y-98302145D01*
X189699898Y-98425000D01*
X189649010Y-98547855D01*
X189615000Y-98718835D01*
X189615000Y-98893165D01*
X189649010Y-99064145D01*
X189715723Y-99225205D01*
X189812576Y-99370155D01*
X189935845Y-99493424D01*
X189958086Y-99508285D01*
X189916543Y-99645884D01*
X189904923Y-99704572D01*
X189892487Y-99763075D01*
X189891524Y-99772240D01*
X189843150Y-100265595D01*
X189840000Y-100297582D01*
X189840001Y-134346618D01*
X187153620Y-137033000D01*
X179730000Y-137033000D01*
X179730000Y-136111653D01*
X181567952Y-136111653D01*
X181723962Y-136427214D01*
X182098745Y-136618020D01*
X182503551Y-136732044D01*
X182922824Y-136764902D01*
X183340451Y-136715334D01*
X183740383Y-136585243D01*
X184036038Y-136427214D01*
X184192048Y-136111653D01*
X182880000Y-134799605D01*
X181567952Y-136111653D01*
X179730000Y-136111653D01*
X179730000Y-134662824D01*
X180735098Y-134662824D01*
X180784666Y-135080451D01*
X180914757Y-135480383D01*
X181072786Y-135776038D01*
X181388347Y-135932048D01*
X182700395Y-134620000D01*
X183059605Y-134620000D01*
X184371653Y-135932048D01*
X184687214Y-135776038D01*
X184878020Y-135401255D01*
X184992044Y-134996449D01*
X185024902Y-134577176D01*
X184975334Y-134159549D01*
X184845243Y-133759617D01*
X184687214Y-133463962D01*
X184371653Y-133307952D01*
X183059605Y-134620000D01*
X182700395Y-134620000D01*
X181388347Y-133307952D01*
X181072786Y-133463962D01*
X180881980Y-133838745D01*
X180767956Y-134243551D01*
X180735098Y-134662824D01*
X179730000Y-134662824D01*
X179730000Y-133128347D01*
X181567952Y-133128347D01*
X182880000Y-134440395D01*
X184192048Y-133128347D01*
X184036038Y-132812786D01*
X183661255Y-132621980D01*
X183256449Y-132507956D01*
X182837176Y-132475098D01*
X182419549Y-132524666D01*
X182019617Y-132654757D01*
X181723962Y-132812786D01*
X181567952Y-133128347D01*
X179730000Y-133128347D01*
X179730000Y-131040000D01*
X180741928Y-131040000D01*
X180754188Y-131164482D01*
X180790498Y-131284180D01*
X180849463Y-131394494D01*
X180928815Y-131491185D01*
X181025506Y-131570537D01*
X181135820Y-131629502D01*
X181255518Y-131665812D01*
X181380000Y-131678072D01*
X182594250Y-131675000D01*
X182753000Y-131516250D01*
X182753000Y-129667000D01*
X183007000Y-129667000D01*
X183007000Y-131516250D01*
X183165750Y-131675000D01*
X184380000Y-131678072D01*
X184504482Y-131665812D01*
X184624180Y-131629502D01*
X184734494Y-131570537D01*
X184831185Y-131491185D01*
X184910537Y-131394494D01*
X184969502Y-131284180D01*
X185005812Y-131164482D01*
X185018072Y-131040000D01*
X185015000Y-129825750D01*
X184856250Y-129667000D01*
X183007000Y-129667000D01*
X182753000Y-129667000D01*
X180903750Y-129667000D01*
X180745000Y-129825750D01*
X180741928Y-131040000D01*
X179730000Y-131040000D01*
X179730000Y-128040000D01*
X180741928Y-128040000D01*
X180745000Y-129254250D01*
X180903750Y-129413000D01*
X182753000Y-129413000D01*
X182753000Y-127563750D01*
X183007000Y-127563750D01*
X183007000Y-129413000D01*
X184856250Y-129413000D01*
X185015000Y-129254250D01*
X185018072Y-128040000D01*
X185005812Y-127915518D01*
X184969502Y-127795820D01*
X184910537Y-127685506D01*
X184831185Y-127588815D01*
X184734494Y-127509463D01*
X184624180Y-127450498D01*
X184504482Y-127414188D01*
X184380000Y-127401928D01*
X183165750Y-127405000D01*
X183007000Y-127563750D01*
X182753000Y-127563750D01*
X182594250Y-127405000D01*
X181380000Y-127401928D01*
X181255518Y-127414188D01*
X181135820Y-127450498D01*
X181025506Y-127509463D01*
X180928815Y-127588815D01*
X180849463Y-127685506D01*
X180790498Y-127795820D01*
X180754188Y-127915518D01*
X180741928Y-128040000D01*
X179730000Y-128040000D01*
X179730000Y-125951653D01*
X181567952Y-125951653D01*
X181723962Y-126267214D01*
X182098745Y-126458020D01*
X182503551Y-126572044D01*
X182922824Y-126604902D01*
X183340451Y-126555334D01*
X183740383Y-126425243D01*
X184036038Y-126267214D01*
X184192048Y-125951653D01*
X182880000Y-124639605D01*
X181567952Y-125951653D01*
X179730000Y-125951653D01*
X179730000Y-124502824D01*
X180735098Y-124502824D01*
X180784666Y-124920451D01*
X180914757Y-125320383D01*
X181072786Y-125616038D01*
X181388347Y-125772048D01*
X182700395Y-124460000D01*
X183059605Y-124460000D01*
X184371653Y-125772048D01*
X184687214Y-125616038D01*
X184878020Y-125241255D01*
X184992044Y-124836449D01*
X185024902Y-124417176D01*
X184975334Y-123999549D01*
X184845243Y-123599617D01*
X184687214Y-123303962D01*
X184371653Y-123147952D01*
X183059605Y-124460000D01*
X182700395Y-124460000D01*
X181388347Y-123147952D01*
X181072786Y-123303962D01*
X180881980Y-123678745D01*
X180767956Y-124083551D01*
X180735098Y-124502824D01*
X179730000Y-124502824D01*
X179730000Y-122968347D01*
X181567952Y-122968347D01*
X182880000Y-124280395D01*
X184192048Y-122968347D01*
X184036038Y-122652786D01*
X183661255Y-122461980D01*
X183256449Y-122347956D01*
X182837176Y-122315098D01*
X182419549Y-122364666D01*
X182019617Y-122494757D01*
X181723962Y-122652786D01*
X181567952Y-122968347D01*
X179730000Y-122968347D01*
X179730000Y-120880000D01*
X180741928Y-120880000D01*
X180754188Y-121004482D01*
X180790498Y-121124180D01*
X180849463Y-121234494D01*
X180928815Y-121331185D01*
X181025506Y-121410537D01*
X181135820Y-121469502D01*
X181255518Y-121505812D01*
X181380000Y-121518072D01*
X182594250Y-121515000D01*
X182753000Y-121356250D01*
X182753000Y-119507000D01*
X183007000Y-119507000D01*
X183007000Y-121356250D01*
X183165750Y-121515000D01*
X184380000Y-121518072D01*
X184504482Y-121505812D01*
X184624180Y-121469502D01*
X184734494Y-121410537D01*
X184831185Y-121331185D01*
X184910537Y-121234494D01*
X184969502Y-121124180D01*
X185005812Y-121004482D01*
X185018072Y-120880000D01*
X185015000Y-119665750D01*
X184856250Y-119507000D01*
X183007000Y-119507000D01*
X182753000Y-119507000D01*
X180903750Y-119507000D01*
X180745000Y-119665750D01*
X180741928Y-120880000D01*
X179730000Y-120880000D01*
X179730000Y-117880000D01*
X180741928Y-117880000D01*
X180745000Y-119094250D01*
X180903750Y-119253000D01*
X182753000Y-119253000D01*
X182753000Y-117403750D01*
X183007000Y-117403750D01*
X183007000Y-119253000D01*
X184856250Y-119253000D01*
X185015000Y-119094250D01*
X185018072Y-117880000D01*
X185005812Y-117755518D01*
X184969502Y-117635820D01*
X184910537Y-117525506D01*
X184831185Y-117428815D01*
X184734494Y-117349463D01*
X184624180Y-117290498D01*
X184504482Y-117254188D01*
X184380000Y-117241928D01*
X183165750Y-117245000D01*
X183007000Y-117403750D01*
X182753000Y-117403750D01*
X182594250Y-117245000D01*
X181380000Y-117241928D01*
X181255518Y-117254188D01*
X181135820Y-117290498D01*
X181025506Y-117349463D01*
X180928815Y-117428815D01*
X180849463Y-117525506D01*
X180790498Y-117635820D01*
X180754188Y-117755518D01*
X180741928Y-117880000D01*
X179730000Y-117880000D01*
X179730000Y-115791653D01*
X181567952Y-115791653D01*
X181723962Y-116107214D01*
X182098745Y-116298020D01*
X182503551Y-116412044D01*
X182922824Y-116444902D01*
X183340451Y-116395334D01*
X183740383Y-116265243D01*
X184036038Y-116107214D01*
X184192048Y-115791653D01*
X182880000Y-114479605D01*
X181567952Y-115791653D01*
X179730000Y-115791653D01*
X179730000Y-114342824D01*
X180735098Y-114342824D01*
X180784666Y-114760451D01*
X180914757Y-115160383D01*
X181072786Y-115456038D01*
X181388347Y-115612048D01*
X182700395Y-114300000D01*
X183059605Y-114300000D01*
X184371653Y-115612048D01*
X184687214Y-115456038D01*
X184878020Y-115081255D01*
X184992044Y-114676449D01*
X185024902Y-114257176D01*
X184975334Y-113839549D01*
X184845243Y-113439617D01*
X184687214Y-113143962D01*
X184371653Y-112987952D01*
X183059605Y-114300000D01*
X182700395Y-114300000D01*
X181388347Y-112987952D01*
X181072786Y-113143962D01*
X180881980Y-113518745D01*
X180767956Y-113923551D01*
X180735098Y-114342824D01*
X179730000Y-114342824D01*
X179730000Y-112808347D01*
X181567952Y-112808347D01*
X182880000Y-114120395D01*
X184192048Y-112808347D01*
X184036038Y-112492786D01*
X183661255Y-112301980D01*
X183256449Y-112187956D01*
X182837176Y-112155098D01*
X182419549Y-112204666D01*
X182019617Y-112334757D01*
X181723962Y-112492786D01*
X181567952Y-112808347D01*
X179730000Y-112808347D01*
X179730000Y-110720000D01*
X180741928Y-110720000D01*
X180754188Y-110844482D01*
X180790498Y-110964180D01*
X180849463Y-111074494D01*
X180928815Y-111171185D01*
X181025506Y-111250537D01*
X181135820Y-111309502D01*
X181255518Y-111345812D01*
X181380000Y-111358072D01*
X182594250Y-111355000D01*
X182753000Y-111196250D01*
X182753000Y-109347000D01*
X183007000Y-109347000D01*
X183007000Y-111196250D01*
X183165750Y-111355000D01*
X184380000Y-111358072D01*
X184504482Y-111345812D01*
X184624180Y-111309502D01*
X184734494Y-111250537D01*
X184831185Y-111171185D01*
X184910537Y-111074494D01*
X184969502Y-110964180D01*
X185005812Y-110844482D01*
X185018072Y-110720000D01*
X185015000Y-109505750D01*
X184856250Y-109347000D01*
X183007000Y-109347000D01*
X182753000Y-109347000D01*
X180903750Y-109347000D01*
X180745000Y-109505750D01*
X180741928Y-110720000D01*
X179730000Y-110720000D01*
X179730000Y-107720000D01*
X180741928Y-107720000D01*
X180745000Y-108934250D01*
X180903750Y-109093000D01*
X182753000Y-109093000D01*
X182753000Y-107243750D01*
X183007000Y-107243750D01*
X183007000Y-109093000D01*
X184856250Y-109093000D01*
X185015000Y-108934250D01*
X185018072Y-107720000D01*
X185005812Y-107595518D01*
X184969502Y-107475820D01*
X184910537Y-107365506D01*
X184831185Y-107268815D01*
X184734494Y-107189463D01*
X184624180Y-107130498D01*
X184504482Y-107094188D01*
X184380000Y-107081928D01*
X183165750Y-107085000D01*
X183007000Y-107243750D01*
X182753000Y-107243750D01*
X182594250Y-107085000D01*
X181380000Y-107081928D01*
X181255518Y-107094188D01*
X181135820Y-107130498D01*
X181025506Y-107189463D01*
X180928815Y-107268815D01*
X180849463Y-107365506D01*
X180790498Y-107475820D01*
X180754188Y-107595518D01*
X180741928Y-107720000D01*
X179730000Y-107720000D01*
X179730000Y-105631653D01*
X181567952Y-105631653D01*
X181723962Y-105947214D01*
X182098745Y-106138020D01*
X182503551Y-106252044D01*
X182922824Y-106284902D01*
X183340451Y-106235334D01*
X183740383Y-106105243D01*
X184036038Y-105947214D01*
X184192048Y-105631653D01*
X182880000Y-104319605D01*
X181567952Y-105631653D01*
X179730000Y-105631653D01*
X179730000Y-104182824D01*
X180735098Y-104182824D01*
X180784666Y-104600451D01*
X180914757Y-105000383D01*
X181072786Y-105296038D01*
X181388347Y-105452048D01*
X182700395Y-104140000D01*
X183059605Y-104140000D01*
X184371653Y-105452048D01*
X184687214Y-105296038D01*
X184878020Y-104921255D01*
X184992044Y-104516449D01*
X185024902Y-104097176D01*
X184975334Y-103679549D01*
X184845243Y-103279617D01*
X184687214Y-102983962D01*
X184371653Y-102827952D01*
X183059605Y-104140000D01*
X182700395Y-104140000D01*
X181388347Y-102827952D01*
X181072786Y-102983962D01*
X180881980Y-103358745D01*
X180767956Y-103763551D01*
X180735098Y-104182824D01*
X179730000Y-104182824D01*
X179730000Y-102648347D01*
X181567952Y-102648347D01*
X182880000Y-103960395D01*
X184192048Y-102648347D01*
X184036038Y-102332786D01*
X183661255Y-102141980D01*
X183256449Y-102027956D01*
X182837176Y-101995098D01*
X182419549Y-102044666D01*
X182019617Y-102174757D01*
X181723962Y-102332786D01*
X181567952Y-102648347D01*
X179730000Y-102648347D01*
X179730000Y-100560000D01*
X180741928Y-100560000D01*
X180754188Y-100684482D01*
X180790498Y-100804180D01*
X180849463Y-100914494D01*
X180928815Y-101011185D01*
X181025506Y-101090537D01*
X181135820Y-101149502D01*
X181255518Y-101185812D01*
X181380000Y-101198072D01*
X182594250Y-101195000D01*
X182753000Y-101036250D01*
X182753000Y-99187000D01*
X183007000Y-99187000D01*
X183007000Y-101036250D01*
X183165750Y-101195000D01*
X184380000Y-101198072D01*
X184504482Y-101185812D01*
X184624180Y-101149502D01*
X184734494Y-101090537D01*
X184831185Y-101011185D01*
X184910537Y-100914494D01*
X184969502Y-100804180D01*
X185005812Y-100684482D01*
X185018072Y-100560000D01*
X185015000Y-99345750D01*
X184856250Y-99187000D01*
X183007000Y-99187000D01*
X182753000Y-99187000D01*
X180903750Y-99187000D01*
X180745000Y-99345750D01*
X180741928Y-100560000D01*
X179730000Y-100560000D01*
X179730000Y-97560000D01*
X180741928Y-97560000D01*
X180745000Y-98774250D01*
X180903750Y-98933000D01*
X182753000Y-98933000D01*
X182753000Y-97083750D01*
X183007000Y-97083750D01*
X183007000Y-98933000D01*
X184856250Y-98933000D01*
X185015000Y-98774250D01*
X185018072Y-97560000D01*
X185005812Y-97435518D01*
X184969502Y-97315820D01*
X184910537Y-97205506D01*
X184831185Y-97108815D01*
X184734494Y-97029463D01*
X184624180Y-96970498D01*
X184504482Y-96934188D01*
X184380000Y-96921928D01*
X183165750Y-96925000D01*
X183007000Y-97083750D01*
X182753000Y-97083750D01*
X182594250Y-96925000D01*
X181380000Y-96921928D01*
X181255518Y-96934188D01*
X181135820Y-96970498D01*
X181025506Y-97029463D01*
X180928815Y-97108815D01*
X180849463Y-97205506D01*
X180790498Y-97315820D01*
X180754188Y-97435518D01*
X180741928Y-97560000D01*
X179730000Y-97560000D01*
X179730000Y-95471653D01*
X181567952Y-95471653D01*
X181723962Y-95787214D01*
X182098745Y-95978020D01*
X182503551Y-96092044D01*
X182922824Y-96124902D01*
X183340451Y-96075334D01*
X183740383Y-95945243D01*
X184036038Y-95787214D01*
X184192048Y-95471653D01*
X182880000Y-94159605D01*
X181567952Y-95471653D01*
X179730000Y-95471653D01*
X179730000Y-94022824D01*
X180735098Y-94022824D01*
X180784666Y-94440451D01*
X180914757Y-94840383D01*
X181072786Y-95136038D01*
X181388347Y-95292048D01*
X182700395Y-93980000D01*
X183059605Y-93980000D01*
X184371653Y-95292048D01*
X184687214Y-95136038D01*
X184878020Y-94761255D01*
X184992044Y-94356449D01*
X185024902Y-93937176D01*
X184975334Y-93519549D01*
X184845243Y-93119617D01*
X184687214Y-92823962D01*
X184371653Y-92667952D01*
X183059605Y-93980000D01*
X182700395Y-93980000D01*
X181388347Y-92667952D01*
X181072786Y-92823962D01*
X180881980Y-93198745D01*
X180767956Y-93603551D01*
X180735098Y-94022824D01*
X179730000Y-94022824D01*
X179730000Y-92488347D01*
X181567952Y-92488347D01*
X182880000Y-93800395D01*
X184192048Y-92488347D01*
X184036038Y-92172786D01*
X183661255Y-91981980D01*
X183256449Y-91867956D01*
X182837176Y-91835098D01*
X182419549Y-91884666D01*
X182019617Y-92014757D01*
X181723962Y-92172786D01*
X181567952Y-92488347D01*
X179730000Y-92488347D01*
X179730000Y-90400000D01*
X180741928Y-90400000D01*
X180754188Y-90524482D01*
X180790498Y-90644180D01*
X180849463Y-90754494D01*
X180928815Y-90851185D01*
X181025506Y-90930537D01*
X181135820Y-90989502D01*
X181255518Y-91025812D01*
X181380000Y-91038072D01*
X182594250Y-91035000D01*
X182753000Y-90876250D01*
X182753000Y-89027000D01*
X183007000Y-89027000D01*
X183007000Y-90876250D01*
X183165750Y-91035000D01*
X184380000Y-91038072D01*
X184504482Y-91025812D01*
X184624180Y-90989502D01*
X184734494Y-90930537D01*
X184831185Y-90851185D01*
X184910537Y-90754494D01*
X184969502Y-90644180D01*
X185005812Y-90524482D01*
X185018072Y-90400000D01*
X185015000Y-89185750D01*
X184856250Y-89027000D01*
X183007000Y-89027000D01*
X182753000Y-89027000D01*
X180903750Y-89027000D01*
X180745000Y-89185750D01*
X180741928Y-90400000D01*
X179730000Y-90400000D01*
X179730000Y-87400000D01*
X180741928Y-87400000D01*
X180745000Y-88614250D01*
X180903750Y-88773000D01*
X182753000Y-88773000D01*
X182753000Y-86923750D01*
X183007000Y-86923750D01*
X183007000Y-88773000D01*
X184856250Y-88773000D01*
X185015000Y-88614250D01*
X185018072Y-87400000D01*
X185005812Y-87275518D01*
X184969502Y-87155820D01*
X184910537Y-87045506D01*
X184831185Y-86948815D01*
X184734494Y-86869463D01*
X184624180Y-86810498D01*
X184504482Y-86774188D01*
X184380000Y-86761928D01*
X183165750Y-86765000D01*
X183007000Y-86923750D01*
X182753000Y-86923750D01*
X182594250Y-86765000D01*
X181380000Y-86761928D01*
X181255518Y-86774188D01*
X181135820Y-86810498D01*
X181025506Y-86869463D01*
X180928815Y-86948815D01*
X180849463Y-87045506D01*
X180790498Y-87155820D01*
X180754188Y-87275518D01*
X180741928Y-87400000D01*
X179730000Y-87400000D01*
X179730000Y-85311653D01*
X181567952Y-85311653D01*
X181723962Y-85627214D01*
X182098745Y-85818020D01*
X182503551Y-85932044D01*
X182922824Y-85964902D01*
X183340451Y-85915334D01*
X183740383Y-85785243D01*
X184036038Y-85627214D01*
X184192048Y-85311653D01*
X182880000Y-83999605D01*
X181567952Y-85311653D01*
X179730000Y-85311653D01*
X179730000Y-83862824D01*
X180735098Y-83862824D01*
X180784666Y-84280451D01*
X180914757Y-84680383D01*
X181072786Y-84976038D01*
X181388347Y-85132048D01*
X182700395Y-83820000D01*
X183059605Y-83820000D01*
X184371653Y-85132048D01*
X184687214Y-84976038D01*
X184878020Y-84601255D01*
X184992044Y-84196449D01*
X185024902Y-83777176D01*
X184975334Y-83359549D01*
X184845243Y-82959617D01*
X184687214Y-82663962D01*
X184371653Y-82507952D01*
X183059605Y-83820000D01*
X182700395Y-83820000D01*
X181388347Y-82507952D01*
X181072786Y-82663962D01*
X180881980Y-83038745D01*
X180767956Y-83443551D01*
X180735098Y-83862824D01*
X179730000Y-83862824D01*
X179730000Y-82328347D01*
X181567952Y-82328347D01*
X182880000Y-83640395D01*
X184192048Y-82328347D01*
X184036038Y-82012786D01*
X183661255Y-81821980D01*
X183256449Y-81707956D01*
X182837176Y-81675098D01*
X182419549Y-81724666D01*
X182019617Y-81854757D01*
X181723962Y-82012786D01*
X181567952Y-82328347D01*
X179730000Y-82328347D01*
X179730000Y-80240000D01*
X180741928Y-80240000D01*
X180754188Y-80364482D01*
X180790498Y-80484180D01*
X180849463Y-80594494D01*
X180928815Y-80691185D01*
X181025506Y-80770537D01*
X181135820Y-80829502D01*
X181255518Y-80865812D01*
X181380000Y-80878072D01*
X182594250Y-80875000D01*
X182753000Y-80716250D01*
X182753000Y-78867000D01*
X183007000Y-78867000D01*
X183007000Y-80716250D01*
X183165750Y-80875000D01*
X184380000Y-80878072D01*
X184504482Y-80865812D01*
X184624180Y-80829502D01*
X184734494Y-80770537D01*
X184831185Y-80691185D01*
X184910537Y-80594494D01*
X184969502Y-80484180D01*
X185005812Y-80364482D01*
X185018072Y-80240000D01*
X185015000Y-79025750D01*
X184856250Y-78867000D01*
X183007000Y-78867000D01*
X182753000Y-78867000D01*
X180903750Y-78867000D01*
X180745000Y-79025750D01*
X180741928Y-80240000D01*
X179730000Y-80240000D01*
X179730000Y-77240000D01*
X180741928Y-77240000D01*
X180745000Y-78454250D01*
X180903750Y-78613000D01*
X182753000Y-78613000D01*
X182753000Y-76763750D01*
X183007000Y-76763750D01*
X183007000Y-78613000D01*
X184856250Y-78613000D01*
X185015000Y-78454250D01*
X185018072Y-77240000D01*
X185005812Y-77115518D01*
X184969502Y-76995820D01*
X184910537Y-76885506D01*
X184831185Y-76788815D01*
X184734494Y-76709463D01*
X184624180Y-76650498D01*
X184504482Y-76614188D01*
X184380000Y-76601928D01*
X183165750Y-76605000D01*
X183007000Y-76763750D01*
X182753000Y-76763750D01*
X182594250Y-76605000D01*
X181380000Y-76601928D01*
X181255518Y-76614188D01*
X181135820Y-76650498D01*
X181025506Y-76709463D01*
X180928815Y-76788815D01*
X180849463Y-76885506D01*
X180790498Y-76995820D01*
X180754188Y-77115518D01*
X180741928Y-77240000D01*
X179730000Y-77240000D01*
X179730000Y-75151653D01*
X181567952Y-75151653D01*
X181723962Y-75467214D01*
X182098745Y-75658020D01*
X182503551Y-75772044D01*
X182922824Y-75804902D01*
X183340451Y-75755334D01*
X183740383Y-75625243D01*
X184036038Y-75467214D01*
X184192048Y-75151653D01*
X182880000Y-73839605D01*
X181567952Y-75151653D01*
X179730000Y-75151653D01*
X179730000Y-73702824D01*
X180735098Y-73702824D01*
X180784666Y-74120451D01*
X180914757Y-74520383D01*
X181072786Y-74816038D01*
X181388347Y-74972048D01*
X182700395Y-73660000D01*
X183059605Y-73660000D01*
X184371653Y-74972048D01*
X184687214Y-74816038D01*
X184878020Y-74441255D01*
X184992044Y-74036449D01*
X185024902Y-73617176D01*
X184975334Y-73199549D01*
X184845243Y-72799617D01*
X184687214Y-72503962D01*
X184371653Y-72347952D01*
X183059605Y-73660000D01*
X182700395Y-73660000D01*
X181388347Y-72347952D01*
X181072786Y-72503962D01*
X180881980Y-72878745D01*
X180767956Y-73283551D01*
X180735098Y-73702824D01*
X179730000Y-73702824D01*
X179730000Y-72168347D01*
X181567952Y-72168347D01*
X182880000Y-73480395D01*
X184192048Y-72168347D01*
X184036038Y-71852786D01*
X183661255Y-71661980D01*
X183256449Y-71547956D01*
X182837176Y-71515098D01*
X182419549Y-71564666D01*
X182019617Y-71694757D01*
X181723962Y-71852786D01*
X181567952Y-72168347D01*
X179730000Y-72168347D01*
X179730000Y-70080000D01*
X180741928Y-70080000D01*
X180754188Y-70204482D01*
X180790498Y-70324180D01*
X180849463Y-70434494D01*
X180928815Y-70531185D01*
X181025506Y-70610537D01*
X181135820Y-70669502D01*
X181255518Y-70705812D01*
X181380000Y-70718072D01*
X182594250Y-70715000D01*
X182753000Y-70556250D01*
X182753000Y-68707000D01*
X183007000Y-68707000D01*
X183007000Y-70556250D01*
X183165750Y-70715000D01*
X184380000Y-70718072D01*
X184504482Y-70705812D01*
X184624180Y-70669502D01*
X184734494Y-70610537D01*
X184831185Y-70531185D01*
X184910537Y-70434494D01*
X184969502Y-70324180D01*
X185005812Y-70204482D01*
X185018072Y-70080000D01*
X185015000Y-68865750D01*
X184856250Y-68707000D01*
X183007000Y-68707000D01*
X182753000Y-68707000D01*
X180903750Y-68707000D01*
X180745000Y-68865750D01*
X180741928Y-70080000D01*
X179730000Y-70080000D01*
X179730000Y-67080000D01*
X180741928Y-67080000D01*
X180745000Y-68294250D01*
X180903750Y-68453000D01*
X182753000Y-68453000D01*
X182753000Y-66603750D01*
X183007000Y-66603750D01*
X183007000Y-68453000D01*
X184856250Y-68453000D01*
X185015000Y-68294250D01*
X185018072Y-67080000D01*
X185005812Y-66955518D01*
X184969502Y-66835820D01*
X184910537Y-66725506D01*
X184831185Y-66628815D01*
X184734494Y-66549463D01*
X184624180Y-66490498D01*
X184504482Y-66454188D01*
X184380000Y-66441928D01*
X183165750Y-66445000D01*
X183007000Y-66603750D01*
X182753000Y-66603750D01*
X182594250Y-66445000D01*
X181380000Y-66441928D01*
X181255518Y-66454188D01*
X181135820Y-66490498D01*
X181025506Y-66549463D01*
X180928815Y-66628815D01*
X180849463Y-66725506D01*
X180790498Y-66835820D01*
X180754188Y-66955518D01*
X180741928Y-67080000D01*
X179730000Y-67080000D01*
X179730000Y-64991653D01*
X181567952Y-64991653D01*
X181723962Y-65307214D01*
X182098745Y-65498020D01*
X182503551Y-65612044D01*
X182922824Y-65644902D01*
X183340451Y-65595334D01*
X183740383Y-65465243D01*
X184036038Y-65307214D01*
X184192048Y-64991653D01*
X182880000Y-63679605D01*
X181567952Y-64991653D01*
X179730000Y-64991653D01*
X179730000Y-63542824D01*
X180735098Y-63542824D01*
X180784666Y-63960451D01*
X180914757Y-64360383D01*
X181072786Y-64656038D01*
X181388347Y-64812048D01*
X182700395Y-63500000D01*
X183059605Y-63500000D01*
X184371653Y-64812048D01*
X184687214Y-64656038D01*
X184878020Y-64281255D01*
X184992044Y-63876449D01*
X185024902Y-63457176D01*
X184975334Y-63039549D01*
X184845243Y-62639617D01*
X184687214Y-62343962D01*
X184371653Y-62187952D01*
X183059605Y-63500000D01*
X182700395Y-63500000D01*
X181388347Y-62187952D01*
X181072786Y-62343962D01*
X180881980Y-62718745D01*
X180767956Y-63123551D01*
X180735098Y-63542824D01*
X179730000Y-63542824D01*
X179730000Y-62008347D01*
X181567952Y-62008347D01*
X182880000Y-63320395D01*
X184192048Y-62008347D01*
X184036038Y-61692786D01*
X183661255Y-61501980D01*
X183256449Y-61387956D01*
X182837176Y-61355098D01*
X182419549Y-61404666D01*
X182019617Y-61534757D01*
X181723962Y-61692786D01*
X181567952Y-62008347D01*
X179730000Y-62008347D01*
X179730000Y-59920000D01*
X180741928Y-59920000D01*
X180754188Y-60044482D01*
X180790498Y-60164180D01*
X180849463Y-60274494D01*
X180928815Y-60371185D01*
X181025506Y-60450537D01*
X181135820Y-60509502D01*
X181255518Y-60545812D01*
X181380000Y-60558072D01*
X182594250Y-60555000D01*
X182753000Y-60396250D01*
X182753000Y-58547000D01*
X183007000Y-58547000D01*
X183007000Y-60396250D01*
X183165750Y-60555000D01*
X184380000Y-60558072D01*
X184504482Y-60545812D01*
X184624180Y-60509502D01*
X184734494Y-60450537D01*
X184831185Y-60371185D01*
X184910537Y-60274494D01*
X184969502Y-60164180D01*
X185005812Y-60044482D01*
X185018072Y-59920000D01*
X185015000Y-58705750D01*
X184856250Y-58547000D01*
X183007000Y-58547000D01*
X182753000Y-58547000D01*
X180903750Y-58547000D01*
X180745000Y-58705750D01*
X180741928Y-59920000D01*
X179730000Y-59920000D01*
X179730000Y-56920000D01*
X180741928Y-56920000D01*
X180745000Y-58134250D01*
X180903750Y-58293000D01*
X182753000Y-58293000D01*
X182753000Y-56443750D01*
X183007000Y-56443750D01*
X183007000Y-58293000D01*
X184856250Y-58293000D01*
X185015000Y-58134250D01*
X185018072Y-56920000D01*
X185005812Y-56795518D01*
X184969502Y-56675820D01*
X184910537Y-56565506D01*
X184831185Y-56468815D01*
X184734494Y-56389463D01*
X184624180Y-56330498D01*
X184504482Y-56294188D01*
X184380000Y-56281928D01*
X183165750Y-56285000D01*
X183007000Y-56443750D01*
X182753000Y-56443750D01*
X182594250Y-56285000D01*
X181380000Y-56281928D01*
X181255518Y-56294188D01*
X181135820Y-56330498D01*
X181025506Y-56389463D01*
X180928815Y-56468815D01*
X180849463Y-56565506D01*
X180790498Y-56675820D01*
X180754188Y-56795518D01*
X180741928Y-56920000D01*
X179730000Y-56920000D01*
X179730000Y-56007000D01*
X187153620Y-56007000D01*
X189840001Y-58693382D01*
G37*
G04 #@! TD.AperFunction*
G04 #@! TD*
G04 #@! TO.N,/blue*
X206350001Y-137033000D02*
X198926381Y-137033000D01*
X198013381Y-136120000D01*
X201061928Y-136120000D01*
X201074188Y-136244482D01*
X201110498Y-136364180D01*
X201169463Y-136474494D01*
X201248815Y-136571185D01*
X201345506Y-136650537D01*
X201455820Y-136709502D01*
X201575518Y-136745812D01*
X201700000Y-136758072D01*
X202914250Y-136755000D01*
X203073000Y-136596250D01*
X203073000Y-134747000D01*
X203327000Y-134747000D01*
X203327000Y-136596250D01*
X203485750Y-136755000D01*
X204700000Y-136758072D01*
X204824482Y-136745812D01*
X204944180Y-136709502D01*
X205054494Y-136650537D01*
X205151185Y-136571185D01*
X205230537Y-136474494D01*
X205289502Y-136364180D01*
X205325812Y-136244482D01*
X205338072Y-136120000D01*
X205335000Y-134905750D01*
X205176250Y-134747000D01*
X203327000Y-134747000D01*
X203073000Y-134747000D01*
X201223750Y-134747000D01*
X201065000Y-134905750D01*
X201061928Y-136120000D01*
X198013381Y-136120000D01*
X196240000Y-134346620D01*
X196240000Y-133120000D01*
X201061928Y-133120000D01*
X201065000Y-134334250D01*
X201223750Y-134493000D01*
X203073000Y-134493000D01*
X203073000Y-132643750D01*
X203327000Y-132643750D01*
X203327000Y-134493000D01*
X205176250Y-134493000D01*
X205335000Y-134334250D01*
X205338072Y-133120000D01*
X205325812Y-132995518D01*
X205289502Y-132875820D01*
X205230537Y-132765506D01*
X205151185Y-132668815D01*
X205054494Y-132589463D01*
X204944180Y-132530498D01*
X204824482Y-132494188D01*
X204700000Y-132481928D01*
X203485750Y-132485000D01*
X203327000Y-132643750D01*
X203073000Y-132643750D01*
X202914250Y-132485000D01*
X201700000Y-132481928D01*
X201575518Y-132494188D01*
X201455820Y-132530498D01*
X201345506Y-132589463D01*
X201248815Y-132668815D01*
X201169463Y-132765506D01*
X201110498Y-132875820D01*
X201074188Y-132995518D01*
X201061928Y-133120000D01*
X196240000Y-133120000D01*
X196240000Y-131031653D01*
X201887952Y-131031653D01*
X202043962Y-131347214D01*
X202418745Y-131538020D01*
X202823551Y-131652044D01*
X203242824Y-131684902D01*
X203660451Y-131635334D01*
X204060383Y-131505243D01*
X204356038Y-131347214D01*
X204512048Y-131031653D01*
X203200000Y-129719605D01*
X201887952Y-131031653D01*
X196240000Y-131031653D01*
X196240000Y-129582824D01*
X201055098Y-129582824D01*
X201104666Y-130000451D01*
X201234757Y-130400383D01*
X201392786Y-130696038D01*
X201708347Y-130852048D01*
X203020395Y-129540000D01*
X203379605Y-129540000D01*
X204691653Y-130852048D01*
X205007214Y-130696038D01*
X205198020Y-130321255D01*
X205312044Y-129916449D01*
X205344902Y-129497176D01*
X205295334Y-129079549D01*
X205165243Y-128679617D01*
X205007214Y-128383962D01*
X204691653Y-128227952D01*
X203379605Y-129540000D01*
X203020395Y-129540000D01*
X201708347Y-128227952D01*
X201392786Y-128383962D01*
X201201980Y-128758745D01*
X201087956Y-129163551D01*
X201055098Y-129582824D01*
X196240000Y-129582824D01*
X196240000Y-128048347D01*
X201887952Y-128048347D01*
X203200000Y-129360395D01*
X204512048Y-128048347D01*
X204356038Y-127732786D01*
X203981255Y-127541980D01*
X203576449Y-127427956D01*
X203157176Y-127395098D01*
X202739549Y-127444666D01*
X202339617Y-127574757D01*
X202043962Y-127732786D01*
X201887952Y-128048347D01*
X196240000Y-128048347D01*
X196240000Y-125960000D01*
X201061928Y-125960000D01*
X201074188Y-126084482D01*
X201110498Y-126204180D01*
X201169463Y-126314494D01*
X201248815Y-126411185D01*
X201345506Y-126490537D01*
X201455820Y-126549502D01*
X201575518Y-126585812D01*
X201700000Y-126598072D01*
X202914250Y-126595000D01*
X203073000Y-126436250D01*
X203073000Y-124587000D01*
X203327000Y-124587000D01*
X203327000Y-126436250D01*
X203485750Y-126595000D01*
X204700000Y-126598072D01*
X204824482Y-126585812D01*
X204944180Y-126549502D01*
X205054494Y-126490537D01*
X205151185Y-126411185D01*
X205230537Y-126314494D01*
X205289502Y-126204180D01*
X205325812Y-126084482D01*
X205338072Y-125960000D01*
X205335000Y-124745750D01*
X205176250Y-124587000D01*
X203327000Y-124587000D01*
X203073000Y-124587000D01*
X201223750Y-124587000D01*
X201065000Y-124745750D01*
X201061928Y-125960000D01*
X196240000Y-125960000D01*
X196240000Y-122960000D01*
X201061928Y-122960000D01*
X201065000Y-124174250D01*
X201223750Y-124333000D01*
X203073000Y-124333000D01*
X203073000Y-122483750D01*
X203327000Y-122483750D01*
X203327000Y-124333000D01*
X205176250Y-124333000D01*
X205335000Y-124174250D01*
X205338072Y-122960000D01*
X205325812Y-122835518D01*
X205289502Y-122715820D01*
X205230537Y-122605506D01*
X205151185Y-122508815D01*
X205054494Y-122429463D01*
X204944180Y-122370498D01*
X204824482Y-122334188D01*
X204700000Y-122321928D01*
X203485750Y-122325000D01*
X203327000Y-122483750D01*
X203073000Y-122483750D01*
X202914250Y-122325000D01*
X201700000Y-122321928D01*
X201575518Y-122334188D01*
X201455820Y-122370498D01*
X201345506Y-122429463D01*
X201248815Y-122508815D01*
X201169463Y-122605506D01*
X201110498Y-122715820D01*
X201074188Y-122835518D01*
X201061928Y-122960000D01*
X196240000Y-122960000D01*
X196240000Y-120871653D01*
X201887952Y-120871653D01*
X202043962Y-121187214D01*
X202418745Y-121378020D01*
X202823551Y-121492044D01*
X203242824Y-121524902D01*
X203660451Y-121475334D01*
X204060383Y-121345243D01*
X204356038Y-121187214D01*
X204512048Y-120871653D01*
X203200000Y-119559605D01*
X201887952Y-120871653D01*
X196240000Y-120871653D01*
X196240000Y-119422824D01*
X201055098Y-119422824D01*
X201104666Y-119840451D01*
X201234757Y-120240383D01*
X201392786Y-120536038D01*
X201708347Y-120692048D01*
X203020395Y-119380000D01*
X203379605Y-119380000D01*
X204691653Y-120692048D01*
X205007214Y-120536038D01*
X205198020Y-120161255D01*
X205312044Y-119756449D01*
X205344902Y-119337176D01*
X205295334Y-118919549D01*
X205165243Y-118519617D01*
X205007214Y-118223962D01*
X204691653Y-118067952D01*
X203379605Y-119380000D01*
X203020395Y-119380000D01*
X201708347Y-118067952D01*
X201392786Y-118223962D01*
X201201980Y-118598745D01*
X201087956Y-119003551D01*
X201055098Y-119422824D01*
X196240000Y-119422824D01*
X196240000Y-117888347D01*
X201887952Y-117888347D01*
X203200000Y-119200395D01*
X204512048Y-117888347D01*
X204356038Y-117572786D01*
X203981255Y-117381980D01*
X203576449Y-117267956D01*
X203157176Y-117235098D01*
X202739549Y-117284666D01*
X202339617Y-117414757D01*
X202043962Y-117572786D01*
X201887952Y-117888347D01*
X196240000Y-117888347D01*
X196240000Y-115800000D01*
X201061928Y-115800000D01*
X201074188Y-115924482D01*
X201110498Y-116044180D01*
X201169463Y-116154494D01*
X201248815Y-116251185D01*
X201345506Y-116330537D01*
X201455820Y-116389502D01*
X201575518Y-116425812D01*
X201700000Y-116438072D01*
X202914250Y-116435000D01*
X203073000Y-116276250D01*
X203073000Y-114427000D01*
X203327000Y-114427000D01*
X203327000Y-116276250D01*
X203485750Y-116435000D01*
X204700000Y-116438072D01*
X204824482Y-116425812D01*
X204944180Y-116389502D01*
X205054494Y-116330537D01*
X205151185Y-116251185D01*
X205230537Y-116154494D01*
X205289502Y-116044180D01*
X205325812Y-115924482D01*
X205338072Y-115800000D01*
X205335000Y-114585750D01*
X205176250Y-114427000D01*
X203327000Y-114427000D01*
X203073000Y-114427000D01*
X201223750Y-114427000D01*
X201065000Y-114585750D01*
X201061928Y-115800000D01*
X196240000Y-115800000D01*
X196240000Y-112800000D01*
X201061928Y-112800000D01*
X201065000Y-114014250D01*
X201223750Y-114173000D01*
X203073000Y-114173000D01*
X203073000Y-112323750D01*
X203327000Y-112323750D01*
X203327000Y-114173000D01*
X205176250Y-114173000D01*
X205335000Y-114014250D01*
X205338072Y-112800000D01*
X205325812Y-112675518D01*
X205289502Y-112555820D01*
X205230537Y-112445506D01*
X205151185Y-112348815D01*
X205054494Y-112269463D01*
X204944180Y-112210498D01*
X204824482Y-112174188D01*
X204700000Y-112161928D01*
X203485750Y-112165000D01*
X203327000Y-112323750D01*
X203073000Y-112323750D01*
X202914250Y-112165000D01*
X201700000Y-112161928D01*
X201575518Y-112174188D01*
X201455820Y-112210498D01*
X201345506Y-112269463D01*
X201248815Y-112348815D01*
X201169463Y-112445506D01*
X201110498Y-112555820D01*
X201074188Y-112675518D01*
X201061928Y-112800000D01*
X196240000Y-112800000D01*
X196240000Y-110711653D01*
X201887952Y-110711653D01*
X202043962Y-111027214D01*
X202418745Y-111218020D01*
X202823551Y-111332044D01*
X203242824Y-111364902D01*
X203660451Y-111315334D01*
X204060383Y-111185243D01*
X204356038Y-111027214D01*
X204512048Y-110711653D01*
X203200000Y-109399605D01*
X201887952Y-110711653D01*
X196240000Y-110711653D01*
X196240000Y-109262824D01*
X201055098Y-109262824D01*
X201104666Y-109680451D01*
X201234757Y-110080383D01*
X201392786Y-110376038D01*
X201708347Y-110532048D01*
X203020395Y-109220000D01*
X203379605Y-109220000D01*
X204691653Y-110532048D01*
X205007214Y-110376038D01*
X205198020Y-110001255D01*
X205312044Y-109596449D01*
X205344902Y-109177176D01*
X205295334Y-108759549D01*
X205165243Y-108359617D01*
X205007214Y-108063962D01*
X204691653Y-107907952D01*
X203379605Y-109220000D01*
X203020395Y-109220000D01*
X201708347Y-107907952D01*
X201392786Y-108063962D01*
X201201980Y-108438745D01*
X201087956Y-108843551D01*
X201055098Y-109262824D01*
X196240000Y-109262824D01*
X196240000Y-107728347D01*
X201887952Y-107728347D01*
X203200000Y-109040395D01*
X204512048Y-107728347D01*
X204356038Y-107412786D01*
X203981255Y-107221980D01*
X203576449Y-107107956D01*
X203157176Y-107075098D01*
X202739549Y-107124666D01*
X202339617Y-107254757D01*
X202043962Y-107412786D01*
X201887952Y-107728347D01*
X196240000Y-107728347D01*
X196240000Y-105640000D01*
X201061928Y-105640000D01*
X201074188Y-105764482D01*
X201110498Y-105884180D01*
X201169463Y-105994494D01*
X201248815Y-106091185D01*
X201345506Y-106170537D01*
X201455820Y-106229502D01*
X201575518Y-106265812D01*
X201700000Y-106278072D01*
X202914250Y-106275000D01*
X203073000Y-106116250D01*
X203073000Y-104267000D01*
X203327000Y-104267000D01*
X203327000Y-106116250D01*
X203485750Y-106275000D01*
X204700000Y-106278072D01*
X204824482Y-106265812D01*
X204944180Y-106229502D01*
X205054494Y-106170537D01*
X205151185Y-106091185D01*
X205230537Y-105994494D01*
X205289502Y-105884180D01*
X205325812Y-105764482D01*
X205338072Y-105640000D01*
X205335000Y-104425750D01*
X205176250Y-104267000D01*
X203327000Y-104267000D01*
X203073000Y-104267000D01*
X201223750Y-104267000D01*
X201065000Y-104425750D01*
X201061928Y-105640000D01*
X196240000Y-105640000D01*
X196240000Y-102640000D01*
X201061928Y-102640000D01*
X201065000Y-103854250D01*
X201223750Y-104013000D01*
X203073000Y-104013000D01*
X203073000Y-102163750D01*
X203327000Y-102163750D01*
X203327000Y-104013000D01*
X205176250Y-104013000D01*
X205335000Y-103854250D01*
X205338072Y-102640000D01*
X205325812Y-102515518D01*
X205289502Y-102395820D01*
X205230537Y-102285506D01*
X205151185Y-102188815D01*
X205054494Y-102109463D01*
X204944180Y-102050498D01*
X204824482Y-102014188D01*
X204700000Y-102001928D01*
X203485750Y-102005000D01*
X203327000Y-102163750D01*
X203073000Y-102163750D01*
X202914250Y-102005000D01*
X201700000Y-102001928D01*
X201575518Y-102014188D01*
X201455820Y-102050498D01*
X201345506Y-102109463D01*
X201248815Y-102188815D01*
X201169463Y-102285506D01*
X201110498Y-102395820D01*
X201074188Y-102515518D01*
X201061928Y-102640000D01*
X196240000Y-102640000D01*
X196240000Y-100551653D01*
X201887952Y-100551653D01*
X202043962Y-100867214D01*
X202418745Y-101058020D01*
X202823551Y-101172044D01*
X203242824Y-101204902D01*
X203660451Y-101155334D01*
X204060383Y-101025243D01*
X204356038Y-100867214D01*
X204512048Y-100551653D01*
X203200000Y-99239605D01*
X201887952Y-100551653D01*
X196240000Y-100551653D01*
X196240000Y-100297581D01*
X196239773Y-100295281D01*
X196239736Y-100289921D01*
X196236602Y-100260107D01*
X196236602Y-100230132D01*
X196235639Y-100220967D01*
X196180382Y-99728335D01*
X196167946Y-99669827D01*
X196156326Y-99611142D01*
X196153601Y-99602339D01*
X196123441Y-99507264D01*
X196144155Y-99493424D01*
X196267424Y-99370155D01*
X196364277Y-99225205D01*
X196414968Y-99102824D01*
X201055098Y-99102824D01*
X201104666Y-99520451D01*
X201234757Y-99920383D01*
X201392786Y-100216038D01*
X201708347Y-100372048D01*
X203020395Y-99060000D01*
X203379605Y-99060000D01*
X204691653Y-100372048D01*
X205007214Y-100216038D01*
X205198020Y-99841255D01*
X205312044Y-99436449D01*
X205344902Y-99017176D01*
X205295334Y-98599549D01*
X205165243Y-98199617D01*
X205007214Y-97903962D01*
X204691653Y-97747952D01*
X203379605Y-99060000D01*
X203020395Y-99060000D01*
X201708347Y-97747952D01*
X201392786Y-97903962D01*
X201201980Y-98278745D01*
X201087956Y-98683551D01*
X201055098Y-99102824D01*
X196414968Y-99102824D01*
X196430990Y-99064145D01*
X196465000Y-98893165D01*
X196465000Y-98718835D01*
X196430990Y-98547855D01*
X196380102Y-98425000D01*
X196430990Y-98302145D01*
X196465000Y-98131165D01*
X196465000Y-97956835D01*
X196430990Y-97785855D01*
X196380102Y-97663000D01*
X196419308Y-97568347D01*
X201887952Y-97568347D01*
X203200000Y-98880395D01*
X204512048Y-97568347D01*
X204356038Y-97252786D01*
X203981255Y-97061980D01*
X203576449Y-96947956D01*
X203157176Y-96915098D01*
X202739549Y-96964666D01*
X202339617Y-97094757D01*
X202043962Y-97252786D01*
X201887952Y-97568347D01*
X196419308Y-97568347D01*
X196430990Y-97540145D01*
X196465000Y-97369165D01*
X196465000Y-97194835D01*
X196430990Y-97023855D01*
X196380102Y-96901000D01*
X196430990Y-96778145D01*
X196465000Y-96607165D01*
X196465000Y-96432835D01*
X196430990Y-96261855D01*
X196380102Y-96139000D01*
X196430990Y-96016145D01*
X196465000Y-95845165D01*
X196465000Y-95670835D01*
X196430990Y-95499855D01*
X196422766Y-95480000D01*
X201061928Y-95480000D01*
X201074188Y-95604482D01*
X201110498Y-95724180D01*
X201169463Y-95834494D01*
X201248815Y-95931185D01*
X201345506Y-96010537D01*
X201455820Y-96069502D01*
X201575518Y-96105812D01*
X201700000Y-96118072D01*
X202914250Y-96115000D01*
X203073000Y-95956250D01*
X203073000Y-94107000D01*
X203327000Y-94107000D01*
X203327000Y-95956250D01*
X203485750Y-96115000D01*
X204700000Y-96118072D01*
X204824482Y-96105812D01*
X204944180Y-96069502D01*
X205054494Y-96010537D01*
X205151185Y-95931185D01*
X205230537Y-95834494D01*
X205289502Y-95724180D01*
X205325812Y-95604482D01*
X205338072Y-95480000D01*
X205335000Y-94265750D01*
X205176250Y-94107000D01*
X203327000Y-94107000D01*
X203073000Y-94107000D01*
X201223750Y-94107000D01*
X201065000Y-94265750D01*
X201061928Y-95480000D01*
X196422766Y-95480000D01*
X196380102Y-95377000D01*
X196430990Y-95254145D01*
X196465000Y-95083165D01*
X196465000Y-94908835D01*
X196430990Y-94737855D01*
X196380102Y-94615000D01*
X196430990Y-94492145D01*
X196465000Y-94321165D01*
X196465000Y-94146835D01*
X196430990Y-93975855D01*
X196364277Y-93814795D01*
X196267424Y-93669845D01*
X196144155Y-93546576D01*
X196121913Y-93531715D01*
X196163457Y-93394115D01*
X196175074Y-93335442D01*
X196187513Y-93276925D01*
X196188476Y-93267760D01*
X196236850Y-92774405D01*
X196236850Y-92774402D01*
X196240000Y-92742419D01*
X196240000Y-92480000D01*
X201061928Y-92480000D01*
X201065000Y-93694250D01*
X201223750Y-93853000D01*
X203073000Y-93853000D01*
X203073000Y-92003750D01*
X203327000Y-92003750D01*
X203327000Y-93853000D01*
X205176250Y-93853000D01*
X205335000Y-93694250D01*
X205338072Y-92480000D01*
X205325812Y-92355518D01*
X205289502Y-92235820D01*
X205230537Y-92125506D01*
X205151185Y-92028815D01*
X205054494Y-91949463D01*
X204944180Y-91890498D01*
X204824482Y-91854188D01*
X204700000Y-91841928D01*
X203485750Y-91845000D01*
X203327000Y-92003750D01*
X203073000Y-92003750D01*
X202914250Y-91845000D01*
X201700000Y-91841928D01*
X201575518Y-91854188D01*
X201455820Y-91890498D01*
X201345506Y-91949463D01*
X201248815Y-92028815D01*
X201169463Y-92125506D01*
X201110498Y-92235820D01*
X201074188Y-92355518D01*
X201061928Y-92480000D01*
X196240000Y-92480000D01*
X196240000Y-90391653D01*
X201887952Y-90391653D01*
X202043962Y-90707214D01*
X202418745Y-90898020D01*
X202823551Y-91012044D01*
X203242824Y-91044902D01*
X203660451Y-90995334D01*
X204060383Y-90865243D01*
X204356038Y-90707214D01*
X204512048Y-90391653D01*
X203200000Y-89079605D01*
X201887952Y-90391653D01*
X196240000Y-90391653D01*
X196240000Y-88942824D01*
X201055098Y-88942824D01*
X201104666Y-89360451D01*
X201234757Y-89760383D01*
X201392786Y-90056038D01*
X201708347Y-90212048D01*
X203020395Y-88900000D01*
X203379605Y-88900000D01*
X204691653Y-90212048D01*
X205007214Y-90056038D01*
X205198020Y-89681255D01*
X205312044Y-89276449D01*
X205344902Y-88857176D01*
X205295334Y-88439549D01*
X205165243Y-88039617D01*
X205007214Y-87743962D01*
X204691653Y-87587952D01*
X203379605Y-88900000D01*
X203020395Y-88900000D01*
X201708347Y-87587952D01*
X201392786Y-87743962D01*
X201201980Y-88118745D01*
X201087956Y-88523551D01*
X201055098Y-88942824D01*
X196240000Y-88942824D01*
X196240000Y-87408347D01*
X201887952Y-87408347D01*
X203200000Y-88720395D01*
X204512048Y-87408347D01*
X204356038Y-87092786D01*
X203981255Y-86901980D01*
X203576449Y-86787956D01*
X203157176Y-86755098D01*
X202739549Y-86804666D01*
X202339617Y-86934757D01*
X202043962Y-87092786D01*
X201887952Y-87408347D01*
X196240000Y-87408347D01*
X196240000Y-85320000D01*
X201061928Y-85320000D01*
X201074188Y-85444482D01*
X201110498Y-85564180D01*
X201169463Y-85674494D01*
X201248815Y-85771185D01*
X201345506Y-85850537D01*
X201455820Y-85909502D01*
X201575518Y-85945812D01*
X201700000Y-85958072D01*
X202914250Y-85955000D01*
X203073000Y-85796250D01*
X203073000Y-83947000D01*
X203327000Y-83947000D01*
X203327000Y-85796250D01*
X203485750Y-85955000D01*
X204700000Y-85958072D01*
X204824482Y-85945812D01*
X204944180Y-85909502D01*
X205054494Y-85850537D01*
X205151185Y-85771185D01*
X205230537Y-85674494D01*
X205289502Y-85564180D01*
X205325812Y-85444482D01*
X205338072Y-85320000D01*
X205335000Y-84105750D01*
X205176250Y-83947000D01*
X203327000Y-83947000D01*
X203073000Y-83947000D01*
X201223750Y-83947000D01*
X201065000Y-84105750D01*
X201061928Y-85320000D01*
X196240000Y-85320000D01*
X196240000Y-82320000D01*
X201061928Y-82320000D01*
X201065000Y-83534250D01*
X201223750Y-83693000D01*
X203073000Y-83693000D01*
X203073000Y-81843750D01*
X203327000Y-81843750D01*
X203327000Y-83693000D01*
X205176250Y-83693000D01*
X205335000Y-83534250D01*
X205338072Y-82320000D01*
X205325812Y-82195518D01*
X205289502Y-82075820D01*
X205230537Y-81965506D01*
X205151185Y-81868815D01*
X205054494Y-81789463D01*
X204944180Y-81730498D01*
X204824482Y-81694188D01*
X204700000Y-81681928D01*
X203485750Y-81685000D01*
X203327000Y-81843750D01*
X203073000Y-81843750D01*
X202914250Y-81685000D01*
X201700000Y-81681928D01*
X201575518Y-81694188D01*
X201455820Y-81730498D01*
X201345506Y-81789463D01*
X201248815Y-81868815D01*
X201169463Y-81965506D01*
X201110498Y-82075820D01*
X201074188Y-82195518D01*
X201061928Y-82320000D01*
X196240000Y-82320000D01*
X196240000Y-80231653D01*
X201887952Y-80231653D01*
X202043962Y-80547214D01*
X202418745Y-80738020D01*
X202823551Y-80852044D01*
X203242824Y-80884902D01*
X203660451Y-80835334D01*
X204060383Y-80705243D01*
X204356038Y-80547214D01*
X204512048Y-80231653D01*
X203200000Y-78919605D01*
X201887952Y-80231653D01*
X196240000Y-80231653D01*
X196240000Y-78782824D01*
X201055098Y-78782824D01*
X201104666Y-79200451D01*
X201234757Y-79600383D01*
X201392786Y-79896038D01*
X201708347Y-80052048D01*
X203020395Y-78740000D01*
X203379605Y-78740000D01*
X204691653Y-80052048D01*
X205007214Y-79896038D01*
X205198020Y-79521255D01*
X205312044Y-79116449D01*
X205344902Y-78697176D01*
X205295334Y-78279549D01*
X205165243Y-77879617D01*
X205007214Y-77583962D01*
X204691653Y-77427952D01*
X203379605Y-78740000D01*
X203020395Y-78740000D01*
X201708347Y-77427952D01*
X201392786Y-77583962D01*
X201201980Y-77958745D01*
X201087956Y-78363551D01*
X201055098Y-78782824D01*
X196240000Y-78782824D01*
X196240000Y-77248347D01*
X201887952Y-77248347D01*
X203200000Y-78560395D01*
X204512048Y-77248347D01*
X204356038Y-76932786D01*
X203981255Y-76741980D01*
X203576449Y-76627956D01*
X203157176Y-76595098D01*
X202739549Y-76644666D01*
X202339617Y-76774757D01*
X202043962Y-76932786D01*
X201887952Y-77248347D01*
X196240000Y-77248347D01*
X196240000Y-75160000D01*
X201061928Y-75160000D01*
X201074188Y-75284482D01*
X201110498Y-75404180D01*
X201169463Y-75514494D01*
X201248815Y-75611185D01*
X201345506Y-75690537D01*
X201455820Y-75749502D01*
X201575518Y-75785812D01*
X201700000Y-75798072D01*
X202914250Y-75795000D01*
X203073000Y-75636250D01*
X203073000Y-73787000D01*
X203327000Y-73787000D01*
X203327000Y-75636250D01*
X203485750Y-75795000D01*
X204700000Y-75798072D01*
X204824482Y-75785812D01*
X204944180Y-75749502D01*
X205054494Y-75690537D01*
X205151185Y-75611185D01*
X205230537Y-75514494D01*
X205289502Y-75404180D01*
X205325812Y-75284482D01*
X205338072Y-75160000D01*
X205335000Y-73945750D01*
X205176250Y-73787000D01*
X203327000Y-73787000D01*
X203073000Y-73787000D01*
X201223750Y-73787000D01*
X201065000Y-73945750D01*
X201061928Y-75160000D01*
X196240000Y-75160000D01*
X196240000Y-72160000D01*
X201061928Y-72160000D01*
X201065000Y-73374250D01*
X201223750Y-73533000D01*
X203073000Y-73533000D01*
X203073000Y-71683750D01*
X203327000Y-71683750D01*
X203327000Y-73533000D01*
X205176250Y-73533000D01*
X205335000Y-73374250D01*
X205338072Y-72160000D01*
X205325812Y-72035518D01*
X205289502Y-71915820D01*
X205230537Y-71805506D01*
X205151185Y-71708815D01*
X205054494Y-71629463D01*
X204944180Y-71570498D01*
X204824482Y-71534188D01*
X204700000Y-71521928D01*
X203485750Y-71525000D01*
X203327000Y-71683750D01*
X203073000Y-71683750D01*
X202914250Y-71525000D01*
X201700000Y-71521928D01*
X201575518Y-71534188D01*
X201455820Y-71570498D01*
X201345506Y-71629463D01*
X201248815Y-71708815D01*
X201169463Y-71805506D01*
X201110498Y-71915820D01*
X201074188Y-72035518D01*
X201061928Y-72160000D01*
X196240000Y-72160000D01*
X196240000Y-70071653D01*
X201887952Y-70071653D01*
X202043962Y-70387214D01*
X202418745Y-70578020D01*
X202823551Y-70692044D01*
X203242824Y-70724902D01*
X203660451Y-70675334D01*
X204060383Y-70545243D01*
X204356038Y-70387214D01*
X204512048Y-70071653D01*
X203200000Y-68759605D01*
X201887952Y-70071653D01*
X196240000Y-70071653D01*
X196240000Y-68622824D01*
X201055098Y-68622824D01*
X201104666Y-69040451D01*
X201234757Y-69440383D01*
X201392786Y-69736038D01*
X201708347Y-69892048D01*
X203020395Y-68580000D01*
X203379605Y-68580000D01*
X204691653Y-69892048D01*
X205007214Y-69736038D01*
X205198020Y-69361255D01*
X205312044Y-68956449D01*
X205344902Y-68537176D01*
X205295334Y-68119549D01*
X205165243Y-67719617D01*
X205007214Y-67423962D01*
X204691653Y-67267952D01*
X203379605Y-68580000D01*
X203020395Y-68580000D01*
X201708347Y-67267952D01*
X201392786Y-67423962D01*
X201201980Y-67798745D01*
X201087956Y-68203551D01*
X201055098Y-68622824D01*
X196240000Y-68622824D01*
X196240000Y-67088347D01*
X201887952Y-67088347D01*
X203200000Y-68400395D01*
X204512048Y-67088347D01*
X204356038Y-66772786D01*
X203981255Y-66581980D01*
X203576449Y-66467956D01*
X203157176Y-66435098D01*
X202739549Y-66484666D01*
X202339617Y-66614757D01*
X202043962Y-66772786D01*
X201887952Y-67088347D01*
X196240000Y-67088347D01*
X196240000Y-65000000D01*
X201061928Y-65000000D01*
X201074188Y-65124482D01*
X201110498Y-65244180D01*
X201169463Y-65354494D01*
X201248815Y-65451185D01*
X201345506Y-65530537D01*
X201455820Y-65589502D01*
X201575518Y-65625812D01*
X201700000Y-65638072D01*
X202914250Y-65635000D01*
X203073000Y-65476250D01*
X203073000Y-63627000D01*
X203327000Y-63627000D01*
X203327000Y-65476250D01*
X203485750Y-65635000D01*
X204700000Y-65638072D01*
X204824482Y-65625812D01*
X204944180Y-65589502D01*
X205054494Y-65530537D01*
X205151185Y-65451185D01*
X205230537Y-65354494D01*
X205289502Y-65244180D01*
X205325812Y-65124482D01*
X205338072Y-65000000D01*
X205335000Y-63785750D01*
X205176250Y-63627000D01*
X203327000Y-63627000D01*
X203073000Y-63627000D01*
X201223750Y-63627000D01*
X201065000Y-63785750D01*
X201061928Y-65000000D01*
X196240000Y-65000000D01*
X196240000Y-62000000D01*
X201061928Y-62000000D01*
X201065000Y-63214250D01*
X201223750Y-63373000D01*
X203073000Y-63373000D01*
X203073000Y-61523750D01*
X203327000Y-61523750D01*
X203327000Y-63373000D01*
X205176250Y-63373000D01*
X205335000Y-63214250D01*
X205338072Y-62000000D01*
X205325812Y-61875518D01*
X205289502Y-61755820D01*
X205230537Y-61645506D01*
X205151185Y-61548815D01*
X205054494Y-61469463D01*
X204944180Y-61410498D01*
X204824482Y-61374188D01*
X204700000Y-61361928D01*
X203485750Y-61365000D01*
X203327000Y-61523750D01*
X203073000Y-61523750D01*
X202914250Y-61365000D01*
X201700000Y-61361928D01*
X201575518Y-61374188D01*
X201455820Y-61410498D01*
X201345506Y-61469463D01*
X201248815Y-61548815D01*
X201169463Y-61645506D01*
X201110498Y-61755820D01*
X201074188Y-61875518D01*
X201061928Y-62000000D01*
X196240000Y-62000000D01*
X196240000Y-59911653D01*
X201887952Y-59911653D01*
X202043962Y-60227214D01*
X202418745Y-60418020D01*
X202823551Y-60532044D01*
X203242824Y-60564902D01*
X203660451Y-60515334D01*
X204060383Y-60385243D01*
X204356038Y-60227214D01*
X204512048Y-59911653D01*
X203200000Y-58599605D01*
X201887952Y-59911653D01*
X196240000Y-59911653D01*
X196240000Y-58693380D01*
X196470556Y-58462824D01*
X201055098Y-58462824D01*
X201104666Y-58880451D01*
X201234757Y-59280383D01*
X201392786Y-59576038D01*
X201708347Y-59732048D01*
X203020395Y-58420000D01*
X203379605Y-58420000D01*
X204691653Y-59732048D01*
X205007214Y-59576038D01*
X205198020Y-59201255D01*
X205312044Y-58796449D01*
X205344902Y-58377176D01*
X205295334Y-57959549D01*
X205165243Y-57559617D01*
X205007214Y-57263962D01*
X204691653Y-57107952D01*
X203379605Y-58420000D01*
X203020395Y-58420000D01*
X201708347Y-57107952D01*
X201392786Y-57263962D01*
X201201980Y-57638745D01*
X201087956Y-58043551D01*
X201055098Y-58462824D01*
X196470556Y-58462824D01*
X198005033Y-56928347D01*
X201887952Y-56928347D01*
X203200000Y-58240395D01*
X204512048Y-56928347D01*
X204356038Y-56612786D01*
X203981255Y-56421980D01*
X203576449Y-56307956D01*
X203157176Y-56275098D01*
X202739549Y-56324666D01*
X202339617Y-56454757D01*
X202043962Y-56612786D01*
X201887952Y-56928347D01*
X198005033Y-56928347D01*
X198926381Y-56007000D01*
X206350000Y-56007000D01*
X206350001Y-137033000D01*
X206350001Y-137033000D02*
X206350000Y-56007000D01*
G04 #@! TA.AperFunction,Conductor*
G36*
X206350001Y-137033000D02*
G01*
X198926381Y-137033000D01*
X198013381Y-136120000D01*
X201061928Y-136120000D01*
X201074188Y-136244482D01*
X201110498Y-136364180D01*
X201169463Y-136474494D01*
X201248815Y-136571185D01*
X201345506Y-136650537D01*
X201455820Y-136709502D01*
X201575518Y-136745812D01*
X201700000Y-136758072D01*
X202914250Y-136755000D01*
X203073000Y-136596250D01*
X203073000Y-134747000D01*
X203327000Y-134747000D01*
X203327000Y-136596250D01*
X203485750Y-136755000D01*
X204700000Y-136758072D01*
X204824482Y-136745812D01*
X204944180Y-136709502D01*
X205054494Y-136650537D01*
X205151185Y-136571185D01*
X205230537Y-136474494D01*
X205289502Y-136364180D01*
X205325812Y-136244482D01*
X205338072Y-136120000D01*
X205335000Y-134905750D01*
X205176250Y-134747000D01*
X203327000Y-134747000D01*
X203073000Y-134747000D01*
X201223750Y-134747000D01*
X201065000Y-134905750D01*
X201061928Y-136120000D01*
X198013381Y-136120000D01*
X196240000Y-134346620D01*
X196240000Y-133120000D01*
X201061928Y-133120000D01*
X201065000Y-134334250D01*
X201223750Y-134493000D01*
X203073000Y-134493000D01*
X203073000Y-132643750D01*
X203327000Y-132643750D01*
X203327000Y-134493000D01*
X205176250Y-134493000D01*
X205335000Y-134334250D01*
X205338072Y-133120000D01*
X205325812Y-132995518D01*
X205289502Y-132875820D01*
X205230537Y-132765506D01*
X205151185Y-132668815D01*
X205054494Y-132589463D01*
X204944180Y-132530498D01*
X204824482Y-132494188D01*
X204700000Y-132481928D01*
X203485750Y-132485000D01*
X203327000Y-132643750D01*
X203073000Y-132643750D01*
X202914250Y-132485000D01*
X201700000Y-132481928D01*
X201575518Y-132494188D01*
X201455820Y-132530498D01*
X201345506Y-132589463D01*
X201248815Y-132668815D01*
X201169463Y-132765506D01*
X201110498Y-132875820D01*
X201074188Y-132995518D01*
X201061928Y-133120000D01*
X196240000Y-133120000D01*
X196240000Y-131031653D01*
X201887952Y-131031653D01*
X202043962Y-131347214D01*
X202418745Y-131538020D01*
X202823551Y-131652044D01*
X203242824Y-131684902D01*
X203660451Y-131635334D01*
X204060383Y-131505243D01*
X204356038Y-131347214D01*
X204512048Y-131031653D01*
X203200000Y-129719605D01*
X201887952Y-131031653D01*
X196240000Y-131031653D01*
X196240000Y-129582824D01*
X201055098Y-129582824D01*
X201104666Y-130000451D01*
X201234757Y-130400383D01*
X201392786Y-130696038D01*
X201708347Y-130852048D01*
X203020395Y-129540000D01*
X203379605Y-129540000D01*
X204691653Y-130852048D01*
X205007214Y-130696038D01*
X205198020Y-130321255D01*
X205312044Y-129916449D01*
X205344902Y-129497176D01*
X205295334Y-129079549D01*
X205165243Y-128679617D01*
X205007214Y-128383962D01*
X204691653Y-128227952D01*
X203379605Y-129540000D01*
X203020395Y-129540000D01*
X201708347Y-128227952D01*
X201392786Y-128383962D01*
X201201980Y-128758745D01*
X201087956Y-129163551D01*
X201055098Y-129582824D01*
X196240000Y-129582824D01*
X196240000Y-128048347D01*
X201887952Y-128048347D01*
X203200000Y-129360395D01*
X204512048Y-128048347D01*
X204356038Y-127732786D01*
X203981255Y-127541980D01*
X203576449Y-127427956D01*
X203157176Y-127395098D01*
X202739549Y-127444666D01*
X202339617Y-127574757D01*
X202043962Y-127732786D01*
X201887952Y-128048347D01*
X196240000Y-128048347D01*
X196240000Y-125960000D01*
X201061928Y-125960000D01*
X201074188Y-126084482D01*
X201110498Y-126204180D01*
X201169463Y-126314494D01*
X201248815Y-126411185D01*
X201345506Y-126490537D01*
X201455820Y-126549502D01*
X201575518Y-126585812D01*
X201700000Y-126598072D01*
X202914250Y-126595000D01*
X203073000Y-126436250D01*
X203073000Y-124587000D01*
X203327000Y-124587000D01*
X203327000Y-126436250D01*
X203485750Y-126595000D01*
X204700000Y-126598072D01*
X204824482Y-126585812D01*
X204944180Y-126549502D01*
X205054494Y-126490537D01*
X205151185Y-126411185D01*
X205230537Y-126314494D01*
X205289502Y-126204180D01*
X205325812Y-126084482D01*
X205338072Y-125960000D01*
X205335000Y-124745750D01*
X205176250Y-124587000D01*
X203327000Y-124587000D01*
X203073000Y-124587000D01*
X201223750Y-124587000D01*
X201065000Y-124745750D01*
X201061928Y-125960000D01*
X196240000Y-125960000D01*
X196240000Y-122960000D01*
X201061928Y-122960000D01*
X201065000Y-124174250D01*
X201223750Y-124333000D01*
X203073000Y-124333000D01*
X203073000Y-122483750D01*
X203327000Y-122483750D01*
X203327000Y-124333000D01*
X205176250Y-124333000D01*
X205335000Y-124174250D01*
X205338072Y-122960000D01*
X205325812Y-122835518D01*
X205289502Y-122715820D01*
X205230537Y-122605506D01*
X205151185Y-122508815D01*
X205054494Y-122429463D01*
X204944180Y-122370498D01*
X204824482Y-122334188D01*
X204700000Y-122321928D01*
X203485750Y-122325000D01*
X203327000Y-122483750D01*
X203073000Y-122483750D01*
X202914250Y-122325000D01*
X201700000Y-122321928D01*
X201575518Y-122334188D01*
X201455820Y-122370498D01*
X201345506Y-122429463D01*
X201248815Y-122508815D01*
X201169463Y-122605506D01*
X201110498Y-122715820D01*
X201074188Y-122835518D01*
X201061928Y-122960000D01*
X196240000Y-122960000D01*
X196240000Y-120871653D01*
X201887952Y-120871653D01*
X202043962Y-121187214D01*
X202418745Y-121378020D01*
X202823551Y-121492044D01*
X203242824Y-121524902D01*
X203660451Y-121475334D01*
X204060383Y-121345243D01*
X204356038Y-121187214D01*
X204512048Y-120871653D01*
X203200000Y-119559605D01*
X201887952Y-120871653D01*
X196240000Y-120871653D01*
X196240000Y-119422824D01*
X201055098Y-119422824D01*
X201104666Y-119840451D01*
X201234757Y-120240383D01*
X201392786Y-120536038D01*
X201708347Y-120692048D01*
X203020395Y-119380000D01*
X203379605Y-119380000D01*
X204691653Y-120692048D01*
X205007214Y-120536038D01*
X205198020Y-120161255D01*
X205312044Y-119756449D01*
X205344902Y-119337176D01*
X205295334Y-118919549D01*
X205165243Y-118519617D01*
X205007214Y-118223962D01*
X204691653Y-118067952D01*
X203379605Y-119380000D01*
X203020395Y-119380000D01*
X201708347Y-118067952D01*
X201392786Y-118223962D01*
X201201980Y-118598745D01*
X201087956Y-119003551D01*
X201055098Y-119422824D01*
X196240000Y-119422824D01*
X196240000Y-117888347D01*
X201887952Y-117888347D01*
X203200000Y-119200395D01*
X204512048Y-117888347D01*
X204356038Y-117572786D01*
X203981255Y-117381980D01*
X203576449Y-117267956D01*
X203157176Y-117235098D01*
X202739549Y-117284666D01*
X202339617Y-117414757D01*
X202043962Y-117572786D01*
X201887952Y-117888347D01*
X196240000Y-117888347D01*
X196240000Y-115800000D01*
X201061928Y-115800000D01*
X201074188Y-115924482D01*
X201110498Y-116044180D01*
X201169463Y-116154494D01*
X201248815Y-116251185D01*
X201345506Y-116330537D01*
X201455820Y-116389502D01*
X201575518Y-116425812D01*
X201700000Y-116438072D01*
X202914250Y-116435000D01*
X203073000Y-116276250D01*
X203073000Y-114427000D01*
X203327000Y-114427000D01*
X203327000Y-116276250D01*
X203485750Y-116435000D01*
X204700000Y-116438072D01*
X204824482Y-116425812D01*
X204944180Y-116389502D01*
X205054494Y-116330537D01*
X205151185Y-116251185D01*
X205230537Y-116154494D01*
X205289502Y-116044180D01*
X205325812Y-115924482D01*
X205338072Y-115800000D01*
X205335000Y-114585750D01*
X205176250Y-114427000D01*
X203327000Y-114427000D01*
X203073000Y-114427000D01*
X201223750Y-114427000D01*
X201065000Y-114585750D01*
X201061928Y-115800000D01*
X196240000Y-115800000D01*
X196240000Y-112800000D01*
X201061928Y-112800000D01*
X201065000Y-114014250D01*
X201223750Y-114173000D01*
X203073000Y-114173000D01*
X203073000Y-112323750D01*
X203327000Y-112323750D01*
X203327000Y-114173000D01*
X205176250Y-114173000D01*
X205335000Y-114014250D01*
X205338072Y-112800000D01*
X205325812Y-112675518D01*
X205289502Y-112555820D01*
X205230537Y-112445506D01*
X205151185Y-112348815D01*
X205054494Y-112269463D01*
X204944180Y-112210498D01*
X204824482Y-112174188D01*
X204700000Y-112161928D01*
X203485750Y-112165000D01*
X203327000Y-112323750D01*
X203073000Y-112323750D01*
X202914250Y-112165000D01*
X201700000Y-112161928D01*
X201575518Y-112174188D01*
X201455820Y-112210498D01*
X201345506Y-112269463D01*
X201248815Y-112348815D01*
X201169463Y-112445506D01*
X201110498Y-112555820D01*
X201074188Y-112675518D01*
X201061928Y-112800000D01*
X196240000Y-112800000D01*
X196240000Y-110711653D01*
X201887952Y-110711653D01*
X202043962Y-111027214D01*
X202418745Y-111218020D01*
X202823551Y-111332044D01*
X203242824Y-111364902D01*
X203660451Y-111315334D01*
X204060383Y-111185243D01*
X204356038Y-111027214D01*
X204512048Y-110711653D01*
X203200000Y-109399605D01*
X201887952Y-110711653D01*
X196240000Y-110711653D01*
X196240000Y-109262824D01*
X201055098Y-109262824D01*
X201104666Y-109680451D01*
X201234757Y-110080383D01*
X201392786Y-110376038D01*
X201708347Y-110532048D01*
X203020395Y-109220000D01*
X203379605Y-109220000D01*
X204691653Y-110532048D01*
X205007214Y-110376038D01*
X205198020Y-110001255D01*
X205312044Y-109596449D01*
X205344902Y-109177176D01*
X205295334Y-108759549D01*
X205165243Y-108359617D01*
X205007214Y-108063962D01*
X204691653Y-107907952D01*
X203379605Y-109220000D01*
X203020395Y-109220000D01*
X201708347Y-107907952D01*
X201392786Y-108063962D01*
X201201980Y-108438745D01*
X201087956Y-108843551D01*
X201055098Y-109262824D01*
X196240000Y-109262824D01*
X196240000Y-107728347D01*
X201887952Y-107728347D01*
X203200000Y-109040395D01*
X204512048Y-107728347D01*
X204356038Y-107412786D01*
X203981255Y-107221980D01*
X203576449Y-107107956D01*
X203157176Y-107075098D01*
X202739549Y-107124666D01*
X202339617Y-107254757D01*
X202043962Y-107412786D01*
X201887952Y-107728347D01*
X196240000Y-107728347D01*
X196240000Y-105640000D01*
X201061928Y-105640000D01*
X201074188Y-105764482D01*
X201110498Y-105884180D01*
X201169463Y-105994494D01*
X201248815Y-106091185D01*
X201345506Y-106170537D01*
X201455820Y-106229502D01*
X201575518Y-106265812D01*
X201700000Y-106278072D01*
X202914250Y-106275000D01*
X203073000Y-106116250D01*
X203073000Y-104267000D01*
X203327000Y-104267000D01*
X203327000Y-106116250D01*
X203485750Y-106275000D01*
X204700000Y-106278072D01*
X204824482Y-106265812D01*
X204944180Y-106229502D01*
X205054494Y-106170537D01*
X205151185Y-106091185D01*
X205230537Y-105994494D01*
X205289502Y-105884180D01*
X205325812Y-105764482D01*
X205338072Y-105640000D01*
X205335000Y-104425750D01*
X205176250Y-104267000D01*
X203327000Y-104267000D01*
X203073000Y-104267000D01*
X201223750Y-104267000D01*
X201065000Y-104425750D01*
X201061928Y-105640000D01*
X196240000Y-105640000D01*
X196240000Y-102640000D01*
X201061928Y-102640000D01*
X201065000Y-103854250D01*
X201223750Y-104013000D01*
X203073000Y-104013000D01*
X203073000Y-102163750D01*
X203327000Y-102163750D01*
X203327000Y-104013000D01*
X205176250Y-104013000D01*
X205335000Y-103854250D01*
X205338072Y-102640000D01*
X205325812Y-102515518D01*
X205289502Y-102395820D01*
X205230537Y-102285506D01*
X205151185Y-102188815D01*
X205054494Y-102109463D01*
X204944180Y-102050498D01*
X204824482Y-102014188D01*
X204700000Y-102001928D01*
X203485750Y-102005000D01*
X203327000Y-102163750D01*
X203073000Y-102163750D01*
X202914250Y-102005000D01*
X201700000Y-102001928D01*
X201575518Y-102014188D01*
X201455820Y-102050498D01*
X201345506Y-102109463D01*
X201248815Y-102188815D01*
X201169463Y-102285506D01*
X201110498Y-102395820D01*
X201074188Y-102515518D01*
X201061928Y-102640000D01*
X196240000Y-102640000D01*
X196240000Y-100551653D01*
X201887952Y-100551653D01*
X202043962Y-100867214D01*
X202418745Y-101058020D01*
X202823551Y-101172044D01*
X203242824Y-101204902D01*
X203660451Y-101155334D01*
X204060383Y-101025243D01*
X204356038Y-100867214D01*
X204512048Y-100551653D01*
X203200000Y-99239605D01*
X201887952Y-100551653D01*
X196240000Y-100551653D01*
X196240000Y-100297581D01*
X196239773Y-100295281D01*
X196239736Y-100289921D01*
X196236602Y-100260107D01*
X196236602Y-100230132D01*
X196235639Y-100220967D01*
X196180382Y-99728335D01*
X196167946Y-99669827D01*
X196156326Y-99611142D01*
X196153601Y-99602339D01*
X196123441Y-99507264D01*
X196144155Y-99493424D01*
X196267424Y-99370155D01*
X196364277Y-99225205D01*
X196414968Y-99102824D01*
X201055098Y-99102824D01*
X201104666Y-99520451D01*
X201234757Y-99920383D01*
X201392786Y-100216038D01*
X201708347Y-100372048D01*
X203020395Y-99060000D01*
X203379605Y-99060000D01*
X204691653Y-100372048D01*
X205007214Y-100216038D01*
X205198020Y-99841255D01*
X205312044Y-99436449D01*
X205344902Y-99017176D01*
X205295334Y-98599549D01*
X205165243Y-98199617D01*
X205007214Y-97903962D01*
X204691653Y-97747952D01*
X203379605Y-99060000D01*
X203020395Y-99060000D01*
X201708347Y-97747952D01*
X201392786Y-97903962D01*
X201201980Y-98278745D01*
X201087956Y-98683551D01*
X201055098Y-99102824D01*
X196414968Y-99102824D01*
X196430990Y-99064145D01*
X196465000Y-98893165D01*
X196465000Y-98718835D01*
X196430990Y-98547855D01*
X196380102Y-98425000D01*
X196430990Y-98302145D01*
X196465000Y-98131165D01*
X196465000Y-97956835D01*
X196430990Y-97785855D01*
X196380102Y-97663000D01*
X196419308Y-97568347D01*
X201887952Y-97568347D01*
X203200000Y-98880395D01*
X204512048Y-97568347D01*
X204356038Y-97252786D01*
X203981255Y-97061980D01*
X203576449Y-96947956D01*
X203157176Y-96915098D01*
X202739549Y-96964666D01*
X202339617Y-97094757D01*
X202043962Y-97252786D01*
X201887952Y-97568347D01*
X196419308Y-97568347D01*
X196430990Y-97540145D01*
X196465000Y-97369165D01*
X196465000Y-97194835D01*
X196430990Y-97023855D01*
X196380102Y-96901000D01*
X196430990Y-96778145D01*
X196465000Y-96607165D01*
X196465000Y-96432835D01*
X196430990Y-96261855D01*
X196380102Y-96139000D01*
X196430990Y-96016145D01*
X196465000Y-95845165D01*
X196465000Y-95670835D01*
X196430990Y-95499855D01*
X196422766Y-95480000D01*
X201061928Y-95480000D01*
X201074188Y-95604482D01*
X201110498Y-95724180D01*
X201169463Y-95834494D01*
X201248815Y-95931185D01*
X201345506Y-96010537D01*
X201455820Y-96069502D01*
X201575518Y-96105812D01*
X201700000Y-96118072D01*
X202914250Y-96115000D01*
X203073000Y-95956250D01*
X203073000Y-94107000D01*
X203327000Y-94107000D01*
X203327000Y-95956250D01*
X203485750Y-96115000D01*
X204700000Y-96118072D01*
X204824482Y-96105812D01*
X204944180Y-96069502D01*
X205054494Y-96010537D01*
X205151185Y-95931185D01*
X205230537Y-95834494D01*
X205289502Y-95724180D01*
X205325812Y-95604482D01*
X205338072Y-95480000D01*
X205335000Y-94265750D01*
X205176250Y-94107000D01*
X203327000Y-94107000D01*
X203073000Y-94107000D01*
X201223750Y-94107000D01*
X201065000Y-94265750D01*
X201061928Y-95480000D01*
X196422766Y-95480000D01*
X196380102Y-95377000D01*
X196430990Y-95254145D01*
X196465000Y-95083165D01*
X196465000Y-94908835D01*
X196430990Y-94737855D01*
X196380102Y-94615000D01*
X196430990Y-94492145D01*
X196465000Y-94321165D01*
X196465000Y-94146835D01*
X196430990Y-93975855D01*
X196364277Y-93814795D01*
X196267424Y-93669845D01*
X196144155Y-93546576D01*
X196121913Y-93531715D01*
X196163457Y-93394115D01*
X196175074Y-93335442D01*
X196187513Y-93276925D01*
X196188476Y-93267760D01*
X196236850Y-92774405D01*
X196236850Y-92774402D01*
X196240000Y-92742419D01*
X196240000Y-92480000D01*
X201061928Y-92480000D01*
X201065000Y-93694250D01*
X201223750Y-93853000D01*
X203073000Y-93853000D01*
X203073000Y-92003750D01*
X203327000Y-92003750D01*
X203327000Y-93853000D01*
X205176250Y-93853000D01*
X205335000Y-93694250D01*
X205338072Y-92480000D01*
X205325812Y-92355518D01*
X205289502Y-92235820D01*
X205230537Y-92125506D01*
X205151185Y-92028815D01*
X205054494Y-91949463D01*
X204944180Y-91890498D01*
X204824482Y-91854188D01*
X204700000Y-91841928D01*
X203485750Y-91845000D01*
X203327000Y-92003750D01*
X203073000Y-92003750D01*
X202914250Y-91845000D01*
X201700000Y-91841928D01*
X201575518Y-91854188D01*
X201455820Y-91890498D01*
X201345506Y-91949463D01*
X201248815Y-92028815D01*
X201169463Y-92125506D01*
X201110498Y-92235820D01*
X201074188Y-92355518D01*
X201061928Y-92480000D01*
X196240000Y-92480000D01*
X196240000Y-90391653D01*
X201887952Y-90391653D01*
X202043962Y-90707214D01*
X202418745Y-90898020D01*
X202823551Y-91012044D01*
X203242824Y-91044902D01*
X203660451Y-90995334D01*
X204060383Y-90865243D01*
X204356038Y-90707214D01*
X204512048Y-90391653D01*
X203200000Y-89079605D01*
X201887952Y-90391653D01*
X196240000Y-90391653D01*
X196240000Y-88942824D01*
X201055098Y-88942824D01*
X201104666Y-89360451D01*
X201234757Y-89760383D01*
X201392786Y-90056038D01*
X201708347Y-90212048D01*
X203020395Y-88900000D01*
X203379605Y-88900000D01*
X204691653Y-90212048D01*
X205007214Y-90056038D01*
X205198020Y-89681255D01*
X205312044Y-89276449D01*
X205344902Y-88857176D01*
X205295334Y-88439549D01*
X205165243Y-88039617D01*
X205007214Y-87743962D01*
X204691653Y-87587952D01*
X203379605Y-88900000D01*
X203020395Y-88900000D01*
X201708347Y-87587952D01*
X201392786Y-87743962D01*
X201201980Y-88118745D01*
X201087956Y-88523551D01*
X201055098Y-88942824D01*
X196240000Y-88942824D01*
X196240000Y-87408347D01*
X201887952Y-87408347D01*
X203200000Y-88720395D01*
X204512048Y-87408347D01*
X204356038Y-87092786D01*
X203981255Y-86901980D01*
X203576449Y-86787956D01*
X203157176Y-86755098D01*
X202739549Y-86804666D01*
X202339617Y-86934757D01*
X202043962Y-87092786D01*
X201887952Y-87408347D01*
X196240000Y-87408347D01*
X196240000Y-85320000D01*
X201061928Y-85320000D01*
X201074188Y-85444482D01*
X201110498Y-85564180D01*
X201169463Y-85674494D01*
X201248815Y-85771185D01*
X201345506Y-85850537D01*
X201455820Y-85909502D01*
X201575518Y-85945812D01*
X201700000Y-85958072D01*
X202914250Y-85955000D01*
X203073000Y-85796250D01*
X203073000Y-83947000D01*
X203327000Y-83947000D01*
X203327000Y-85796250D01*
X203485750Y-85955000D01*
X204700000Y-85958072D01*
X204824482Y-85945812D01*
X204944180Y-85909502D01*
X205054494Y-85850537D01*
X205151185Y-85771185D01*
X205230537Y-85674494D01*
X205289502Y-85564180D01*
X205325812Y-85444482D01*
X205338072Y-85320000D01*
X205335000Y-84105750D01*
X205176250Y-83947000D01*
X203327000Y-83947000D01*
X203073000Y-83947000D01*
X201223750Y-83947000D01*
X201065000Y-84105750D01*
X201061928Y-85320000D01*
X196240000Y-85320000D01*
X196240000Y-82320000D01*
X201061928Y-82320000D01*
X201065000Y-83534250D01*
X201223750Y-83693000D01*
X203073000Y-83693000D01*
X203073000Y-81843750D01*
X203327000Y-81843750D01*
X203327000Y-83693000D01*
X205176250Y-83693000D01*
X205335000Y-83534250D01*
X205338072Y-82320000D01*
X205325812Y-82195518D01*
X205289502Y-82075820D01*
X205230537Y-81965506D01*
X205151185Y-81868815D01*
X205054494Y-81789463D01*
X204944180Y-81730498D01*
X204824482Y-81694188D01*
X204700000Y-81681928D01*
X203485750Y-81685000D01*
X203327000Y-81843750D01*
X203073000Y-81843750D01*
X202914250Y-81685000D01*
X201700000Y-81681928D01*
X201575518Y-81694188D01*
X201455820Y-81730498D01*
X201345506Y-81789463D01*
X201248815Y-81868815D01*
X201169463Y-81965506D01*
X201110498Y-82075820D01*
X201074188Y-82195518D01*
X201061928Y-82320000D01*
X196240000Y-82320000D01*
X196240000Y-80231653D01*
X201887952Y-80231653D01*
X202043962Y-80547214D01*
X202418745Y-80738020D01*
X202823551Y-80852044D01*
X203242824Y-80884902D01*
X203660451Y-80835334D01*
X204060383Y-80705243D01*
X204356038Y-80547214D01*
X204512048Y-80231653D01*
X203200000Y-78919605D01*
X201887952Y-80231653D01*
X196240000Y-80231653D01*
X196240000Y-78782824D01*
X201055098Y-78782824D01*
X201104666Y-79200451D01*
X201234757Y-79600383D01*
X201392786Y-79896038D01*
X201708347Y-80052048D01*
X203020395Y-78740000D01*
X203379605Y-78740000D01*
X204691653Y-80052048D01*
X205007214Y-79896038D01*
X205198020Y-79521255D01*
X205312044Y-79116449D01*
X205344902Y-78697176D01*
X205295334Y-78279549D01*
X205165243Y-77879617D01*
X205007214Y-77583962D01*
X204691653Y-77427952D01*
X203379605Y-78740000D01*
X203020395Y-78740000D01*
X201708347Y-77427952D01*
X201392786Y-77583962D01*
X201201980Y-77958745D01*
X201087956Y-78363551D01*
X201055098Y-78782824D01*
X196240000Y-78782824D01*
X196240000Y-77248347D01*
X201887952Y-77248347D01*
X203200000Y-78560395D01*
X204512048Y-77248347D01*
X204356038Y-76932786D01*
X203981255Y-76741980D01*
X203576449Y-76627956D01*
X203157176Y-76595098D01*
X202739549Y-76644666D01*
X202339617Y-76774757D01*
X202043962Y-76932786D01*
X201887952Y-77248347D01*
X196240000Y-77248347D01*
X196240000Y-75160000D01*
X201061928Y-75160000D01*
X201074188Y-75284482D01*
X201110498Y-75404180D01*
X201169463Y-75514494D01*
X201248815Y-75611185D01*
X201345506Y-75690537D01*
X201455820Y-75749502D01*
X201575518Y-75785812D01*
X201700000Y-75798072D01*
X202914250Y-75795000D01*
X203073000Y-75636250D01*
X203073000Y-73787000D01*
X203327000Y-73787000D01*
X203327000Y-75636250D01*
X203485750Y-75795000D01*
X204700000Y-75798072D01*
X204824482Y-75785812D01*
X204944180Y-75749502D01*
X205054494Y-75690537D01*
X205151185Y-75611185D01*
X205230537Y-75514494D01*
X205289502Y-75404180D01*
X205325812Y-75284482D01*
X205338072Y-75160000D01*
X205335000Y-73945750D01*
X205176250Y-73787000D01*
X203327000Y-73787000D01*
X203073000Y-73787000D01*
X201223750Y-73787000D01*
X201065000Y-73945750D01*
X201061928Y-75160000D01*
X196240000Y-75160000D01*
X196240000Y-72160000D01*
X201061928Y-72160000D01*
X201065000Y-73374250D01*
X201223750Y-73533000D01*
X203073000Y-73533000D01*
X203073000Y-71683750D01*
X203327000Y-71683750D01*
X203327000Y-73533000D01*
X205176250Y-73533000D01*
X205335000Y-73374250D01*
X205338072Y-72160000D01*
X205325812Y-72035518D01*
X205289502Y-71915820D01*
X205230537Y-71805506D01*
X205151185Y-71708815D01*
X205054494Y-71629463D01*
X204944180Y-71570498D01*
X204824482Y-71534188D01*
X204700000Y-71521928D01*
X203485750Y-71525000D01*
X203327000Y-71683750D01*
X203073000Y-71683750D01*
X202914250Y-71525000D01*
X201700000Y-71521928D01*
X201575518Y-71534188D01*
X201455820Y-71570498D01*
X201345506Y-71629463D01*
X201248815Y-71708815D01*
X201169463Y-71805506D01*
X201110498Y-71915820D01*
X201074188Y-72035518D01*
X201061928Y-72160000D01*
X196240000Y-72160000D01*
X196240000Y-70071653D01*
X201887952Y-70071653D01*
X202043962Y-70387214D01*
X202418745Y-70578020D01*
X202823551Y-70692044D01*
X203242824Y-70724902D01*
X203660451Y-70675334D01*
X204060383Y-70545243D01*
X204356038Y-70387214D01*
X204512048Y-70071653D01*
X203200000Y-68759605D01*
X201887952Y-70071653D01*
X196240000Y-70071653D01*
X196240000Y-68622824D01*
X201055098Y-68622824D01*
X201104666Y-69040451D01*
X201234757Y-69440383D01*
X201392786Y-69736038D01*
X201708347Y-69892048D01*
X203020395Y-68580000D01*
X203379605Y-68580000D01*
X204691653Y-69892048D01*
X205007214Y-69736038D01*
X205198020Y-69361255D01*
X205312044Y-68956449D01*
X205344902Y-68537176D01*
X205295334Y-68119549D01*
X205165243Y-67719617D01*
X205007214Y-67423962D01*
X204691653Y-67267952D01*
X203379605Y-68580000D01*
X203020395Y-68580000D01*
X201708347Y-67267952D01*
X201392786Y-67423962D01*
X201201980Y-67798745D01*
X201087956Y-68203551D01*
X201055098Y-68622824D01*
X196240000Y-68622824D01*
X196240000Y-67088347D01*
X201887952Y-67088347D01*
X203200000Y-68400395D01*
X204512048Y-67088347D01*
X204356038Y-66772786D01*
X203981255Y-66581980D01*
X203576449Y-66467956D01*
X203157176Y-66435098D01*
X202739549Y-66484666D01*
X202339617Y-66614757D01*
X202043962Y-66772786D01*
X201887952Y-67088347D01*
X196240000Y-67088347D01*
X196240000Y-65000000D01*
X201061928Y-65000000D01*
X201074188Y-65124482D01*
X201110498Y-65244180D01*
X201169463Y-65354494D01*
X201248815Y-65451185D01*
X201345506Y-65530537D01*
X201455820Y-65589502D01*
X201575518Y-65625812D01*
X201700000Y-65638072D01*
X202914250Y-65635000D01*
X203073000Y-65476250D01*
X203073000Y-63627000D01*
X203327000Y-63627000D01*
X203327000Y-65476250D01*
X203485750Y-65635000D01*
X204700000Y-65638072D01*
X204824482Y-65625812D01*
X204944180Y-65589502D01*
X205054494Y-65530537D01*
X205151185Y-65451185D01*
X205230537Y-65354494D01*
X205289502Y-65244180D01*
X205325812Y-65124482D01*
X205338072Y-65000000D01*
X205335000Y-63785750D01*
X205176250Y-63627000D01*
X203327000Y-63627000D01*
X203073000Y-63627000D01*
X201223750Y-63627000D01*
X201065000Y-63785750D01*
X201061928Y-65000000D01*
X196240000Y-65000000D01*
X196240000Y-62000000D01*
X201061928Y-62000000D01*
X201065000Y-63214250D01*
X201223750Y-63373000D01*
X203073000Y-63373000D01*
X203073000Y-61523750D01*
X203327000Y-61523750D01*
X203327000Y-63373000D01*
X205176250Y-63373000D01*
X205335000Y-63214250D01*
X205338072Y-62000000D01*
X205325812Y-61875518D01*
X205289502Y-61755820D01*
X205230537Y-61645506D01*
X205151185Y-61548815D01*
X205054494Y-61469463D01*
X204944180Y-61410498D01*
X204824482Y-61374188D01*
X204700000Y-61361928D01*
X203485750Y-61365000D01*
X203327000Y-61523750D01*
X203073000Y-61523750D01*
X202914250Y-61365000D01*
X201700000Y-61361928D01*
X201575518Y-61374188D01*
X201455820Y-61410498D01*
X201345506Y-61469463D01*
X201248815Y-61548815D01*
X201169463Y-61645506D01*
X201110498Y-61755820D01*
X201074188Y-61875518D01*
X201061928Y-62000000D01*
X196240000Y-62000000D01*
X196240000Y-59911653D01*
X201887952Y-59911653D01*
X202043962Y-60227214D01*
X202418745Y-60418020D01*
X202823551Y-60532044D01*
X203242824Y-60564902D01*
X203660451Y-60515334D01*
X204060383Y-60385243D01*
X204356038Y-60227214D01*
X204512048Y-59911653D01*
X203200000Y-58599605D01*
X201887952Y-59911653D01*
X196240000Y-59911653D01*
X196240000Y-58693380D01*
X196470556Y-58462824D01*
X201055098Y-58462824D01*
X201104666Y-58880451D01*
X201234757Y-59280383D01*
X201392786Y-59576038D01*
X201708347Y-59732048D01*
X203020395Y-58420000D01*
X203379605Y-58420000D01*
X204691653Y-59732048D01*
X205007214Y-59576038D01*
X205198020Y-59201255D01*
X205312044Y-58796449D01*
X205344902Y-58377176D01*
X205295334Y-57959549D01*
X205165243Y-57559617D01*
X205007214Y-57263962D01*
X204691653Y-57107952D01*
X203379605Y-58420000D01*
X203020395Y-58420000D01*
X201708347Y-57107952D01*
X201392786Y-57263962D01*
X201201980Y-57638745D01*
X201087956Y-58043551D01*
X201055098Y-58462824D01*
X196470556Y-58462824D01*
X198005033Y-56928347D01*
X201887952Y-56928347D01*
X203200000Y-58240395D01*
X204512048Y-56928347D01*
X204356038Y-56612786D01*
X203981255Y-56421980D01*
X203576449Y-56307956D01*
X203157176Y-56275098D01*
X202739549Y-56324666D01*
X202339617Y-56454757D01*
X202043962Y-56612786D01*
X201887952Y-56928347D01*
X198005033Y-56928347D01*
X198926381Y-56007000D01*
X206350000Y-56007000D01*
X206350001Y-137033000D01*
G37*
G04 #@! TD.AperFunction*
G04 #@! TD*
M02*
