M48
; DRILL file {KiCad 6.0.9-8da3e8f707~116~ubuntu20.04.1} date Wed Apr 19 17:44:35 2023
; FORMAT={-:-/ absolute / metric / decimal}
; #@! TF.CreationDate,2023-04-19T17:44:35+00:00
; #@! TF.GenerationSoftware,Kicad,Pcbnew,6.0.9-8da3e8f707~116~ubuntu20.04.1
; #@! TF.FileFunction,MixedPlating,1,2
FMAT,2
METRIC
; #@! TA.AperFunction,Plated,PTH,ComponentDrill
T1C1.520
; #@! TA.AperFunction,NonPlated,NPTH,ComponentDrill
T2C0.500
; #@! TA.AperFunction,NonPlated,NPTH,ComponentDrill
T3C3.200
%
G90
G05
T1
X182.88Y-58.42
X182.88Y-63.5
X182.88Y-68.58
X182.88Y-73.66
X182.88Y-78.74
X182.88Y-83.82
X182.88Y-88.9
X182.88Y-93.98
X182.88Y-99.06
X182.88Y-104.14
X182.88Y-109.22
X182.88Y-114.3
X182.88Y-119.38
X182.88Y-124.46
X182.88Y-129.54
X182.88Y-134.62
X203.2Y-58.42
X203.2Y-63.5
X203.2Y-68.58
X203.2Y-73.66
X203.2Y-78.74
X203.2Y-83.82
X203.2Y-88.9
X203.2Y-93.98
X203.2Y-99.06
X203.2Y-104.14
X203.2Y-109.22
X203.2Y-114.3
X203.2Y-119.38
X203.2Y-124.46
X203.2Y-129.54
X203.2Y-134.62
T2
X190.5Y-94.234
X190.5Y-94.996
X190.5Y-95.758
X190.5Y-96.52
X190.5Y-97.282
X190.5Y-98.044
X190.5Y-98.806
X195.58Y-94.234
X195.58Y-94.996
X195.58Y-95.758
X195.58Y-96.52
X195.58Y-97.282
X195.58Y-98.044
X195.58Y-98.806
T3
X182.88Y-50.8
X182.88Y-142.24
X203.2Y-50.8
X203.2Y-142.24
T0
M30
