G04 #@! TF.GenerationSoftware,KiCad,Pcbnew,6.0.9-8da3e8f707~116~ubuntu20.04.1*
G04 #@! TF.CreationDate,2023-04-19T17:44:35+00:00*
G04 #@! TF.ProjectId,LEC030201,4c454330-3330-4323-9031-2e6b69636164,rev?*
G04 #@! TF.SameCoordinates,Original*
G04 #@! TF.FileFunction,Soldermask,Bot*
G04 #@! TF.FilePolarity,Negative*
%FSLAX46Y46*%
G04 Gerber Fmt 4.6, Leading zero omitted, Abs format (unit mm)*
G04 Created by KiCad (PCBNEW 6.0.9-8da3e8f707~116~ubuntu20.04.1) date 2023-04-19 17:44:35*
%MOMM*%
%LPD*%
G01*
G04 APERTURE LIST*
%ADD10C,3.200000*%
%ADD11R,3.000000X3.000000*%
%ADD12C,3.000000*%
%ADD13C,0.500000*%
G04 APERTURE END LIST*
D10*
G04 #@! TO.C,H3*
X203200000Y-142240000D03*
G04 #@! TD*
G04 #@! TO.C,H4*
X203200000Y-50800000D03*
G04 #@! TD*
D11*
G04 #@! TO.C,J9*
X203200000Y-134620000D03*
D12*
X203200000Y-129540000D03*
G04 #@! TD*
D11*
G04 #@! TO.C,J10*
X203200000Y-124460000D03*
D12*
X203200000Y-119380000D03*
G04 #@! TD*
D11*
G04 #@! TO.C,J11*
X203200000Y-114300000D03*
D12*
X203200000Y-109220000D03*
G04 #@! TD*
D11*
G04 #@! TO.C,J12*
X203200000Y-104140000D03*
D12*
X203200000Y-99060000D03*
G04 #@! TD*
D11*
G04 #@! TO.C,J2*
X182880000Y-78740000D03*
D12*
X182880000Y-83820000D03*
G04 #@! TD*
D10*
G04 #@! TO.C,H2*
X182880000Y-50800000D03*
G04 #@! TD*
G04 #@! TO.C,H1*
X182880000Y-142240000D03*
G04 #@! TD*
D11*
G04 #@! TO.C,J1*
X182880000Y-68580000D03*
D12*
X182880000Y-73660000D03*
G04 #@! TD*
D11*
G04 #@! TO.C,J4*
X182880000Y-88900000D03*
D12*
X182880000Y-93980000D03*
G04 #@! TD*
D11*
G04 #@! TO.C,J3*
X182880000Y-58420000D03*
D12*
X182880000Y-63500000D03*
G04 #@! TD*
D11*
G04 #@! TO.C,J5*
X182880000Y-99060000D03*
D12*
X182880000Y-104140000D03*
G04 #@! TD*
D11*
G04 #@! TO.C,J6*
X182880000Y-109220000D03*
D12*
X182880000Y-114300000D03*
G04 #@! TD*
D11*
G04 #@! TO.C,J7*
X182880000Y-119380000D03*
D12*
X182880000Y-124460000D03*
G04 #@! TD*
D11*
G04 #@! TO.C,J8*
X182880000Y-129540000D03*
D12*
X182880000Y-134620000D03*
G04 #@! TD*
D11*
G04 #@! TO.C,J13*
X203200000Y-93980000D03*
D12*
X203200000Y-88900000D03*
G04 #@! TD*
D11*
G04 #@! TO.C,J14*
X203200000Y-83820000D03*
D12*
X203200000Y-78740000D03*
G04 #@! TD*
D11*
G04 #@! TO.C,J15*
X203200000Y-73660000D03*
D12*
X203200000Y-68580000D03*
G04 #@! TD*
D11*
G04 #@! TO.C,J16*
X203200000Y-63500000D03*
D12*
X203200000Y-58420000D03*
G04 #@! TD*
D13*
G04 #@! TO.C,REF\u002A\u002A*
X190500000Y-94234000D03*
G04 #@! TD*
G04 #@! TO.C,REF\u002A\u002A*
X190500000Y-98806000D03*
G04 #@! TD*
G04 #@! TO.C,REF\u002A\u002A*
X190500000Y-94996000D03*
G04 #@! TD*
G04 #@! TO.C,REF\u002A\u002A*
X195580000Y-94234000D03*
G04 #@! TD*
G04 #@! TO.C,REF\u002A\u002A*
X195580000Y-96520000D03*
G04 #@! TD*
G04 #@! TO.C,REF\u002A\u002A*
X195580000Y-95758000D03*
G04 #@! TD*
G04 #@! TO.C,REF\u002A\u002A*
X195580000Y-98806000D03*
G04 #@! TD*
G04 #@! TO.C,REF\u002A\u002A*
X195580000Y-94996000D03*
G04 #@! TD*
G04 #@! TO.C,REF\u002A\u002A*
X195580000Y-98044000D03*
G04 #@! TD*
G04 #@! TO.C,REF\u002A\u002A*
X195580000Y-97282000D03*
G04 #@! TD*
G04 #@! TO.C,REF\u002A\u002A*
X190500000Y-96520000D03*
G04 #@! TD*
G04 #@! TO.C,REF\u002A\u002A*
X190500000Y-97282000D03*
G04 #@! TD*
G04 #@! TO.C,REF\u002A\u002A*
X190500000Y-98044000D03*
G04 #@! TD*
G04 #@! TO.C,REF\u002A\u002A*
X190500000Y-95758000D03*
G04 #@! TD*
M02*
